<svg width="106" height="100" viewBox="0 0 106 100" fill="none" xmlns="http://www.w3.org/2000/svg">
<path d="M103.822 95.6862H67.3352L60.2455 34.3842L84.4672 25.2336L89.0739 36.5842V81.8466C89.0739 83.0372 90.0497 84.0034 91.252 84.0034C92.4543 84.0034 93.4301 83.0372 93.4301 81.8466V37.4901C96.0863 35.9339 97.978 33.1936 98.8144 29.6067C99.7216 25.7124 99.2751 21.2336 97.5544 16.9975C95.8348 12.7614 93.0283 9.223 89.65 7.03375C86.03 4.68706 82.1736 4.13489 78.7943 5.48187C77.6791 5.92619 77.1378 7.18258 77.5865 8.28798L82.8412 21.2315L46.9024 34.808C46.898 34.8091 46.8937 34.8113 46.8893 34.8123L31.012 40.8107C29.3326 38.382 26.5447 36.8689 23.4986 36.8689C22.244 36.8689 21.021 37.1224 19.8622 37.6206L17.8649 38.4812C13.2538 40.4688 11.1356 45.8017 13.1427 50.3678C14.1577 52.6746 16.0788 54.3904 18.38 55.2252V95.6862H2.17811C0.975794 95.6862 0 96.6525 0 97.8431C0 99.0337 0.975794 100 2.17811 100H40.6087H65.3924H103.822C105.024 100 106 99.0337 106 97.8431C106 96.6525 105.025 95.6862 103.822 95.6862ZM87.2661 10.6433C89.9048 12.3526 92.1243 15.1814 93.514 18.6065C94.9047 22.0317 95.2793 25.5938 94.5704 28.6361C94.1456 30.4576 93.3572 31.9232 92.2931 32.9466L82.6093 9.0925C84.0926 9.10329 85.6858 9.61986 87.2661 10.6433ZM60.7563 76.7132L47.4709 65.6623L58.1719 54.3646L60.7563 76.7132ZM47.2204 59.622L49.2961 41.6659L56.8052 49.5029L47.2204 59.622ZM46.0115 70.0818L59.9776 81.6977L43.3248 93.3104L46.0115 70.0818ZM56.8945 43.3277L51.4927 37.6907L56.0439 35.9717L56.8945 43.3277ZM17.1396 48.6466C16.0908 46.2611 17.1973 43.4766 19.6063 42.438L21.6025 41.5774C22.2091 41.3164 22.8473 41.1838 23.5007 41.1838C25.399 41.1838 27.1153 42.2978 27.8733 44.0212C28.9221 46.4067 27.8156 49.1912 25.4055 50.2309L23.4093 51.0915C22.8027 51.3525 22.1645 51.4851 21.511 51.4851C19.6128 51.484 17.8965 50.37 17.1396 48.6466ZM22.7373 55.7061C23.5628 55.594 24.3709 55.3804 25.1485 55.0461L27.1447 54.1845C30.9161 52.5582 33.0169 48.6952 32.5595 44.844L45.0913 40.1086L42.1421 65.6203V65.6235L38.6658 95.6862H22.7373V55.7061ZM47.4828 95.6862L61.7963 85.702L62.9518 95.6862H47.4828Z" fill="#0184C1"/>
<path d="M29.1114 32.0115C33.8139 32.0115 37.765 28.8398 38.8824 24.5681C39.4498 24.6899 40.027 24.7643 40.6086 24.7643C45.1314 24.7643 48.8102 21.1559 48.8102 16.7213C48.8102 13.542 47.4097 11.452 46.056 9.431C44.76 7.49519 43.4183 5.49252 42.9871 2.0566C42.8368 0.884325 41.8141 0 40.6075 0H40.6053C39.3986 0.00107845 38.376 0.88756 38.2279 2.06199C37.7977 5.49252 36.4571 7.49412 35.16 9.431C34.8725 9.86022 34.5872 10.2992 34.3084 10.7467C33.0734 8.70197 31.9876 6.34234 31.5596 2.92366C31.405 1.72012 30.3529 0.812069 29.1114 0.812069C27.8699 0.812069 26.8178 1.72012 26.6621 2.92798C26.0762 7.59657 24.2684 10.2959 22.5193 12.9068C20.7954 15.48 19.0137 18.1416 19.0137 22.1157C19.0137 27.5726 23.5441 32.0115 29.1114 32.0115ZM38.7909 11.8144C39.3747 10.943 40.0161 9.98532 40.6086 8.85511C41.201 9.98532 41.8425 10.9441 42.4251 11.8144C43.6024 13.5722 44.4529 14.8426 44.4529 16.7202C44.4529 18.7423 42.6919 20.4495 40.6075 20.4495C40.0629 20.4495 39.526 20.3104 39.0262 20.085C38.7005 18.1222 37.9436 16.4851 37.0408 14.9839C37.3839 13.9314 38.0329 12.9457 38.7909 11.8144ZM26.1503 15.2902C27.1108 13.8559 28.1944 12.2382 29.1114 10.2107C30.0284 12.2382 31.112 13.8559 32.0725 15.2902C33.6865 17.7005 34.8529 19.4422 34.8529 22.1157C34.8529 25.1418 32.2239 27.6977 29.1125 27.6977C26.0011 27.6977 23.3721 25.1418 23.3721 22.1157C23.3699 19.4422 24.5363 17.7005 26.1503 15.2902Z" fill="#0184C1"/>
</svg>
