<svg width="117" height="100" viewBox="0 0 117 100" fill="none" xmlns="http://www.w3.org/2000/svg">
<path d="M88.1856 0.585316C87.9738 0.22242 87.5812 0 87.1552 0H29.843C29.417 0 29.0244 0.22242 28.8126 0.585316L0.158844 49.4147C-0.0529479 49.7776 -0.0529479 50.2224 0.158844 50.5853L28.815 99.4147C29.0268 99.7752 29.4194 100 29.8454 100H87.1552C87.5812 100 87.9738 99.7752 88.1856 99.4147L116.839 50.5853C117.054 50.2224 117.054 49.7776 116.839 49.4147L88.1856 0.585316ZM97.4711 21.0924C97.0023 21.3031 96.5383 21.5326 96.0552 21.7152C95.634 21.8721 95.339 22.2514 95.2961 22.6939C94.8797 26.9152 91.3363 30.0993 87.0553 30.0993C83.976 30.0993 81.3012 28.4393 79.8734 25.9435L92.8332 13.1907L97.4711 21.0924ZM91.6029 11.0929L78.9739 23.518C78.9192 23.2441 78.8406 22.9795 78.8144 22.6962C78.7692 22.2537 78.4742 21.8744 78.0553 21.7152C75.5852 20.7881 73.3507 19.4887 71.3541 17.9388L86.3747 3.16071C86.5222 3.01555 86.6055 2.84229 86.6579 2.66202L91.6029 11.0929ZM69.5456 16.4122C65.6072 12.7084 62.9943 7.80577 62.1329 2.34126H83.8427L69.5575 16.3959C69.5527 16.3982 69.5503 16.4052 69.5456 16.4122ZM86.4675 97.6587H30.5307L2.56232 50L30.5307 2.34126H59.7199C61.0977 11.8983 67.4063 19.9522 76.5419 23.6444C77.3914 28.7062 81.7914 32.4405 87.0553 32.4405C92.3191 32.4405 96.7192 28.7062 97.5687 23.6421C97.9447 23.4899 98.3064 23.3073 98.6729 23.1387L114.436 50L86.4675 97.6587Z" fill="#0184C1"/>
<path d="M58.4988 30.0992C47.3452 30.0992 38.2715 39.0265 38.2715 50C38.2715 60.9735 47.3452 69.9007 58.4988 69.9007C69.6523 69.9007 78.7261 60.9735 78.7261 50C78.7261 39.0265 69.6523 30.0992 58.4988 30.0992ZM58.4988 67.5594C48.6564 67.5594 40.6512 59.6834 40.6512 50C40.6512 40.3165 48.6564 32.4405 58.4988 32.4405C68.3411 32.4405 76.3464 40.3165 76.3464 50C76.3464 59.6834 68.3411 67.5594 58.4988 67.5594Z" fill="#0184C1"/>
</svg>
