<svg width="70" height="60" viewBox="0 0 70 60" fill="none" xmlns="http://www.w3.org/2000/svg">
<path d="M52.7606 0.351189C52.6339 0.133452 52.399 0 52.1442 0H17.8548C17.5999 0 17.365 0.133452 17.2383 0.351189L0.0950347 29.6488C-0.0316782 29.8665 -0.0316782 30.1335 0.0950347 30.3512L17.2397 59.6488C17.3664 59.8651 17.6014 60 17.8562 60H52.1442C52.399 60 52.6339 59.8651 52.7606 59.6488L69.9039 30.3512C70.032 30.1335 70.032 29.8665 69.9039 29.6488L52.7606 0.351189ZM58.3161 12.6555C58.0356 12.7819 57.758 12.9196 57.4689 13.0291C57.2169 13.1232 57.0404 13.3508 57.0148 13.6163C56.7656 16.1491 54.6457 18.0596 52.0844 18.0596C50.242 18.0596 48.6418 17.0636 47.7875 15.5661L55.5412 7.9144L58.3161 12.6555ZM54.8051 6.65574L47.2493 14.1108C47.2166 13.9464 47.1696 13.7877 47.1539 13.6177C47.1269 13.3522 46.9503 13.1247 46.6998 13.0291C45.2219 12.4728 43.885 11.6932 42.6905 10.7633L51.6772 1.89642C51.7654 1.80933 51.8153 1.70538 51.8466 1.59721L54.8051 6.65574ZM41.6085 9.84735C39.2522 7.62502 37.6889 4.68346 37.1735 1.40476H50.1623L41.6156 9.83752C41.6127 9.83892 41.6113 9.84313 41.6085 9.84735ZM51.7327 58.5952H18.2662L1.53301 30L18.2662 1.40476H35.7299C36.5542 7.13898 40.3285 11.9713 45.7943 14.1866C46.3025 17.2237 48.935 19.4643 52.0844 19.4643C55.2337 19.4643 57.8662 17.2237 58.3744 14.1852C58.5994 14.0939 58.8158 13.9844 59.0351 13.8832L68.4659 30L51.7327 58.5952Z" fill="#F0F0F0"/>
<path d="M34.9995 18.0596C28.3264 18.0596 22.8977 23.4159 22.8977 30C22.8977 36.5841 28.3264 41.9404 34.9995 41.9404C41.6726 41.9404 47.1013 36.5841 47.1013 30C47.1013 23.4159 41.6726 18.0596 34.9995 18.0596ZM34.9995 40.5357C29.1109 40.5357 24.3214 35.8101 24.3214 30C24.3214 24.1899 29.1109 19.4643 34.9995 19.4643C40.8881 19.4643 45.6776 24.1899 45.6776 30C45.6776 35.8101 40.8881 40.5357 34.9995 40.5357Z" fill="#F0F0F0"/>
</svg>
