<svg width="135" height="100" viewBox="0 0 135 100" fill="none" xmlns="http://www.w3.org/2000/svg">
<path d="M1.93509 45.4777H15.4622C15.9177 45.4777 16.3545 45.2928 16.6765 44.9637C16.9986 44.6346 17.1795 44.1882 17.1795 43.7228C17.1799 38.7873 19.0157 34.0364 22.315 30.432C25.6143 26.8277 30.1307 24.6393 34.9497 24.3099C39.7686 23.9805 44.5299 25.5348 48.2696 28.658C52.0093 31.7813 54.4478 36.24 55.0914 41.1315H37.1792C36.7815 41.1315 36.3909 41.2394 36.0474 41.4443C35.7038 41.6491 35.4197 41.9436 35.224 42.2974C35.0284 42.6513 34.9282 43.0519 34.9337 43.4583C34.9392 43.8647 35.0503 44.2623 35.2555 44.6105L48.8032 67.5943C49.003 67.9332 49.2851 68.2135 49.6221 68.4081C49.9592 68.6028 50.3397 68.7051 50.7269 68.7051H119C119.387 68.7051 119.767 68.6028 120.105 68.4081C120.442 68.2135 120.724 67.9332 120.923 67.5943L134.471 44.6105C134.681 44.2529 134.792 43.8435 134.791 43.4263H134.793V20.5088C134.793 19.9002 134.557 19.3165 134.135 18.8861C133.714 18.4557 133.143 18.2139 132.547 18.2139H112.367V9.71667H117.696C118.116 9.71667 118.52 9.54599 118.817 9.2422C119.114 8.9384 119.281 8.52637 119.281 8.09674C119.281 7.66711 119.114 7.25507 118.817 6.95128C118.52 6.64748 118.116 6.47681 117.696 6.47681H112.367V3.23985H117.696C118.116 3.23985 118.52 3.06918 118.817 2.76539C119.114 2.46159 119.281 2.04956 119.281 1.61992C119.281 1.19029 119.114 0.778259 118.817 0.474464C118.52 0.170669 118.116 0 117.696 0H102.547C102.126 0 101.723 0.170669 101.426 0.474464C101.128 0.778259 100.961 1.19029 100.961 1.61992C100.961 2.04956 101.128 2.46159 101.426 2.76539C101.723 3.06918 102.126 3.23985 102.547 3.23985H107.875V6.4768H102.547C102.126 6.4768 101.723 6.64747 101.426 6.95127C101.128 7.25506 100.961 7.6671 100.961 8.09673C100.961 8.52636 101.128 8.93839 101.426 9.24219C101.723 9.54598 102.126 9.71665 102.547 9.71665H107.875V42.7193L102.638 50.5777H69.7304L64.1036 42.1347C63.8976 41.8256 63.6209 41.5726 63.2974 41.3977C62.9738 41.2229 62.6134 41.1315 62.2474 41.1315H58.5822C57.9287 33.461 54.4028 26.3444 48.7396 21.2659C43.0765 16.1875 35.7134 13.5391 28.186 13.8733C20.6587 14.2075 13.5481 17.4984 8.33733 23.0597C3.12653 28.621 0.217811 36.0233 0.217773 43.7228C0.217773 44.1882 0.398704 44.6346 0.720763 44.9637C0.880231 45.1266 1.06955 45.2559 1.2779 45.3441C1.48625 45.4323 1.70957 45.4777 1.93509 45.4777ZM112.367 22.8037H130.302V41.1315H112.367L112.367 22.8037ZM61.0599 45.7213L66.6867 54.1642C66.8926 54.4734 67.1694 54.7264 67.4929 54.9012C67.8164 55.0761 68.1768 55.1675 68.5428 55.1675H103.826C104.192 55.1675 104.552 55.0761 104.876 54.9012C105.199 54.7264 105.476 54.4734 105.682 54.1642L111.309 45.7213H128.573L117.731 64.1152H51.9958L41.1536 45.7213H61.0599ZM29.4553 17.3546C34.8676 17.3577 40.1398 19.1128 44.5153 22.3681C41.2402 21.0444 37.7068 20.5249 34.1994 20.8515C30.692 21.178 27.3086 22.3414 24.3216 24.2481C21.3345 26.1548 18.8272 28.7515 17.0014 31.8292C15.1757 34.9069 14.0825 38.3796 13.8098 41.9678H3.70889C4.15215 35.2959 7.05646 29.0445 11.8353 24.476C16.6141 19.9075 22.9114 17.3624 29.4553 17.3546Z" fill="#0184C1"/>
<path d="M133.121 93.364C131.747 93.3027 130.372 93.2719 129.012 93.2719C123.744 93.2641 118.485 93.7223 113.295 94.6413C103.344 96.3864 93.1753 96.3864 83.2249 94.6413C72.8222 92.8154 62.1911 92.8154 51.7884 94.6413C41.838 96.3863 31.6695 96.3864 21.719 94.6416C15.1735 93.4917 8.52601 93.0632 1.89093 93.3635C1.6275 93.3758 1.36912 93.4417 1.13095 93.5574C0.892774 93.6731 0.679588 93.8362 0.503887 94.0371C0.328187 94.2381 0.193505 94.4728 0.107736 94.7277C0.0219664 94.9825 -0.0131648 95.2523 0.0044011 95.5211C0.0382977 96.0488 0.273126 96.5425 0.658558 96.8954C1.04399 97.2483 1.54936 97.4328 2.06635 97.4095C8.41395 97.1223 14.7734 97.5316 21.0355 98.6305C31.4381 100.456 42.0692 100.456 52.4717 98.6305C62.4223 96.8854 72.591 96.8854 82.5415 98.6305C92.9441 100.456 103.575 100.456 113.978 98.6305C118.943 97.7518 123.973 97.3139 129.012 97.3217C130.312 97.3217 131.627 97.3512 132.941 97.4097C133.464 97.4307 133.974 97.2394 134.359 96.8775C134.744 96.5157 134.974 96.0127 134.998 95.4784C135.022 94.9441 134.838 94.4218 134.486 94.0257C134.134 93.6296 133.644 93.3917 133.121 93.364Z" fill="#0184C1"/>
<path d="M133.121 83.4121C131.747 83.3507 130.372 83.3199 129.012 83.3199C123.744 83.3129 118.484 83.7721 113.294 84.6923C103.343 86.4373 93.175 86.4373 83.2249 84.6923C72.8222 82.8625 62.1901 82.8625 51.7874 84.6923C41.8374 86.4372 31.6691 86.4373 21.7191 84.6925C15.1737 83.5434 8.52671 83.1142 1.89186 83.4123C1.62843 83.4245 1.37003 83.4903 1.1318 83.6059C0.893575 83.7214 0.680317 83.8844 0.504524 84.0853C0.328731 84.2862 0.19394 84.5209 0.10805 84.7756C0.0221609 85.0304 -0.0130994 85.3002 0.00433607 85.5691C0.0380305 86.0969 0.272745 86.5906 0.658159 86.9436C1.04357 87.2967 1.549 87.4813 2.06609 87.4581C8.41351 87.1718 14.7727 87.5819 21.0345 88.6814C31.4375 90.5074 42.0689 90.5074 52.4719 88.6814C62.4217 86.9325 72.5908 86.9325 82.5406 88.6814C92.9436 90.5074 103.575 90.5074 113.978 88.6814C118.943 87.8016 123.973 87.3627 129.012 87.3697C130.312 87.3697 131.627 87.3993 132.941 87.4578C133.464 87.4787 133.974 87.2874 134.359 86.9256C134.744 86.5637 134.974 86.0607 134.998 85.5264C135.022 84.9921 134.838 84.4699 134.486 84.0737C134.134 83.6776 133.644 83.4397 133.121 83.4121Z" fill="#0184C1"/>
<path d="M0.00445996 75.6234C0.0383486 76.1511 0.273188 76.6442 0.658639 76.9971C1.04409 77.3499 1.54948 77.5344 2.06647 77.511C8.41405 77.2238 14.7735 77.6332 21.0356 78.7322C31.4382 80.5581 42.0692 80.5581 52.4718 78.7322C62.4223 76.9871 72.591 76.9871 82.5416 78.7322C92.9442 80.5581 103.575 80.5581 113.978 78.7322C118.943 77.8534 123.973 77.4155 129.012 77.4234C130.312 77.4234 131.627 77.4529 132.941 77.5114C133.464 77.5324 133.974 77.3411 134.359 76.9792C134.744 76.6174 134.974 76.1144 134.998 75.5801C135.022 75.0458 134.838 74.5235 134.486 74.1274C134.134 73.7313 133.644 73.4934 133.121 73.4657C131.747 73.4044 130.372 73.3736 129.012 73.3736C123.744 73.3658 118.485 73.824 113.295 74.743C103.344 76.4881 93.1753 76.4881 83.2249 74.743C72.8222 72.9171 62.1911 72.9171 51.7884 74.743C41.838 76.488 31.6695 76.4881 21.719 74.7433C15.1735 73.5931 8.52599 73.1646 1.89089 73.4652C1.62747 73.4775 1.36911 73.5434 1.13094 73.6591C0.892777 73.7747 0.679599 73.9378 0.503902 74.1388C0.328205 74.3397 0.193524 74.5745 0.107751 74.8293C0.0219787 75.0841 -0.0130956 75.3545 0.00445996 75.6234Z" fill="#0184C1"/>
</svg>
