<svg width="81" height="60" viewBox="0 0 81 60" fill="none" xmlns="http://www.w3.org/2000/svg">
<path d="M1.161 27.2866H9.27729C9.55056 27.2866 9.81264 27.1757 10.0059 26.9782C10.1991 26.7807 10.3077 26.5129 10.3077 26.2337C10.3079 23.2724 11.4093 20.4218 13.3889 18.2592C15.3686 16.0966 18.0784 14.7836 20.9697 14.5859C23.8611 14.3883 26.7179 15.3209 28.9617 17.1948C31.2055 19.0688 32.6686 21.744 33.0548 24.6789H22.3075C22.0688 24.6789 21.8345 24.7437 21.6284 24.8666C21.4223 24.9895 21.2518 25.1661 21.1344 25.3785C21.017 25.5908 20.9569 25.8311 20.9602 26.075C20.9635 26.3188 21.0301 26.5574 21.1533 26.7663L29.2819 40.5566C29.4017 40.7599 29.571 40.9281 29.7732 41.0449C29.9755 41.1617 30.2038 41.223 30.4361 41.2231H71.3998C71.6321 41.223 71.8604 41.1617 72.0627 41.0449C72.2649 40.9281 72.4342 40.7599 72.554 40.5566L80.6826 26.7663C80.8088 26.5518 80.8752 26.3061 80.8747 26.0558H80.8758V12.3053C80.8758 11.9401 80.7339 11.5899 80.4812 11.3316C80.2285 11.0734 79.8858 10.9283 79.5284 10.9283H67.4201V5.83H70.6175C70.8698 5.83 71.1117 5.7276 71.29 5.54532C71.4684 5.36304 71.5686 5.11582 71.5686 4.85804C71.5686 4.60027 71.4684 4.35304 71.29 4.17077C71.1117 3.98849 70.8698 3.88609 70.6175 3.88609H67.4201V1.94391H70.6175C70.8698 1.94391 71.1117 1.84151 71.29 1.65923C71.4684 1.47695 71.5686 1.22973 71.5686 0.971955C71.5686 0.714176 71.4684 0.466956 71.29 0.284679C71.1117 0.102402 70.8698 0 70.6175 0H61.5279C61.2756 0 61.0337 0.102402 60.8553 0.284679C60.677 0.466956 60.5768 0.714176 60.5768 0.971955C60.5768 1.22973 60.677 1.47695 60.8553 1.65923C61.0337 1.84151 61.2756 1.94391 61.5279 1.94391H64.7252V3.88608H61.5279C61.2756 3.88608 61.0337 3.98848 60.8553 4.17076C60.677 4.35304 60.5768 4.60026 60.5768 4.85804C60.5768 5.11582 60.677 5.36304 60.8553 5.54531C61.0337 5.72759 61.2756 5.82999 61.5279 5.82999H64.7252V25.6316L61.5829 30.3466H41.8382L38.4621 25.2808C38.3385 25.0954 38.1725 24.9436 37.9784 24.8386C37.7843 24.7337 37.568 24.6789 37.3484 24.6789H35.1493C34.7572 20.0766 32.6416 15.8067 29.2437 12.7596C25.8458 9.71247 21.428 8.12349 16.9116 8.32401C12.3951 8.52453 8.12882 10.4991 5.00235 13.8358C1.87587 17.1726 0.130638 21.614 0.130615 26.2337C0.130615 26.5129 0.239174 26.7807 0.432409 26.9782C0.528089 27.076 0.641679 27.1535 0.766691 27.2065C0.891704 27.2594 1.02569 27.2866 1.161 27.2866ZM67.4201 13.6822H78.181V24.6789H67.4201L67.4201 13.6822ZM36.6359 27.4328L40.0119 32.4985C40.1355 32.684 40.3016 32.8358 40.4957 32.9407C40.6898 33.0457 40.9061 33.1005 41.1256 33.1005H62.2955C62.5151 33.1005 62.7313 33.0457 62.9254 32.9407C63.1195 32.8358 63.2856 32.684 63.4092 32.4985L66.7852 27.4328H77.1438L70.6385 38.4692H31.1974L24.6921 27.4328H36.6359ZM17.6731 10.4128C20.9205 10.4146 24.0838 11.4677 26.7091 13.4209C24.7441 12.6267 22.624 12.315 20.5196 12.5109C18.4152 12.7068 16.3851 13.4049 14.5929 14.5489C12.8007 15.6929 11.2963 17.2509 10.2008 19.0975C9.10535 20.9441 8.44943 23.0278 8.28584 25.1807H2.22529C2.49124 21.1776 4.23383 17.4267 7.10113 14.6856C9.96843 11.9445 13.7468 10.4174 17.6731 10.4128Z" fill="white"/>
<path d="M79.8726 56.0184C79.0484 55.9817 78.2232 55.9632 77.4073 55.9632C74.2465 55.9585 71.0911 56.2334 67.9767 56.7848C62.0064 57.8319 55.9052 57.8319 49.9349 56.7848C43.6933 55.6893 37.3146 55.6893 31.073 56.7848C25.1028 57.8318 19.0017 57.8319 13.0314 56.785C9.10408 56.095 5.11561 55.8379 1.13456 56.0181C0.976499 56.0255 0.821474 56.0651 0.678569 56.1345C0.535664 56.2039 0.407753 56.3017 0.302332 56.4223C0.196912 56.5429 0.116103 56.6837 0.0646414 56.8366C0.0131798 56.9895 -0.00789887 57.1514 0.00264066 57.3127C0.0229786 57.6293 0.163875 57.9255 0.395135 58.1373C0.626394 58.349 0.929614 58.4597 1.23981 58.4457C5.04837 58.2734 8.86403 58.519 12.6213 59.1783C18.8629 60.2739 25.2415 60.2739 31.483 59.1783C37.4534 58.1313 43.5546 58.1313 49.5249 59.1783C55.7665 60.2739 62.1451 60.2739 68.3867 59.1783C71.3657 58.6511 74.3839 58.3883 77.4073 58.393C78.1873 58.393 78.9763 58.4108 79.7644 58.4459C80.0782 58.4584 80.3841 58.3437 80.6154 58.1265C80.8466 57.9094 80.9845 57.6076 80.9987 57.2871C81.013 56.9665 80.9026 56.6531 80.6916 56.4154C80.4806 56.1778 80.1862 56.035 79.8726 56.0184Z" fill="white"/>
<path d="M79.8725 50.0473C79.0483 50.0105 78.2231 49.992 77.4072 49.992C74.2462 49.9878 71.0907 50.2633 67.9761 50.8154C62.006 51.8624 55.905 51.8624 49.9349 50.8154C43.6933 49.7175 37.3141 49.7175 31.0725 50.8154C25.1024 51.8624 19.0015 51.8624 13.0314 50.8155C9.10423 50.1261 5.11602 49.8686 1.13512 50.0474C0.977057 50.0547 0.822016 50.0942 0.679081 50.1635C0.536145 50.2329 0.40819 50.3307 0.302714 50.4512C0.197239 50.5717 0.116364 50.7125 0.0648302 50.8654C0.0132965 51.0183 -0.00785964 51.1801 0.00260164 51.3415C0.0228183 51.6581 0.163647 51.9544 0.394895 52.1662C0.626144 52.378 0.929402 52.4888 1.23965 52.4748C5.04811 52.3031 8.86361 52.5492 12.6207 53.2089C18.8625 54.3044 25.2413 54.3044 31.4831 53.2089C37.453 52.1595 43.5545 52.1595 49.5244 53.2089C55.7661 54.3044 62.145 54.3044 68.3868 53.2089C71.3658 52.681 74.3839 52.4177 77.4073 52.4219C78.1873 52.4219 78.9763 52.4396 79.7644 52.4747C80.0782 52.4873 80.3842 52.3725 80.6154 52.1554C80.8467 51.9382 80.9845 51.6365 80.9988 51.3159C81.013 50.9953 80.9026 50.682 80.6916 50.4443C80.4806 50.2066 80.1862 50.0639 79.8725 50.0473Z" fill="white"/>
<path d="M0.00267597 45.374C0.0230091 45.6906 0.163913 45.9865 0.395184 46.1982C0.626455 46.41 0.929687 46.5207 1.23988 46.5066C5.04843 46.3343 8.86409 46.5799 12.6214 47.2393C18.8629 48.3349 25.2415 48.3349 31.4831 47.2393C37.4534 46.1923 43.5546 46.1923 49.5249 47.2393C55.7665 48.3349 62.1452 48.3349 68.3867 47.2393C71.3658 46.7121 74.3839 46.4493 77.4073 46.454C78.1873 46.454 78.9763 46.4717 79.7644 46.5069C80.0782 46.5194 80.3842 46.4046 80.6154 46.1875C80.8467 45.9704 80.9845 45.6686 80.9988 45.348C81.013 45.0275 80.9026 44.7141 80.6916 44.4764C80.4806 44.2388 80.1862 44.096 79.8726 44.0794C79.0484 44.0426 78.2232 44.0241 77.4073 44.0241C74.2464 44.0195 71.0911 44.2944 67.9767 44.8458C62.0064 45.8929 55.9052 45.8929 49.9349 44.8458C43.6933 43.7502 37.3146 43.7502 31.0731 44.8458C25.1028 45.8928 19.0017 45.8929 13.0314 44.846C9.10409 44.1559 5.11559 43.8988 1.13453 44.0791C0.976483 44.0865 0.821466 44.1261 0.678566 44.1954C0.535666 44.2648 0.407759 44.3627 0.302341 44.4833C0.196923 44.6038 0.116114 44.7447 0.0646507 44.8976C0.0131872 45.0505 -0.00785736 45.2127 0.00267597 45.374Z" fill="white"/>
</svg>
