<svg width="70" height="60" viewBox="0 0 70 60" fill="none" xmlns="http://www.w3.org/2000/svg">
<path d="M69.6066 9.44478C69.3705 9.3557 69.1028 9.42308 68.9355 9.61109C68.3159 10.3076 67.4248 10.7071 66.4907 10.7072C65.5564 10.7073 64.6654 10.3079 64.0418 9.60735C63.1921 8.65215 61.9697 8.1044 60.6884 8.10446C59.4072 8.10457 58.185 8.65253 57.3333 9.61003C56.7137 10.3066 55.8226 10.7061 54.8883 10.7061H54.8881C53.9536 10.706 53.0622 10.3062 52.4426 9.60919C51.5928 8.65355 50.3705 8.10541 49.0888 8.10535C49.0886 8.10535 49.0886 8.10535 49.0884 8.10535C47.8072 8.10535 46.5846 8.65331 45.7332 9.61066C45.1137 10.3072 44.2224 10.7067 43.2881 10.7067C42.3538 10.7067 41.4625 10.3072 40.841 9.60843C39.9912 8.65296 38.7688 8.10501 37.4874 8.10508C36.2059 8.10512 34.9836 8.65312 34.1322 9.61043C33.1874 10.6726 31.6762 11.0032 30.3714 10.4327C30.1835 10.3507 29.967 10.3685 29.7955 10.4802C29.624 10.5918 29.5205 10.7822 29.5205 10.9863V17.6704C29.5205 18.0043 29.7922 18.275 30.1275 18.275H69.393C69.7283 18.275 70 18.0044 70 17.6704V10.0081C70 9.75695 69.8423 9.53387 69.6066 9.44478Z" fill="white"/>
<path d="M28.3962 12.3176C28.3962 7.32663 25.8331 2.80156 21.54 0.212988C21.0856 -0.0609632 20.539 -0.0698948 20.0766 0.189444C19.6183 0.446883 19.3444 0.913742 19.3444 1.43829V12.099C19.3444 13.5204 18.1835 14.6769 16.7564 14.6769H11.6395C10.2125 14.6769 9.05155 13.5204 9.05155 12.099V1.43859C9.05155 0.913701 8.77732 0.446313 8.31816 0.188326C7.85722 -0.0704222 7.31253 -0.0620606 6.85987 0.210433C2.29774 2.95919 -0.3189 7.96385 0.0311988 13.2713C0.395923 18.8005 4.45641 23.8369 9.78789 25.7018V59.3954C9.78789 59.7293 10.0596 60 10.3948 60C10.7301 60 11.0018 59.7293 11.0018 59.3954V26.0657C11.2422 26.1258 11.484 26.1817 11.7285 26.2287C12.058 26.2919 12.3759 26.0775 12.4393 25.7497C12.5029 25.4218 12.2876 25.1047 11.9584 25.0414C6.22212 23.9387 1.61516 18.8446 1.24234 13.1921C0.922279 8.33702 3.31546 3.75919 7.48817 1.24515C7.58873 1.18434 7.67784 1.21688 7.72189 1.2416C7.76516 1.26588 7.83767 1.32382 7.83767 1.43861V12.099C7.83767 14.1872 9.54312 15.8861 11.6395 15.8861H16.7564C18.8529 15.8861 20.5583 14.1872 20.5583 12.099V1.43831C20.5583 1.32414 20.63 1.26685 20.6727 1.24287C20.7174 1.2178 20.8077 1.1848 20.9114 1.24743C24.8381 3.61503 27.1823 7.75339 27.1823 12.3176C27.1823 19.2894 21.4924 25.0901 14.4986 25.2483C14.1635 25.2559 13.898 25.5326 13.9057 25.8665C13.9132 26.1956 14.1833 26.4573 14.5122 26.4573C14.5168 26.4573 14.5215 26.4573 14.5263 26.4572C15.5094 26.435 16.4682 26.3091 17.394 26.0934V59.3954C17.394 59.7293 17.6657 60 18.001 60C18.3362 60 18.6079 59.7293 18.6079 59.3954V25.7531C24.2699 23.8836 28.3962 18.5256 28.3962 12.3176Z" fill="white"/>
<path d="M35.471 20.7427C33.8881 20.7427 32.6049 22.0209 32.6049 23.5978V23.9462H27.9759C27.1886 23.9462 26.5503 24.5821 26.5503 25.3664V25.8503H22.2365C21.9012 25.8503 21.6295 26.121 21.6295 26.4549C21.6295 26.7888 21.9012 27.0595 22.2365 27.0595H26.5503V53.0786H21.0309C20.6956 53.0786 20.424 53.3493 20.424 53.6832C20.424 54.0171 20.6956 54.2878 21.0309 54.2878H26.5503V54.7716C26.5503 55.556 27.1886 56.1919 27.9761 56.1919H32.6049V56.5404C32.6049 58.1172 33.8881 59.3954 35.471 59.3954H42.3811C42.928 59.3954 43.3713 58.9538 43.3713 58.4091V21.729C43.3713 21.1843 42.928 20.7427 42.3811 20.7427L35.471 20.7427ZM32.6049 54.9827H27.9759C27.8592 54.9827 27.7641 54.888 27.7641 54.7715V25.3665C27.7641 25.2501 27.8592 25.1554 27.9759 25.1554H32.6049V54.9827ZM40.339 57.2513C39.7451 57.2513 39.2618 56.7699 39.2618 56.1782C39.2618 55.5865 39.7451 55.1051 40.339 55.1051C40.9331 55.1051 41.4164 55.5865 41.4164 56.1782C41.4164 56.7699 40.9331 57.2513 40.339 57.2513ZM40.339 49.1967C39.7451 49.1967 39.2618 48.7153 39.2618 48.1236C39.2618 47.5319 39.7451 47.0505 40.339 47.0505C40.9331 47.0505 41.4164 47.5319 41.4164 48.1236C41.4164 48.7153 40.9331 49.1967 40.339 49.1967ZM40.339 41.1421C39.7451 41.1421 39.2618 40.6607 39.2618 40.069C39.2618 39.4773 39.7451 38.9959 40.339 38.9959C40.9331 38.9959 41.4164 39.4773 41.4164 40.069C41.4164 40.6607 40.9331 41.1421 40.339 41.1421ZM40.339 33.0876C39.7451 33.0876 39.2618 32.6062 39.2618 32.0145C39.2618 31.4228 39.7451 30.9414 40.339 30.9414C40.9331 30.9414 41.4164 31.4228 41.4164 32.0145C41.4164 32.6062 40.9331 33.0876 40.339 33.0876ZM40.339 25.033C39.7451 25.033 39.2618 24.5516 39.2618 23.9599C39.2618 23.3682 39.7451 22.8868 40.339 22.8868C40.9331 22.8868 41.4164 23.3682 41.4164 23.9599C41.4164 24.5516 40.9331 25.033 40.339 25.033Z" fill="white"/>
<path d="M60.1924 32.9208C60.1924 33.2547 60.464 33.5254 60.7993 33.5254C61.1346 33.5254 61.4063 33.2547 61.4063 32.9208V27.0595H68.5706C68.9059 27.0595 69.1775 26.7888 69.1775 26.4549C69.1775 26.121 68.9059 25.8503 68.5706 25.8503H61.4063V25.3665C61.4063 24.5821 60.7679 23.9462 59.9804 23.9462H55.3515V23.5976C55.3515 22.0209 54.0683 20.7426 52.4854 20.7426H45.5754C45.0285 20.7426 44.5852 21.1843 44.5852 21.729V58.409C44.5852 58.9538 45.0285 59.3954 45.5754 59.3954H52.4853C54.0683 59.3954 55.3515 58.1171 55.3515 56.5403V56.1918H59.9804C60.7679 56.1918 61.4063 55.5559 61.4063 54.7715V54.2877H68.5706C68.9059 54.2877 69.1775 54.0171 69.1775 53.6831C69.1775 53.3492 68.9059 53.0785 68.5706 53.0785H61.4063V35.7758C61.4063 35.4419 61.1346 35.1712 60.7993 35.1712C60.464 35.1712 60.1924 35.4419 60.1924 35.7758V54.7715C60.1924 54.8881 60.0975 54.9826 59.9804 54.9826H55.3514V25.1554H59.9804C60.0974 25.1554 60.1923 25.25 60.1923 25.3666L60.1924 32.9208ZM47.6173 57.2513C47.0235 57.2513 46.5401 56.7699 46.5401 56.1782C46.5401 55.5865 47.0235 55.1051 47.6173 55.1051C48.2112 55.1051 48.6945 55.5865 48.6945 56.1782C48.6945 56.7699 48.2112 57.2513 47.6173 57.2513ZM47.6173 49.1967C47.0235 49.1967 46.5401 48.7153 46.5401 48.1236C46.5401 47.5319 47.0235 47.0505 47.6173 47.0505C48.2112 47.0505 48.6945 47.5319 48.6945 48.1236C48.6945 48.7153 48.2112 49.1967 47.6173 49.1967ZM47.6173 41.1421C47.0235 41.1421 46.5401 40.6607 46.5401 40.069C46.5401 39.4773 47.0235 38.9959 47.6173 38.9959C48.2112 38.9959 48.6945 39.4773 48.6945 40.069C48.6945 40.6607 48.2112 41.1421 47.6173 41.1421ZM47.6173 33.0876C47.0235 33.0876 46.5401 32.6062 46.5401 32.0145C46.5401 31.4227 47.0235 30.9414 47.6173 30.9414C48.2112 30.9414 48.6945 31.4227 48.6945 32.0145C48.6945 32.6062 48.2112 33.0876 47.6173 33.0876ZM47.6173 25.033C47.0235 25.033 46.5401 24.5516 46.5401 23.9599C46.5401 23.3682 47.0235 22.8868 47.6173 22.8868C48.2112 22.8868 48.6945 23.3682 48.6945 23.9599C48.6945 24.5516 48.2112 25.033 47.6173 25.033Z" fill="white"/>
<path d="M0.614883 27.0595H6.14907C6.48435 27.0595 6.75602 26.7888 6.75602 26.4549C6.75602 26.121 6.48435 25.8503 6.14907 25.8503H0.614883C0.279602 25.8503 0.00793457 26.121 0.00793457 26.4549C0.00793457 26.7888 0.279602 27.0595 0.614883 27.0595Z" fill="white"/>
<path d="M7.56248 53.0786H0.614883C0.279602 53.0786 0.00793457 53.3492 0.00793457 53.6832C0.00793457 54.0171 0.279602 54.2878 0.614883 54.2878H7.5625C7.89778 54.2878 8.16945 54.0171 8.16945 53.6832C8.16945 53.3492 7.89776 53.0786 7.56248 53.0786Z" fill="white"/>
</svg>
