<svg width="100" height="100" viewBox="0 0 100 100" fill="none" xmlns="http://www.w3.org/2000/svg">
<path d="M92.2621 44.2187L100 37.2332C97.1955 30.4614 97.187 30.4443 94.3825 23.6726L83.9713 24.2055C80.708 20.9422 79.0578 19.292 75.7944 16.0287L76.3274 5.61747C69.5557 2.81301 69.5386 2.80446 62.7668 0L55.7813 7.73791C51.1671 7.73791 48.8329 7.73791 44.2187 7.73791L37.2332 0C30.4614 2.80446 30.4443 2.81301 23.6726 5.61747L24.2055 16.0287C20.9422 19.2949 19.2949 20.9422 16.0287 24.2055L5.61747 23.6726C2.81301 30.4443 2.80446 30.4614 0 37.2332L7.73791 44.2187C7.73791 48.8329 7.73791 51.1671 7.73791 55.7813L0 62.7668C2.80446 69.5386 2.81301 69.5557 5.61747 76.3274L16.0287 75.7944C19.292 79.0578 20.9422 80.708 24.2055 83.9713L23.6726 94.3825C30.4443 97.187 30.4614 97.1955 37.2332 100L44.2187 92.2621C48.8329 92.2621 51.1671 92.2621 55.7813 92.2621L62.7668 100C69.5386 97.1955 69.5557 97.187 76.3274 94.3825L75.7944 83.9713C79.0578 80.708 80.708 79.0578 83.9713 75.7944L94.3825 76.3274C97.187 69.5557 97.1955 69.5386 100 62.7668L92.2621 55.7813C92.2621 51.1671 92.2621 48.8358 92.2621 44.2187ZM50.0014 84.5071C30.9459 84.5071 15.4958 69.0598 15.4958 50.0014C15.4958 30.9431 30.9459 15.4958 50.0014 15.4958C69.0569 15.4958 84.5071 30.9431 84.5071 50.0014C84.5071 69.0598 69.0569 84.5071 50.0014 84.5071Z" fill="#0184C1"/>
<path d="M59.5893 46.3362C60.4272 45.4983 61.6185 45.1221 62.7842 45.3302C66.21 45.9458 69.8723 44.9226 72.5115 42.2607C75.467 39.2766 76.3476 34.9902 75.1563 31.2309L67.3785 39.0087C63.8701 38.1623 61.1283 35.4205 60.2818 31.9121L68.0654 24.1286C64.289 22.9259 59.9883 23.8208 56.9929 26.8162C54.2654 29.5437 53.2793 33.3514 54.0317 36.8626C54.291 38.0682 53.9262 39.3222 53.0541 40.1944L52.3359 40.9126L36.1732 57.2976C34.8194 58.6513 33.0438 59.4836 31.1428 59.6916C29.5041 59.8712 27.9109 60.5808 26.6426 61.8178C23.6329 64.7533 23.5645 69.6269 26.4973 72.6394C29.4813 75.7089 34.3891 75.7346 37.4044 72.7164C38.5673 71.5536 39.2769 70.1114 39.5363 68.6037C39.8327 66.8823 40.6335 65.2891 41.8676 64.0551L58.6773 47.2454L59.5893 46.3362ZM29.2362 70.1741C27.7399 68.6778 27.7399 66.2553 29.2362 64.759C30.7324 63.2627 33.155 63.2627 34.6513 64.759C36.1476 66.2553 36.1476 68.6778 34.6513 70.1741C33.155 71.6704 30.7324 71.6704 29.2362 70.1741Z" fill="#0184C1"/>
<path d="M58.0864 51.1016L56.4818 52.7061L65.1745 61.3988C65.7588 61.9831 65.8471 62.8467 65.3683 63.3255C64.8895 63.8043 64.0259 63.7188 63.4417 63.1317L54.749 54.439L52.8851 56.3029L61.5777 64.9956C62.162 65.5799 62.2503 66.4434 61.7715 66.9222C61.2927 67.401 60.4292 67.3155 59.8449 66.7284L51.1522 58.0358L49.5049 59.6831L64.3993 74.5775C66.0096 76.1878 68.3808 76.4243 69.6975 75.1105L73.5109 71.2971C74.8277 69.9803 74.5882 67.6091 72.978 65.9988L58.0864 51.1016Z" fill="#0184C1"/>
<path d="M32.4617 36.5292L43.0098 47.0773L45.2727 44.783L34.7617 34.2691L34.5166 31.2452L28.7566 27.4091L25.6387 30.527L29.4749 36.287L32.4617 36.5292Z" fill="#0184C1"/>
<path d="M59.5893 46.3362C60.4272 45.4983 61.6185 45.1221 62.7842 45.3302C66.21 45.9458 69.8723 44.9226 72.5115 42.2607C75.467 39.2766 76.3476 34.9902 75.1563 31.2309L67.3785 39.0087C63.8701 38.1623 61.1283 35.4205 60.2818 31.9121L68.0654 24.1286C64.289 22.9259 59.9883 23.8208 56.9929 26.8162C54.2654 29.5437 53.2793 33.3514 54.0317 36.8626C54.291 38.0682 53.9262 39.3222 53.0541 40.1944L52.3359 40.9126L36.1732 57.2976C34.8194 58.6513 33.0438 59.4836 31.1428 59.6916C29.5041 59.8712 27.9109 60.5808 26.6426 61.8178C23.6329 64.7533 23.5645 69.6269 26.4973 72.6394C29.4813 75.7089 34.3891 75.7346 37.4044 72.7164C38.5673 71.5536 39.2769 70.1114 39.5363 68.6037C39.8327 66.8823 40.6335 65.2891 41.8676 64.0551L58.6773 47.2454L59.5893 46.3362ZM29.2362 70.1741C27.7399 68.6778 27.7399 66.2553 29.2362 64.759C30.7324 63.2627 33.155 63.2627 34.6513 64.759C36.1476 66.2553 36.1476 68.6778 34.6513 70.1741C33.155 71.6704 30.7324 71.6704 29.2362 70.1741Z" fill="#0184C1"/>
</svg>
