<svg width="60" height="60" viewBox="0 0 60 60" fill="none" xmlns="http://www.w3.org/2000/svg">
<path d="M55.3573 26.5312L60 22.3399C58.3173 18.2769 58.3122 18.2666 56.6295 14.2036L50.3828 14.5233C48.4248 12.5653 47.4347 11.5752 45.4767 9.61724L45.7964 3.37048C41.7334 1.6878 41.7231 1.68267 37.6601 0L33.4688 4.64274C30.7003 4.64274 29.2997 4.64274 26.5312 4.64274L22.3399 0C18.2769 1.68267 18.2666 1.6878 14.2036 3.37048L14.5233 9.61724C12.5653 11.5769 11.5769 12.5653 9.61724 14.5233L3.37048 14.2036C1.6878 18.2666 1.68267 18.2769 0 22.3399L4.64274 26.5312C4.64274 29.2997 4.64274 30.7003 4.64274 33.4688L0 37.6601C1.68267 41.7231 1.6878 41.7334 3.37048 45.7964L9.61724 45.4767C11.5752 47.4347 12.5653 48.4248 14.5233 50.3828L14.2036 56.6295C18.2666 58.3122 18.2769 58.3173 22.3399 60L26.5312 55.3573C29.2997 55.3573 30.7003 55.3573 33.4688 55.3573L37.6601 60C41.7231 58.3173 41.7334 58.3122 45.7964 56.6295L45.4767 50.3828C47.4347 48.4248 48.4248 47.4347 50.3828 45.4767L56.6295 45.7964C58.3122 41.7334 58.3173 41.7231 60 37.6601L55.3573 33.4688C55.3573 30.7003 55.3573 29.3015 55.3573 26.5312ZM30.0009 50.7042C18.5676 50.7042 9.29746 41.4359 9.29746 30.0009C9.29746 18.5659 18.5676 9.29746 30.0009 9.29746C41.4342 9.29746 50.7042 18.5659 50.7042 30.0009C50.7042 41.4359 41.4342 50.7042 30.0009 50.7042Z" fill="white"/>
<path d="M35.7533 27.8017C36.2561 27.299 36.9709 27.0733 37.6703 27.1981C39.7257 27.5675 41.9231 26.9536 43.5066 25.3564C45.2799 23.566 45.8083 20.9941 45.0935 18.7386L40.4269 23.4052C38.3218 22.8974 36.6767 21.2523 36.1689 19.1473L40.839 14.4772C38.5732 13.7555 35.9927 14.2925 34.1955 16.0897C32.559 17.7262 31.9673 20.0108 32.4188 22.1176C32.5744 22.8409 32.3555 23.5933 31.8322 24.1166L31.4013 24.5475L21.7037 34.3785C20.8914 35.1908 19.8261 35.6901 18.6855 35.815C17.7022 35.9227 16.7463 36.3485 15.9853 37.0907C14.1795 38.852 14.1385 41.7762 15.8981 43.5837C17.6885 45.4254 20.6332 45.4408 22.4424 43.6298C23.1401 42.9321 23.5659 42.0669 23.7215 41.1622C23.8994 40.1294 24.3799 39.1735 25.1203 38.433L35.2061 28.3472L35.7533 27.8017ZM17.5415 42.1045C16.6437 41.2067 16.6437 39.7532 17.5415 38.8554C18.4392 37.9576 19.8928 37.9576 20.7905 38.8554C21.6883 39.7532 21.6883 41.2067 20.7905 42.1045C19.8928 43.0022 18.4392 43.0022 17.5415 42.1045Z" fill="white"/>
<path d="M34.8523 30.6609L33.8895 31.6237L39.1051 36.8393C39.4557 37.1898 39.5087 37.708 39.2214 37.9953C38.9341 38.2825 38.416 38.2312 38.0654 37.879L32.8498 32.6634L31.7315 33.7817L36.9471 38.9973C37.2976 39.3479 37.3506 39.866 37.0634 40.1533C36.7761 40.4406 36.2579 40.3893 35.9074 40.037L30.6918 34.8214L29.7034 35.8098L38.64 44.7465C39.6062 45.7126 41.0289 45.8546 41.819 45.0663L44.107 42.7782C44.897 41.9882 44.7534 40.5654 43.7872 39.5993L34.8523 30.6609Z" fill="white"/>
<path d="M19.4774 21.9175L25.8062 28.2464L27.164 26.8698L20.8574 20.5615L20.7103 18.7471L17.2543 16.4454L15.3835 18.3162L17.6853 21.7722L19.4774 21.9175Z" fill="white"/>
<path d="M35.7533 27.8017C36.2561 27.299 36.9709 27.0733 37.6703 27.1981C39.7257 27.5675 41.9231 26.9536 43.5066 25.3564C45.2799 23.566 45.8083 20.9941 45.0935 18.7386L40.4269 23.4052C38.3218 22.8974 36.6767 21.2523 36.1689 19.1473L40.839 14.4772C38.5732 13.7555 35.9927 14.2925 34.1955 16.0897C32.559 17.7262 31.9673 20.0108 32.4188 22.1176C32.5744 22.8409 32.3555 23.5933 31.8322 24.1166L31.4013 24.5475L21.7037 34.3785C20.8914 35.1908 19.8261 35.6901 18.6855 35.815C17.7022 35.9227 16.7463 36.3485 15.9853 37.0907C14.1795 38.852 14.1385 41.7762 15.8981 43.5837C17.6885 45.4254 20.6332 45.4408 22.4424 43.6298C23.1401 42.9321 23.5659 42.0669 23.7215 41.1622C23.8994 40.1294 24.3799 39.1735 25.1203 38.433L35.2061 28.3472L35.7533 27.8017ZM17.5415 42.1045C16.6437 41.2067 16.6437 39.7532 17.5415 38.8554C18.4392 37.9576 19.8928 37.9576 20.7905 38.8554C21.6883 39.7532 21.6883 41.2067 20.7905 42.1045C19.8928 43.0022 18.4392 43.0022 17.5415 42.1045Z" fill="white"/>
</svg>
