<svg width="121" height="100" viewBox="0 0 121 100" fill="none" xmlns="http://www.w3.org/2000/svg">
<path d="M30.902 80.5393H52.1579C55.1866 80.5497 58.1874 79.9639 60.9865 78.8156C63.7856 77.6674 66.3275 75.9795 68.4651 73.8498L83.2327 59.1921C83.4533 58.9745 83.6039 58.6969 83.6654 58.3943C83.727 58.0917 83.6966 57.7779 83.5783 57.4924C83.4604 57.2076 83.2603 56.9639 83.0031 56.7918C82.7459 56.6198 82.4431 56.5272 82.1329 56.5256H74.7334C74.3731 54.7217 73.3928 53.098 71.9601 51.9319C70.5274 50.7659 68.7311 50.1298 66.8783 50.1324H65.2131V35.5215C65.2131 35.1079 65.0475 34.7113 64.7529 34.4189C64.4583 34.1264 64.0587 33.9622 63.642 33.9622C63.2254 33.9622 62.8258 34.1264 62.5312 34.4189C62.2365 34.7113 62.071 35.1079 62.071 35.5215V50.1324H57.028V35.5215C57.028 35.1079 56.8625 34.7113 56.5679 34.4189C56.2733 34.1264 55.8737 33.9622 55.457 33.9622C55.0404 33.9622 54.6408 34.1264 54.3461 34.4189C54.0515 34.7113 53.886 35.1079 53.886 35.5215V50.1324H49.0787V47.6063C49.0787 47.1927 48.9132 46.7961 48.6185 46.5037C48.3239 46.2112 47.9243 46.0469 47.5077 46.0469H22.7955C22.3788 46.0469 21.9792 46.2112 21.6846 46.5037C21.39 46.7961 21.2245 47.1927 21.2245 47.6063V64.7589H18.0824C17.6658 64.7589 17.2662 64.9232 16.9716 65.2156C16.6769 65.508 16.5114 65.9046 16.5114 66.3182C16.5135 68.1904 16.8876 70.0438 17.6123 71.7724C18.337 73.5009 19.398 75.0706 20.7347 76.3915C22.0714 77.7125 23.6575 78.7588 25.4021 79.4705C27.1468 80.1822 29.0157 80.5454 30.902 80.5393ZM24.3665 49.1656H45.9366V51.6917C45.9366 52.1053 46.1022 52.5019 46.3968 52.7943C46.6914 53.0868 47.091 53.251 47.5077 53.251H66.9098C67.9231 53.2534 68.9103 53.5703 69.7329 54.1576C70.5556 54.7448 71.1725 55.5729 71.4971 56.5256H52.9905C52.7827 56.5265 52.577 56.5683 52.3856 56.6486C52.1941 56.7289 52.0206 56.8461 51.8751 56.9934L44.02 64.7901H24.3665V49.1656ZM22.7955 67.8775H44.6327C45.0448 67.8758 45.4398 67.7134 45.7324 67.4253L53.5875 59.6287H78.3311L66.2499 71.6199C64.3985 73.4681 62.1946 74.9316 59.767 75.9249C57.3393 76.9182 54.7365 77.4214 52.1107 77.405H30.902C28.2209 77.3865 25.6357 76.4128 23.6173 74.6612C21.5988 72.9097 20.2813 70.4967 19.9048 67.8619L22.7955 67.8775ZM31.2319 52.3934C30.322 52.4118 29.4378 52.6967 28.6904 53.2122C27.943 53.7277 27.3657 54.4509 27.031 55.2909C26.6963 56.131 26.6191 57.0505 26.8091 57.9339C26.9991 58.8174 27.4479 59.6254 28.099 60.2566C28.7501 60.8878 29.5745 61.314 30.4688 61.4816C31.3632 61.6493 32.2874 61.551 33.1257 61.1991C33.9639 60.8471 34.6786 60.2572 35.1802 59.5034C35.6818 58.7496 35.9479 57.8656 35.9449 56.9622C35.9166 55.7513 35.4161 54.5985 34.5488 53.7463C33.6815 52.8942 32.515 52.4092 31.2947 52.3934H31.2319ZM31.2319 58.428C30.9445 58.4098 30.6688 58.3085 30.4387 58.1368C30.2086 57.965 30.034 57.7303 29.9366 57.4614C29.8391 57.1924 29.823 56.9011 29.8902 56.6232C29.9573 56.3453 30.1049 56.093 30.3147 55.8972C30.5245 55.7015 30.7874 55.5709 31.071 55.5215C31.3546 55.4721 31.6465 55.5061 31.9109 55.6193C32.1753 55.7324 32.4006 55.9199 32.5591 56.1585C32.7176 56.3971 32.8023 56.6764 32.8029 56.9622C32.7798 57.3488 32.6126 57.713 32.3338 57.984C32.055 58.2549 31.6846 58.4132 31.2947 58.428H31.2319ZM46.1723 56.9622C46.191 56.0333 45.9306 55.1198 45.4242 54.3383C44.9179 53.5568 44.1885 52.9427 43.3291 52.5742C42.4697 52.2058 41.5193 52.0997 40.5989 52.2695C39.6785 52.4393 38.83 52.8773 38.1614 53.5276C37.4928 54.1779 37.0344 55.0112 36.8448 55.9211C36.6552 56.831 36.7429 57.7763 37.0966 58.6366C37.4504 59.4968 38.0543 60.233 38.8313 60.7513C39.6082 61.2696 40.5231 61.5465 41.4592 61.5467C42.7039 61.5634 43.9047 61.0907 44.7995 60.2318C45.6942 59.3729 46.2104 58.1975 46.2351 56.9622H46.1723ZM41.4592 58.428C41.1719 58.4098 40.8962 58.3085 40.666 58.1368C40.4359 57.965 40.2614 57.7303 40.1639 57.4614C40.0664 57.1924 40.0503 56.9011 40.1175 56.6232C40.1847 56.3453 40.3323 56.093 40.542 55.8972C40.7518 55.7015 41.0147 55.5709 41.2983 55.5215C41.5819 55.4721 41.8739 55.5061 42.1383 55.6193C42.4027 55.7324 42.628 55.9199 42.7864 56.1585C42.9449 56.3971 43.0297 56.6764 43.0303 56.9622C43.0071 57.3488 42.8399 57.713 42.5611 57.984C42.2823 58.2549 41.912 58.4132 41.5221 58.428H41.4592ZM58.0649 73.5379C59.3078 73.5379 60.5228 73.1721 61.5562 72.4867C62.5896 71.8013 63.395 70.8272 63.8707 69.6875C64.3463 68.5478 64.4707 67.2937 64.2282 66.0837C63.9858 64.8738 63.3873 63.7624 62.5084 62.8901C61.6296 62.0178 60.5099 61.4238 59.2909 61.1831C58.0719 60.9424 56.8084 61.066 55.6601 61.5381C54.5118 62.0101 53.5304 62.8096 52.8399 63.8353C52.1494 64.861 51.7808 66.0669 51.7808 67.3006C51.7808 68.9548 52.4429 70.5413 53.6214 71.711C54.7999 72.8807 56.3983 73.5379 58.0649 73.5379ZM58.0649 64.1819C58.6864 64.1819 59.2938 64.3648 59.8105 64.7075C60.3273 65.0502 60.73 65.5373 60.9678 66.1071C61.2056 66.677 61.2678 67.304 61.1466 67.909C61.0253 68.514 60.7261 69.0696 60.2867 69.5058C59.8473 69.9419 59.2874 70.239 58.6779 70.3593C58.0684 70.4796 57.4366 70.4179 56.8625 70.1818C56.2884 69.9458 55.7977 69.5461 55.4524 69.0332C55.1072 68.5203 54.9229 67.9174 54.9229 67.3006C54.9229 66.4735 55.2539 65.6802 55.8432 65.0954C56.4324 64.5105 57.2316 64.1819 58.0649 64.1819ZM20.6275 80.4613C12.6938 79.9935 3.97468 74.224 0 71.1989V67.2226C1.05258 68.0802 8.67203 74.2084 16.3072 76.5786C17.4879 78.1315 18.9538 79.4488 20.6275 80.4613ZM20.8003 87.0105C13.118 87.0105 4.4617 81.5372 0 78.2938V74.3799C3.03207 76.7345 12.8352 83.8918 20.8003 83.8918C22.9078 83.9521 25.0034 83.5584 26.943 82.7379C27.5835 82.8246 28.2289 82.8714 28.8754 82.8783H33.3371C32.7558 83.1901 32.1745 83.502 31.6089 83.8294C28.4043 85.9317 24.6415 87.0391 20.8003 87.0105ZM90.2551 71.5887C92.1928 70.2605 94.3523 69.2838 96.6335 68.704V71.8226C94.9734 72.4574 93.3921 73.2788 91.9204 74.2708C87.3802 76.9372 81.2218 80.5081 71.9213 80.5081H70.5545C68.4799 80.4519 66.4141 80.2171 64.3804 79.8064C65.751 79.0693 67.05 78.208 68.2608 77.2335C68.9992 77.2335 69.8319 77.3582 70.6645 77.3894C79.745 77.7325 85.6363 74.3176 90.2551 71.5887ZM96.3193 75.0504C96.4448 75.0429 96.5707 75.0429 96.6963 75.0504V78.1691C94.6839 78.6865 92.7833 79.5637 91.0878 80.7576C86.5318 83.424 80.3891 86.9949 71.073 86.9949H69.769C62.0239 86.7142 58.7719 84.8274 56.0383 83.1745L55.08 82.7379C56.6766 82.5701 58.2542 82.2569 59.793 81.8023C62.934 83.2753 66.3742 84.0116 69.8476 83.9542C78.9281 84.2661 84.7723 80.8355 89.4382 78.1223C91.4961 76.6421 93.8381 75.5966 96.3193 75.0504ZM96.3193 81.5372C96.4445 81.5222 96.5711 81.5222 96.6963 81.5372V84.6559C94.6815 85.1666 92.7797 86.0443 91.0878 87.2444C86.5318 89.9108 80.3891 93.4817 71.073 93.4817H69.769C62.0239 93.201 58.7719 91.3298 56.0383 89.6769C53.3047 88.024 51.0582 86.7298 44.727 86.7298C40.1144 86.5501 35.5574 87.7802 31.6718 90.2539C28.4757 92.3796 24.7104 93.5041 20.8632 93.4817C13.1809 93.4817 4.52454 88.0084 0.0628408 84.7806V80.8511C3.09491 83.2213 12.8981 90.363 20.8632 90.363C24.1583 90.3819 27.3809 89.4027 30.1008 87.5562C34.4589 84.7964 39.5609 83.4203 44.727 83.6111C51.9222 83.6111 54.8286 85.3264 57.6564 86.9949C60.4843 88.6634 62.9351 90.1135 69.8947 90.363C78.9752 90.7061 84.8194 87.2444 89.4853 84.5467C91.5344 83.0945 93.8594 82.0706 96.3193 81.5372ZM96.3193 88.024C96.4445 88.009 96.5711 88.009 96.6963 88.024V91.1427C94.6643 91.6202 92.7406 92.4718 91.0249 93.6532C86.469 96.3353 80.3263 99.8905 71.0101 99.8905H69.7062C61.9611 99.6098 58.709 97.7387 55.9755 96.0702C53.2419 94.4017 50.9953 93.123 44.6641 93.123C40.0381 92.9794 35.4797 94.2534 31.6089 96.7719C28.4129 98.8976 24.6475 100.022 20.8003 99.9997C13.118 99.9997 4.4617 94.5264 0 91.283V87.4159C3.03207 89.7861 12.8352 96.9278 20.8003 96.9278C24.0943 96.9388 27.3146 95.9603 30.0379 94.121C34.3939 91.3548 39.4963 89.9731 44.6641 90.1603C51.8594 90.1603 54.7658 91.8912 57.5936 93.5597C60.4215 95.2281 62.8722 96.6783 69.8319 96.9278C78.9438 97.2397 84.7566 93.8091 89.4225 91.0959C91.4805 89.606 93.8297 88.5596 96.3193 88.024ZM51.4509 31.3893C52.2803 32.132 53.2769 32.6668 54.3573 32.9486C51.5325 35.7025 49.3826 39.0634 48.0732 42.7724C47.8613 42.6764 47.6306 42.6285 47.3977 42.632H44.9155C45.55 40.573 46.4142 38.5908 47.492 36.7222C48.6066 34.8032 49.9346 33.0144 51.4509 31.3893ZM100.75 43.5364C102.09 48.464 102.09 53.6563 100.75 58.5839C100.317 60.1897 99.7439 61.755 99.0371 63.2619H95.5181C96.4664 61.5301 97.2047 59.6929 97.7175 57.7887C99.2087 52.3041 98.8327 46.4842 96.648 41.2336C94.4632 35.983 90.5921 31.5958 85.6363 28.754C79.6726 25.3701 72.605 24.4568 65.9671 26.2123C64.9814 26.4881 64.0112 26.816 63.0608 27.1947C63.1215 26.8389 63.1582 26.4794 63.1707 26.1187C63.1592 25.3863 63.032 24.6602 62.7937 23.9669C63.5635 23.6862 64.3647 23.4211 65.1345 23.2028C70.0964 21.8927 75.3172 21.8927 80.2791 23.2028C83.9656 24.1921 87.4197 25.8925 90.4442 28.2068C93.4686 30.5211 96.0041 33.404 97.906 36.691C99.1554 38.8376 100.112 41.1396 100.75 43.5364ZM59.1175 13.0672C59.1175 12.2962 59.3478 11.5424 59.7794 10.9014C60.211 10.2603 60.8244 9.76064 61.542 9.46559C62.2597 9.17053 63.0494 9.09333 63.8113 9.24375C64.5732 9.39417 65.273 9.76545 65.8223 10.3106C66.3715 10.8558 66.7456 11.5504 66.8971 12.3066C67.0487 13.0628 66.9709 13.8467 66.6736 14.559C66.3764 15.2713 65.873 15.8801 65.2271 16.3085C64.5812 16.7369 63.8218 16.9655 63.045 16.9655C62.0034 16.9655 61.0044 16.5548 60.2679 15.8237C59.5313 15.0926 59.1175 14.1011 59.1175 13.0672ZM35.9607 42.5852H32.8186V42.3981C33.8342 37.6952 35.7027 33.2146 38.3329 29.175L33.4942 24.4035C33.3486 24.2578 33.2334 24.085 33.1552 23.895C33.077 23.705 33.0374 23.5016 33.0386 23.2964C33.0374 23.0911 33.077 22.8877 33.1552 22.6977C33.2334 22.5077 33.3486 22.3349 33.4942 22.1892L43.6272 12.1316C43.9216 11.8411 44.3198 11.6781 44.7348 11.6781C45.1498 11.6781 45.548 11.8411 45.8424 12.1316L50.6811 16.9187C52.8733 15.5296 55.193 14.3496 57.6093 13.3946C57.6707 14.4567 58.0479 15.4769 58.6933 16.3262C56.1152 17.3462 53.6597 18.6485 51.3724 20.2089C51.0716 20.4152 50.7079 20.5109 50.3437 20.4796C49.9795 20.4483 49.6377 20.2919 49.3772 20.0374L44.7898 15.4373L36.9347 23.234L41.6478 27.8184C41.8996 28.103 42.0385 28.4688 42.0385 28.8476C42.0385 29.2263 41.8996 29.5922 41.6478 29.8767C38.9481 33.7115 37.0173 38.0261 35.9607 42.5852ZM121 43.9574V58.1785C121 58.5921 120.834 58.9887 120.54 59.2811C120.245 59.5736 119.846 59.7378 119.429 59.7378H112.595C111.567 64.4346 109.694 68.9087 107.065 72.9453L111.904 77.7325C112.052 77.8769 112.17 78.0491 112.251 78.2392C112.332 78.4292 112.374 78.6333 112.375 78.8396C112.369 79.2509 112.2 79.6432 111.904 79.9311L104.363 87.4159V83.0186L108.573 78.8396L104.363 74.6762V71.3236C107.045 67.2507 108.877 62.6855 109.751 57.8978C109.818 57.5346 110.013 57.2067 110.301 56.9725C110.588 56.7384 110.951 56.6132 111.323 56.6192H117.874V45.5168H111.307C110.935 45.5228 110.573 45.3976 110.285 45.1634C109.997 44.9293 109.803 44.6014 109.736 44.2381C108.793 39.0779 106.753 34.1765 103.75 29.8611C103.544 29.5609 103.451 29.1988 103.485 28.8372C103.519 28.4757 103.68 28.1374 103.939 27.8808L108.558 23.2964L100.702 15.4997L96.0679 20.0841C95.8093 20.341 95.4685 20.5003 95.1043 20.5345C94.74 20.5686 94.3752 20.4755 94.0727 20.2713C89.7285 17.2953 84.7964 15.2702 79.6036 14.3302C79.2376 14.2638 78.9073 14.0706 78.6714 13.7851C78.4355 13.4995 78.3093 13.1401 78.3154 12.7709V6.23731H67.0983V9.35597C66.2727 8.45561 65.166 7.85698 63.9562 7.6563V4.67798C63.9562 4.26442 64.1218 3.8678 64.4164 3.57537C64.711 3.28294 65.1106 3.11866 65.5273 3.11866H79.855C80.2716 3.11866 80.6712 3.28294 80.9659 3.57537C81.2605 3.8678 81.426 4.26442 81.426 4.67798V11.4611C86.1576 12.4664 90.6661 14.3156 94.7325 16.9187L99.5556 12.1316C99.8499 11.8411 100.248 11.6781 100.663 11.6781C101.078 11.6781 101.476 11.8411 101.771 12.1316L111.904 22.1892C112.196 22.4814 112.361 22.8766 112.361 23.2886C112.361 23.7005 112.196 24.0957 111.904 24.3879L107.081 29.1906C109.711 33.2247 111.579 37.7001 112.595 42.3981H119.429C119.635 42.3981 119.84 42.4384 120.03 42.5168C120.221 42.5952 120.394 42.71 120.54 42.8548C120.686 42.9996 120.801 43.1715 120.88 43.3607C120.959 43.5499 121 43.7527 121 43.9574ZM51.4981 3.11866C51.4981 2.50185 51.6823 1.89888 52.0276 1.38602C52.3728 0.873163 52.8636 0.473438 53.4377 0.237395C54.0118 0.00135125 54.6436 -0.0604085 55.2531 0.0599255C55.8626 0.180259 56.4224 0.477283 56.8619 0.913435C57.3013 1.34959 57.6005 1.90528 57.7218 2.51024C57.843 3.1152 57.7808 3.74225 57.543 4.31211C57.3051 4.88197 56.9024 5.36904 56.3857 5.71172C55.869 6.05441 55.2615 6.23731 54.6401 6.23731C53.8068 6.23731 53.0076 5.90874 52.4183 5.32388C51.8291 4.73902 51.4981 3.94578 51.4981 3.11866ZM56.0697 31.5764C54.9822 31.5764 53.9191 31.2563 53.0149 30.6566C52.1106 30.0569 51.4059 29.2045 50.9897 28.2073C50.5735 27.21 50.4646 26.1127 50.6768 25.054C50.889 23.9953 51.4127 23.0229 52.1816 22.2596C52.9506 21.4963 53.9304 20.9765 54.997 20.766C56.0636 20.5554 57.1692 20.6635 58.1739 21.0765C59.1787 21.4896 60.0374 22.1891 60.6416 23.0866C61.2458 23.9841 61.5683 25.0393 61.5683 26.1187C61.5683 26.8354 61.4261 27.5451 61.1497 28.2073C60.8734 28.8694 60.4684 29.4711 59.9578 29.9779C59.4472 30.4847 58.841 30.8867 58.1739 31.1609C57.5068 31.4352 56.7918 31.5764 56.0697 31.5764Z" fill="#0184C1"/>
</svg>
