<svg width="72" height="60" viewBox="0 0 72 60" fill="none" xmlns="http://www.w3.org/2000/svg">
<path d="M18.388 48.3236H31.0361C32.8383 48.3298 34.6239 47.9783 36.2895 47.2894C37.9551 46.6004 39.4676 45.5877 40.7395 44.3099L49.5269 35.5152C49.6582 35.3847 49.7478 35.2181 49.7844 35.0366C49.821 34.855 49.803 34.6667 49.7325 34.4954C49.6624 34.3246 49.5433 34.1783 49.3903 34.0751C49.2372 33.9719 49.0571 33.9163 48.8725 33.9154H44.4695C44.2551 32.833 43.6717 31.8588 42.8192 31.1592C41.9667 30.4595 40.8979 30.0779 39.7954 30.0794H38.8045V21.3129C38.8045 21.0648 38.706 20.8268 38.5307 20.6513C38.3554 20.4759 38.1176 20.3773 37.8696 20.3773C37.6217 20.3773 37.3839 20.4759 37.2086 20.6513C37.0333 20.8268 36.9348 21.0648 36.9348 21.3129V30.0794H33.934V21.3129C33.934 21.0648 33.8356 20.8268 33.6602 20.6513C33.4849 20.4759 33.2472 20.3773 32.9992 20.3773C32.7513 20.3773 32.5135 20.4759 32.3382 20.6513C32.1629 20.8268 32.0644 21.0648 32.0644 21.3129V30.0794H29.2038V28.5638C29.2038 28.3156 29.1054 28.0777 28.93 27.9022C28.7547 27.7267 28.517 27.6282 28.269 27.6282H13.5643C13.3163 27.6282 13.0786 27.7267 12.9032 27.9022C12.7279 28.0777 12.6294 28.3156 12.6294 28.5638V38.8553H10.7598C10.5119 38.8553 10.2741 38.9539 10.0988 39.1294C9.92347 39.3048 9.82498 39.5428 9.82498 39.7909C9.8262 40.9142 10.0488 42.0263 10.48 43.0634C10.9112 44.1005 11.5426 45.0423 12.338 45.8349C13.1334 46.6275 14.0772 47.2553 15.1153 47.6823C16.1535 48.1093 17.2656 48.3272 18.388 48.3236ZM14.4991 29.4994H27.3342V31.015C27.3342 31.2632 27.4327 31.5011 27.608 31.6766C27.7833 31.8521 28.0211 31.9506 28.269 31.9506H39.8141C40.417 31.952 41.0045 32.1422 41.494 32.4945C41.9835 32.8469 42.3506 33.3437 42.5438 33.9154H31.5316C31.4079 33.9159 31.2855 33.941 31.1716 33.9891C31.0576 34.0373 30.9544 34.1077 30.8678 34.1961L26.1937 38.874H14.4991V29.4994ZM13.5643 40.7265H26.5583C26.8035 40.7255 27.0385 40.628 27.2127 40.4552L31.8868 35.7772H46.6102L39.4214 42.9719C38.3198 44.0809 37.0084 44.959 35.5638 45.555C34.1193 46.1509 32.5705 46.4528 31.008 46.443H18.388C16.7926 46.4319 15.2543 45.8477 14.0532 44.7967C12.8522 43.7458 12.0682 42.298 11.8442 40.7172L13.5643 40.7265ZM18.5843 31.436C18.0428 31.4471 17.5167 31.618 17.072 31.9273C16.6273 32.2366 16.2837 32.6705 16.0846 33.1746C15.8854 33.6786 15.8395 34.2303 15.9525 34.7603C16.0656 35.2904 16.3326 35.7752 16.72 36.154C17.1075 36.5327 17.5981 36.7884 18.1302 36.889C18.6624 36.9896 19.2124 36.9306 19.7111 36.7194C20.2099 36.5083 20.6352 36.1543 20.9337 35.7021C21.2322 35.2498 21.3905 34.7193 21.3887 34.1773C21.3718 33.4508 21.074 32.7591 20.558 32.2478C20.0419 31.7365 19.3478 31.4455 18.6217 31.436H18.5843ZM18.5843 35.0568C18.4133 35.0459 18.2492 34.9851 18.1123 34.8821C17.9753 34.779 17.8715 34.6382 17.8135 34.4768C17.7555 34.3155 17.7459 34.1407 17.7859 33.9739C17.8259 33.8072 17.9137 33.6558 18.0385 33.5383C18.1633 33.4209 18.3198 33.3425 18.4885 33.3129C18.6573 33.2833 18.831 33.3037 18.9883 33.3716C19.1456 33.4395 19.2797 33.5519 19.374 33.6951C19.4683 33.8382 19.5187 34.0059 19.5191 34.1773C19.5053 34.4093 19.4058 34.6278 19.2399 34.7904C19.074 34.9529 18.8537 35.0479 18.6217 35.0568H18.5843ZM27.4744 34.1773C27.4856 33.62 27.3306 33.0719 27.0293 32.603C26.728 32.1341 26.294 31.7656 25.7826 31.5445C25.2712 31.3235 24.7057 31.2598 24.158 31.3617C23.6104 31.4636 23.1054 31.7264 22.7076 32.1166C22.3097 32.5068 22.037 33.0067 21.9242 33.5527C21.8114 34.0986 21.8635 34.6658 22.074 35.1819C22.2845 35.6981 22.6439 36.1398 23.1062 36.4508C23.5685 36.7618 24.1129 36.9279 24.67 36.928C25.4106 36.938 26.1251 36.6544 26.6575 36.1391C27.19 35.6237 27.4971 34.9185 27.5118 34.1773H27.4744ZM24.67 35.0568C24.499 35.0459 24.3349 34.9851 24.198 34.8821C24.061 34.779 23.9572 34.6382 23.8992 34.4768C23.8412 34.3155 23.8316 34.1407 23.8716 33.9739C23.9115 33.8072 23.9994 33.6558 24.1242 33.5383C24.249 33.4209 24.4054 33.3425 24.5742 33.3129C24.743 33.2833 24.9167 33.3037 25.074 33.3716C25.2313 33.4395 25.3654 33.5519 25.4597 33.6951C25.554 33.8382 25.6044 34.0059 25.6048 34.1773C25.591 34.4093 25.4915 34.6278 25.3256 34.7904C25.1597 34.9529 24.9393 35.0479 24.7073 35.0568H24.67ZM34.551 44.1227C35.2906 44.1227 36.0135 43.9032 36.6285 43.492C37.2434 43.0808 37.7227 42.4963 38.0057 41.8125C38.2887 41.1287 38.3627 40.3762 38.2185 39.6502C38.0742 38.9243 37.7181 38.2575 37.1951 37.7341C36.6722 37.2107 36.0059 36.8543 35.2805 36.7099C34.5552 36.5655 33.8033 36.6396 33.1201 36.9228C32.4368 37.2061 31.8528 37.6858 31.4419 38.3012C31.031 38.9166 30.8117 39.6402 30.8117 40.3803C30.8117 41.3729 31.2057 42.3248 31.907 43.0266C32.6082 43.7284 33.5593 44.1227 34.551 44.1227ZM34.551 38.5092C34.9208 38.5092 35.2823 38.6189 35.5897 38.8245C35.8972 39.0301 36.1368 39.3224 36.2784 39.6643C36.4199 40.0062 36.4569 40.3824 36.3847 40.7454C36.3126 41.1084 36.1345 41.4418 35.8731 41.7035C35.6116 41.9652 35.2785 42.1434 34.9158 42.2156C34.5531 42.2878 34.1772 42.2507 33.8355 42.1091C33.4939 41.9675 33.2019 41.7276 32.9965 41.4199C32.791 41.1122 32.6814 40.7504 32.6814 40.3803C32.6814 39.8841 32.8784 39.4081 33.229 39.0572C33.5796 38.7063 34.0552 38.5092 34.551 38.5092ZM12.2742 48.2768C7.55336 47.9961 2.3651 44.5344 0 42.7193V40.3336C0.626331 40.8481 5.16022 44.525 9.70345 45.9471C10.406 46.8789 11.2783 47.6693 12.2742 48.2768ZM12.377 52.2063C7.80576 52.2063 2.65489 48.9223 0 46.9763V44.628C1.80421 46.0407 7.6375 50.3351 12.377 50.3351C13.6311 50.3713 14.8781 50.1351 16.0322 49.6427C16.4134 49.6947 16.7974 49.7229 17.182 49.727H19.8369C19.491 49.9141 19.1452 50.1012 18.8086 50.2977C16.9017 51.559 14.6627 52.2235 12.377 52.2063ZM53.7055 42.9532C54.8585 42.1563 56.1435 41.5703 57.5009 41.2224V43.0936C56.5131 43.4744 55.5722 43.9673 54.6964 44.5625C51.9948 46.1623 48.3303 48.3048 42.7962 48.3048H41.9829C40.7484 48.2712 39.5191 48.1303 38.309 47.8838C39.1246 47.4416 39.8975 46.9248 40.618 46.3401C41.0574 46.3401 41.5528 46.4149 42.0483 46.4337C47.4516 46.6395 50.9572 44.5905 53.7055 42.9532ZM57.3139 45.0303C57.3887 45.0258 57.4636 45.0258 57.5383 45.0303V46.9015C56.3408 47.2119 55.2099 47.7382 54.201 48.4545C51.49 50.0544 47.8348 52.1969 42.2913 52.1969H41.5155C36.9068 52.0285 34.9717 50.8964 33.3451 49.9047L32.7749 49.6427C33.7249 49.5421 34.6637 49.3542 35.5793 49.0814C37.4483 49.9652 39.4954 50.4069 41.5622 50.3725C46.9655 50.5596 50.443 48.5013 53.2194 46.8734C54.444 45.9853 55.8375 45.358 57.3139 45.0303ZM57.3139 48.9223C57.3885 48.9133 57.4638 48.9133 57.5383 48.9223V50.7935C56.3394 51.1 55.2078 51.6266 54.201 52.3466C51.49 53.9465 47.8348 56.089 42.2913 56.089H41.5155C36.9068 55.9206 34.9717 54.7979 33.3451 53.8062C31.7185 52.8144 30.3817 52.0379 26.6144 52.0379C23.8697 51.9301 21.1581 52.6681 18.846 54.1523C16.9442 55.4278 14.7037 56.1025 12.4144 56.089C7.84316 56.089 2.69229 52.8051 0.0373928 50.8684V48.5107C1.8416 49.9328 7.67489 54.2178 12.4144 54.2178C14.3752 54.2291 16.2928 53.6416 17.9112 52.5337C20.5045 50.8779 23.5404 50.0522 26.6144 50.1667C30.8959 50.1667 32.6253 51.1958 34.308 52.1969C35.9906 53.198 37.449 54.0681 41.5902 54.2178C46.9935 54.4236 50.471 52.3466 53.2475 50.728C54.4667 49.8567 55.8502 49.2423 57.3139 48.9223ZM57.3139 52.8144C57.3885 52.8054 57.4638 52.8054 57.5383 52.8144V54.6856C56.3292 54.9721 55.1845 55.4831 54.1636 56.1919C51.4526 57.8012 47.7975 59.9343 42.254 59.9343H41.4781C36.8694 59.7659 34.9343 58.6432 33.3077 57.6421C31.6811 56.641 30.3443 55.8738 26.577 55.8738C23.8243 55.7876 21.1119 56.552 18.8086 58.0631C16.9069 59.3386 14.6663 60.0132 12.377 59.9998C7.80576 59.9998 2.65489 56.7159 0 54.7698V52.4495C1.80421 53.8716 7.6375 58.1567 12.377 58.1567C14.3371 58.1633 16.2533 57.5762 17.8738 56.4726C20.4658 54.8129 23.5019 53.9839 26.577 54.0962C30.8585 54.0962 32.5879 55.1347 34.2706 56.1358C35.9533 57.1369 37.4116 58.007 41.5528 58.1567C46.9748 58.3438 50.4337 56.2855 53.2101 54.6575C54.4347 53.7636 55.8326 53.1358 57.3139 52.8144ZM30.6154 18.8336C31.1089 19.2792 31.702 19.6001 32.3448 19.7692C30.664 21.4215 29.3847 23.4381 28.6056 25.6634C28.4795 25.6059 28.3422 25.5771 28.2036 25.5792H26.7266C27.1041 24.3438 27.6184 23.1545 28.2597 22.0333C28.9229 20.8819 29.7131 19.8086 30.6154 18.8336ZM59.9501 26.1219C60.7478 29.0784 60.7478 32.1938 59.9501 35.1504C59.6927 36.1138 59.3517 37.053 58.9312 37.9571H56.8372C57.4015 36.9181 57.8408 35.8158 58.1459 34.6732C59.0333 31.3825 58.8096 27.8905 57.5096 24.7401C56.2095 21.5898 53.9061 18.9575 50.9572 17.2524C47.4085 15.2221 43.203 14.6741 39.2532 15.7274C38.6666 15.8928 38.0893 16.0896 37.5238 16.3168C37.5599 16.1033 37.5818 15.8876 37.5892 15.6712C37.5824 15.2318 37.5067 14.7961 37.3648 14.3801C37.8229 14.2117 38.2997 14.0527 38.7577 13.9217C41.7103 13.1356 44.8168 13.1356 47.7694 13.9217C49.963 14.5153 52.0183 15.5355 53.818 16.9241C55.6177 18.3127 57.1264 20.0424 58.2581 22.0146C59.0016 23.3025 59.5706 24.6837 59.9501 26.1219ZM35.1774 7.8403C35.1774 7.37769 35.3144 6.92547 35.5712 6.54082C35.828 6.15618 36.193 5.85639 36.6201 5.67935C37.0471 5.50232 37.517 5.456 37.9703 5.54625C38.4237 5.6365 38.8401 5.85927 39.167 6.18638C39.4938 6.5135 39.7164 6.93026 39.8066 7.38398C39.8967 7.8377 39.8505 8.308 39.6736 8.73539C39.4967 9.16279 39.1971 9.52809 38.8128 9.7851C38.4285 10.0421 37.9766 10.1793 37.5144 10.1793C36.8946 10.1793 36.3001 9.93286 35.8619 9.49422C35.4236 9.05557 35.1774 8.46064 35.1774 7.8403ZM21.3981 25.5511H19.5284V25.4389C20.1327 22.6171 21.2446 19.9288 22.8097 17.505L19.9304 14.6421C19.8438 14.5547 19.7752 14.451 19.7287 14.337C19.6822 14.223 19.6586 14.1009 19.6593 13.9778C19.6586 13.8547 19.6822 13.7326 19.7287 13.6186C19.7752 13.5046 19.8438 13.401 19.9304 13.3135L25.96 7.27894C26.1352 7.10468 26.3721 7.00688 26.6191 7.00688C26.866 7.00688 27.103 7.10468 27.2781 7.27894L30.1574 10.1512C31.4618 9.31773 32.8421 8.60976 34.2799 8.03677C34.3164 8.67401 34.5409 9.28611 34.925 9.7957C33.3908 10.4077 31.9297 11.1891 30.5687 12.1253C30.3897 12.2491 30.1733 12.3065 29.9566 12.2877C29.7399 12.269 29.5365 12.1751 29.3815 12.0224L26.6518 9.26241L21.9777 13.9404L24.7821 16.691C24.932 16.8618 25.0147 17.0813 25.0147 17.3085C25.0147 17.5358 24.932 17.7553 24.7821 17.926C23.1757 20.2269 22.0268 22.8157 21.3981 25.5511ZM72 26.3745V34.9071C72 35.1552 71.9015 35.3932 71.7262 35.5687C71.5509 35.7441 71.3131 35.8427 71.0652 35.8427H66.9987C66.3869 38.6607 65.2722 41.3452 63.7081 43.7672L66.5874 46.6395C66.6757 46.7261 66.746 46.8295 66.7941 46.9435C66.8423 47.0575 66.8673 47.18 66.8678 47.3038C66.8643 47.5505 66.7635 47.7859 66.5874 47.9587L62.1002 52.4495V49.8112L64.6056 47.3038L62.1002 44.8057V42.7942C63.6961 40.3504 64.7864 37.6113 65.3067 34.7387C65.3465 34.5207 65.4623 34.324 65.6335 34.1835C65.8047 34.043 66.0201 33.9679 66.2415 33.9715H70.1397V27.3101H66.2321C66.0108 27.3137 65.7953 27.2385 65.6242 27.0981C65.453 26.9576 65.3371 26.7608 65.2973 26.5429C64.7365 23.4467 63.5222 20.5059 61.7357 17.9167C61.6132 17.7365 61.5574 17.5193 61.5779 17.3023C61.5983 17.0854 61.6938 16.8825 61.8478 16.7285L64.5962 13.9778L59.9221 9.29983L57.1644 12.0505C57.0105 12.2046 56.8077 12.3002 56.591 12.3207C56.3742 12.3412 56.1571 12.2853 55.9771 12.1628C53.3922 10.3772 50.4574 9.16211 47.3674 8.59813C47.1497 8.55828 46.9531 8.44237 46.8127 8.27104C46.6723 8.0997 46.5973 7.88407 46.6009 7.66253V3.74239H39.9263V5.61358C39.435 5.07337 38.7765 4.71419 38.0566 4.59378V2.80679C38.0566 2.55865 38.1551 2.32068 38.3304 2.14522C38.5057 1.96976 38.7435 1.87119 38.9914 1.87119H47.517C47.7649 1.87119 48.0027 1.96976 48.178 2.14522C48.3533 2.32068 48.4518 2.55865 48.4518 2.80679V6.87664C51.2673 7.47984 53.9501 8.58934 56.3698 10.1512L59.2397 7.27894C59.4148 7.10468 59.6518 7.00688 59.8987 7.00688C60.1457 7.00688 60.3826 7.10468 60.5578 7.27894L66.5874 13.3135C66.7615 13.4888 66.8592 13.726 66.8592 13.9731C66.8592 14.2203 66.7615 14.4574 66.5874 14.6327L63.7175 17.5144C65.2825 19.9348 66.3943 22.62 66.9987 25.4389H71.0652C71.1879 25.4389 71.3095 25.4631 71.4229 25.5101C71.5363 25.5571 71.6394 25.626 71.7262 25.7129C71.813 25.7998 71.8819 25.9029 71.9288 26.0164C71.9758 26.1299 72 26.2516 72 26.3745ZM30.6435 1.87119C30.6435 1.50111 30.7531 1.13933 30.9586 0.831614C31.164 0.523898 31.456 0.284063 31.7976 0.142437C32.1393 0.000810752 32.5152 -0.0362451 32.8779 0.0359553C33.2405 0.108156 33.5737 0.28637 33.8352 0.548061C34.0966 0.809752 34.2747 1.14317 34.3468 1.50614C34.419 1.86912 34.382 2.24535 34.2404 2.58727C34.0989 2.92918 33.8593 3.22142 33.5518 3.42703C33.2444 3.63264 32.8829 3.74239 32.5131 3.74239C32.0173 3.74239 31.5417 3.54524 31.1911 3.19433C30.8404 2.84341 30.6435 2.36747 30.6435 1.87119ZM33.3638 18.9458C32.7167 18.9458 32.0841 18.7538 31.546 18.394C31.008 18.0341 30.5886 17.5227 30.341 16.9244C30.0933 16.326 30.0285 15.6676 30.1548 15.0324C30.281 14.3972 30.5927 13.8137 31.0502 13.3558C31.5078 12.8978 32.0908 12.5859 32.7255 12.4596C33.3602 12.3332 34.018 12.3981 34.6159 12.6459C35.2137 12.8938 35.7247 13.3135 36.0843 13.852C36.4438 14.3905 36.6357 15.0236 36.6357 15.6712C36.6357 16.1013 36.551 16.5271 36.3866 16.9244C36.2222 17.3217 35.9812 17.6827 35.6774 17.9867C35.3735 18.2908 35.0129 18.532 34.6159 18.6966C34.2189 18.8611 33.7935 18.9458 33.3638 18.9458Z" fill="white"/>
</svg>
