<svg xmlns="http://www.w3.org/2000/svg" data-name="Layer 2" viewBox="0 0 100 125" x="0px" y="0px"><title>Engineering</title><path d="M31.16,68.59H44.69A14.58,14.58,0,0,0,55.07,64.3l9.4-9.4a1,1,0,0,0,.22-1.09,1,1,0,0,0-.92-.62H59.06a5.09,5.09,0,0,0-5-4.1H53V39.72a1,1,0,0,0-2,0v9.37H47.79V39.72a1,1,0,0,0-2,0v9.37H42.73V47.47a1,1,0,0,0-1-1H26a1,1,0,0,0-1,1v11H23a1,1,0,0,0-1,1A9.13,9.13,0,0,0,31.16,68.59ZM27,48.47H40.73v1.62a1,1,0,0,0,1,1H54.08A3.09,3.09,0,0,1,57,53.19H45.22a1,1,0,0,0-.71.3l-5,5H27Zm-1,12h13.9a1,1,0,0,0,.7-.29l5-5H61.35l-7.69,7.69a12.58,12.58,0,0,1-9,3.71H31.16a7.12,7.12,0,0,1-7-6.12Zm5.37-9.93a2.94,2.94,0,1,0,3,2.93A3,3,0,0,0,31.41,50.54Zm0,3.87a.94.94,0,1,1,1-.94A1,1,0,0,1,31.41,54.41Zm9.51-.94a3,3,0,1,0-3,2.94A3,3,0,0,0,40.92,53.47Zm-3,.94a.94.94,0,1,1,1-.94A1,1,0,0,1,37.92,54.41ZM48.45,64.1a4,4,0,1,0-4-4A4,4,0,0,0,48.45,64.1Zm0-6a2,2,0,1,1-2,2A2,2,0,0,1,48.45,58.1ZM24.62,68.54c-5.05-.3-10.6-4-13.13-5.94V60.05c.67.55,5.52,4.48,10.38,6A9.9,9.9,0,0,0,24.62,68.54Zm.11,4.2c-4.89,0-10.4-3.51-13.24-5.59V64.64c1.93,1.51,8.17,6.1,13.24,6.1A9.29,9.29,0,0,0,28.64,70a9.89,9.89,0,0,0,1.23.09h2.84c-.37.2-.74.4-1.1.61A12.31,12.31,0,0,1,24.73,72.74Zm44.21-9.89A12.68,12.68,0,0,1,73,61v2A14.83,14.83,0,0,0,70,64.57c-2.89,1.71-6.81,4-12.73,4H56.4a22.83,22.83,0,0,1-3.93-.45,16.1,16.1,0,0,0,2.47-1.65c.47,0,1,.08,1.53.1C62.25,66.79,66,64.6,68.94,62.85Zm3.86,2.22a2,2,0,0,1,.24,0v2h0a10.89,10.89,0,0,0-3.57,1.66c-2.9,1.71-6.81,4-12.74,4h-.83c-4.93-.18-7-1.39-8.74-2.45L46.55,70a16.67,16.67,0,0,0,3-.6,14.42,14.42,0,0,0,6.4,1.38c5.78.2,9.5-2,12.47-3.74A11.83,11.83,0,0,1,72.8,65.07Zm0,4.16a1,1,0,0,1,.24,0v2h0a10.69,10.69,0,0,0-3.57,1.66c-2.9,1.71-6.81,4-12.74,4l-.83,0c-4.93-.18-7-1.38-8.74-2.44s-3.17-1.89-7.2-1.89a14.35,14.35,0,0,0-8.31,2.26,12.23,12.23,0,0,1-6.88,2.07c-4.89,0-10.4-3.51-13.24-5.58V68.79c1.93,1.52,8.17,6.1,13.24,6.1a10.31,10.31,0,0,0,5.88-1.8,16.19,16.19,0,0,1,9.31-2.53c4.58,0,6.43,1.1,8.23,2.17s3.36,2,7.79,2.16c5.78.22,9.5-2,12.47-3.73A11.83,11.83,0,0,1,72.8,69.23Zm0,4.16a1,1,0,0,1,.24,0v2h0A10.63,10.63,0,0,0,69.43,77c-2.9,1.72-6.81,4-12.74,4h-.83c-4.93-.18-7-1.38-8.74-2.45s-3.17-1.89-7.2-1.89A14.34,14.34,0,0,0,31.61,79a12.23,12.23,0,0,1-6.88,2.07c-4.89,0-10.4-3.51-13.24-5.59V73c1.93,1.52,8.17,6.1,13.24,6.1a10.39,10.39,0,0,0,5.88-1.8,16.18,16.18,0,0,1,9.31-2.54c4.58,0,6.43,1.11,8.23,2.18s3.36,2,7.79,2.16c5.8.2,9.5-2,12.47-3.74A11.63,11.63,0,0,1,72.8,73.39ZM44.24,37.07a4.45,4.45,0,0,0,1.85,1,16.46,16.46,0,0,0-4,6.3,1,1,0,0,0-.43-.09H40.08a18.55,18.55,0,0,1,1.64-3.79A19,19,0,0,1,44.24,37.07Zm31.38,7.79a18.51,18.51,0,0,1,0,9.65h0a18.33,18.33,0,0,1-1.09,3H72.29A16,16,0,0,0,73.69,54,16.53,16.53,0,0,0,66,35.38a16.61,16.61,0,0,0-12.52-1.63,18.28,18.28,0,0,0-1.85.63,5.2,5.2,0,0,0,.07-.69,4.49,4.49,0,0,0-.24-1.38c.49-.18,1-.35,1.49-.49a18.75,18.75,0,0,1,9.64,0,18.51,18.51,0,0,1,11.22,8.65A17.93,17.93,0,0,1,75.62,44.86ZM49.12,25.32a2.5,2.5,0,1,1,2.5,2.5A2.5,2.5,0,0,1,49.12,25.32ZM34.38,44.25h-2v-.12h0a25.45,25.45,0,0,1,3.51-8.48l-3.08-3.06a1,1,0,0,1-.29-.71,1,1,0,0,1,.29-.71l6.45-6.45a1,1,0,0,1,1.41,0l3.08,3.07a26.22,26.22,0,0,1,4.41-2.26,3.45,3.45,0,0,0,.69,1.88,23.76,23.76,0,0,0-4.66,2.49,1,1,0,0,1-1.27-.11L40,26.84l-5,5,3,2.94A1,1,0,0,1,38,36.1,23.38,23.38,0,0,0,34.38,44.25Zm54.13.88v9.12a1,1,0,0,1-1,1H83.16a25.63,25.63,0,0,1-3.52,8.47l3.08,3.07a1,1,0,0,1,.3.71,1,1,0,0,1-.3.7L77.92,73V70.18L80.6,67.5l-2.68-2.67V62.68a23.35,23.35,0,0,0,3.43-8.61,1,1,0,0,1,1-.82h4.17V46.13H82.34a1,1,0,0,1-1-.82,23.65,23.65,0,0,0-3.81-9.22,1,1,0,0,1,.12-1.27l2.94-2.94-5-5-2.95,2.94a1,1,0,0,1-1.27.12,23.7,23.7,0,0,0-9.21-3.81,1,1,0,0,1-.82-1V20.94H54.2v2a3.48,3.48,0,0,0-2-1.09V19.94a1,1,0,0,1,1-1h9.12a1,1,0,0,1,1,1v4.35a25.46,25.46,0,0,1,8.47,3.5l3.07-3.07a1,1,0,0,1,1.41,0l6.45,6.45a1,1,0,0,1,0,1.41l-3.07,3.08a25.4,25.4,0,0,1,3.51,8.47h4.35A1,1,0,0,1,88.51,45.13ZM44.27,18.94a2,2,0,1,1,2,2A2,2,0,0,1,44.27,18.94Zm2.91,18.25a3.5,3.5,0,1,1,3.5-3.5A3.5,3.5,0,0,1,47.18,37.19Z"/><text x="0" y="115" fill="#000000" font-size="5px" font-weight="bold" font-family="'Helvetica Neue', Helvetica, Arial-Unicode, Arial, Sans-serif">Created by Pravin Unagar</text><text x="0" y="120" fill="#000000" font-size="5px" font-weight="bold" font-family="'Helvetica Neue', Helvetica, Arial-Unicode, Arial, Sans-serif">from the Noun Project</text></svg>