<svg xmlns="http://www.w3.org/2000/svg" data-name="Layer 1" viewBox="0 0 128 160" x="0px" y="0px"><title>1</title><path d="M2.32026,59.83726H15.04463A1.6154,1.6154,0,0,0,16.66,58.22186a17.91087,17.91087,0,0,1,35.662-2.38523H35.47283A2.11243,2.11243,0,0,0,33.66328,59.039L46.40695,80.19543a2.11278,2.11278,0,0,0,1.80955,1.02248h64.22122a2.11278,2.11278,0,0,0,1.80955-1.02248L126.99095,59.039a2.10811,2.10811,0,0,0,.30119-1.09h.0017V36.85358a2.11246,2.11246,0,0,0-2.11244-2.11244H106.19846V26.91949h5.01279a1.49113,1.49113,0,0,0,0-2.98226h-5.01279V20.95763h5.01279a1.49113,1.49113,0,0,0,0-2.98226H96.96092a1.49113,1.49113,0,1,0,0,2.98226h5.01267v2.97959H96.96092a1.49113,1.49113,0,0,0,0,2.98226h5.01267V57.29816L97.0472,64.53175H66.09225L60.79938,56.7601a2.11209,2.11209,0,0,0-1.746-.92346h-3.4477A27.50223,27.50223,0,0,0,.70486,58.22186,1.6154,1.6154,0,0,0,2.32026,59.83726ZM106.19846,38.966H123.069V55.83663h-16.8705ZM57.93628,60.06151l5.29286,7.77165a2.11209,2.11209,0,0,0,1.746.92346H98.16433a2.11209,2.11209,0,0,0,1.746-.92346l5.29286-7.77165h16.23973L111.24414,76.993H49.41009L39.21134,60.06151Zm-29.729-26.11132a24.09072,24.09072,0,0,1,14.16624,4.61489A21.16314,21.16314,0,0,0,13.49028,56.60647H3.9888A24.30242,24.30242,0,0,1,28.20732,33.95019Z"/><path d="M125.72085,103.9163c-1.29218-.05643-2.58588-.08482-3.865-.08482a85.88424,85.88424,0,0,0-14.78488,1.26057,83.61239,83.61239,0,0,1-28.28516,0,87.34057,87.34057,0,0,0-29.57085,0,83.61926,83.61926,0,0,1-28.28491.00024,87.29159,87.29159,0,0,0-18.65141-1.17648,1.8639,1.8639,0,0,0-1.77457,1.98611l0,.00049a1.86145,1.86145,0,0,0,1.93958,1.73771,83.58392,83.58392,0,0,1,17.84347,1.12393,87.33915,87.33915,0,0,0,29.5706,0,83.6131,83.6131,0,0,1,28.28528,0,87.33986,87.33986,0,0,0,29.57072,0,82.13892,82.13892,0,0,1,14.14209-1.20475c1.22283,0,2.4598.02718,3.69543.08106a1.864,1.864,0,0,0,.16952-3.72407Z"/><path d="M125.72085,94.75569c-1.29218-.05643-2.58588-.08482-3.865-.08482a85.8573,85.8573,0,0,0-14.78573,1.26324,83.60669,83.60669,0,0,1-28.28419,0,87.16434,87.16434,0,0,0-29.57182,0,83.61357,83.61357,0,0,1-28.28394.00024A87.464,87.464,0,0,0,2.2796,94.75594,1.86393,1.86393,0,0,0,.50409,96.7412l0,.00036A1.86142,1.86142,0,0,0,2.44349,98.48a83.5966,83.5966,0,0,1,17.84274,1.12612,87.34555,87.34555,0,0,0,29.5717,0,83.42521,83.42521,0,0,1,28.28431,0,87.34555,87.34555,0,0,0,29.5717,0,82.11738,82.11738,0,0,1,14.142-1.20742c1.22283,0,2.4598.02718,3.69543.08106a1.864,1.864,0,0,0,.16952-3.72407Z"/><path d="M.50415,87.58629a1.8613,1.8613,0,0,0,1.93964,1.73759A83.57557,83.57557,0,0,1,20.2872,90.44794a87.33915,87.33915,0,0,0,29.5706,0,83.6131,83.6131,0,0,1,28.28528,0,87.33986,87.33986,0,0,0,29.57072,0,82.13892,82.13892,0,0,1,14.14209-1.20475c1.22283,0,2.4598.02718,3.69543.08106a1.864,1.864,0,0,0,.16952-3.72407c-1.29218-.05643-2.58588-.08482-3.865-.08482A85.88424,85.88424,0,0,0,107.071,86.77593a83.61239,83.61239,0,0,1-28.28516,0,87.34057,87.34057,0,0,0-29.57085,0,83.61926,83.61926,0,0,1-28.28491.00024A87.26086,87.26086,0,0,0,2.27863,85.5997a1.86386,1.86386,0,0,0-1.77454,1.986Z"/><text x="0" y="143" fill="#000000" font-size="5px" font-weight="bold" font-family="'Helvetica Neue', Helvetica, Arial-Unicode, Arial, Sans-serif">Created by Anwar Hossain</text><text x="0" y="148" fill="#000000" font-size="5px" font-weight="bold" font-family="'Helvetica Neue', Helvetica, Arial-Unicode, Arial, Sans-serif">from the Noun Project</text></svg>