<svg xmlns="http://www.w3.org/2000/svg" xmlns:xlink="http://www.w3.org/1999/xlink" version="1.1" x="0px" y="0px" viewBox="0 0 4000 5000" style="enable-background:new 0 0 4000 4000;" xml:space="preserve"><g><path d="M3482.8,1797.1l271.5-245.1c-98.4-237.6-98.7-238.2-197.1-475.8l-365.3,18.7c-114.5-114.5-172.4-172.4-286.9-286.9   l18.7-365.3c-237.6-98.4-238.2-98.7-475.8-197.1l-245.1,271.5c-161.9,0-243.8,0-405.7,0l-245.1-271.5   c-237.6,98.4-238.2,98.7-475.8,197.1l18.7,365.3C980.4,922.6,922.6,980.4,808,1094.9l-365.3-18.7   c-98.4,237.6-98.7,238.2-197.1,475.8l271.5,245.1c0,161.9,0,243.8,0,405.7l-271.5,245.1c98.4,237.6,98.7,238.2,197.1,475.8   l365.3-18.7c114.5,114.5,172.4,172.4,286.9,286.9l-18.7,365.3c237.6,98.4,238.2,98.7,475.8,197.1l245.1-271.5   c161.9,0,243.8,0,405.7,0l245.1,271.5c237.6-98.4,238.2-98.7,475.8-197.1l-18.7-365.3c114.5-114.5,172.4-172.4,286.9-286.9   l365.3,18.7c98.4-237.6,98.7-238.2,197.1-475.8l-271.5-245.1C3482.8,2040.9,3482.8,1959.1,3482.8,1797.1z M2000,3210.7   c-668.6,0-1210.7-542-1210.7-1210.7S1331.4,789.3,2000,789.3s1210.7,542,1210.7,1210.7S2668.6,3210.7,2000,3210.7z"/><path d="M2336.4,1871.4c29.4-29.4,71.2-42.6,112.1-35.3c120.2,21.6,248.7-14.3,341.3-107.7c103.7-104.7,134.6-255.1,92.8-387   l-272.9,272.9h0c-123.1-29.7-219.3-125.9-249-249v0l273.1-273.1c-132.5-42.2-283.4-10.8-388.5,94.3   c-95.7,95.7-130.3,229.3-103.9,352.5c9.1,42.3-3.7,86.3-34.3,116.9l-25.2,25.2l-567.1,574.9c-47.5,47.5-109.8,76.7-176.5,84   c-57.5,6.3-113.4,31.2-157.9,74.6c-105.6,103-108,274-5.1,379.7c104.7,107.7,276.9,108.6,382.7,2.7c40.8-40.8,65.7-91.4,74.8-144.3   c10.4-60.4,38.5-116.3,81.8-159.6l589.8-589.8L2336.4,1871.4z M1271.4,2707.8c-52.5-52.5-52.5-137.5,0-190s137.5-52.5,190,0   c52.5,52.5,52.5,137.5,0,190S1323.9,2760.3,1271.4,2707.8z"/><g><path d="M2283.7,2038.6l-56.3,56.3l305,305c20.5,20.5,23.6,50.8,6.8,67.6s-47.1,13.8-67.6-6.8l-305-305l-65.4,65.4l305,305    c20.5,20.5,23.6,50.8,6.8,67.6c-16.8,16.8-47.1,13.8-67.6-6.8l-305-305l-57.8,57.8l522.6,522.6c56.5,56.5,139.7,64.8,185.9,18.7    l133.8-133.8c46.2-46.2,37.8-129.4-18.7-185.9L2283.7,2038.6z"/><polygon points="1384.6,1527.3 1754.7,1897.4 1834.1,1816.9 1465.3,1448 1456.7,1341.9 1254.6,1207.3 1145.2,1316.7     1279.8,1518.8   "/></g><path d="M2336.4,1871.4c29.4-29.4,71.2-42.6,112.1-35.3c120.2,21.6,248.7-14.3,341.3-107.7c103.7-104.7,134.6-255.1,92.8-387   l-272.9,272.9h0c-123.1-29.7-219.3-125.9-249-249v0l273.1-273.1c-132.5-42.2-283.4-10.8-388.5,94.3   c-95.7,95.7-130.3,229.3-103.9,352.5c9.1,42.3-3.7,86.3-34.3,116.9l-25.2,25.2l-567.1,574.9c-47.5,47.5-109.8,76.7-176.5,84   c-57.5,6.3-113.4,31.2-157.9,74.6c-105.6,103-108,274-5.1,379.7c104.7,107.7,276.9,108.6,382.7,2.7c40.8-40.8,65.7-91.4,74.8-144.3   c10.4-60.4,38.5-116.3,81.8-159.6l589.8-589.8L2336.4,1871.4z M1271.4,2707.8c-52.5-52.5-52.5-137.5,0-190s137.5-52.5,190,0   c52.5,52.5,52.5,137.5,0,190S1323.9,2760.3,1271.4,2707.8z"/></g><text x="0" y="4015" fill="#000000" font-size="5px" font-weight="bold" font-family="'Helvetica Neue', Helvetica, Arial-Unicode, Arial, Sans-serif">Created by Puchongart</text><text x="0" y="4020" fill="#000000" font-size="5px" font-weight="bold" font-family="'Helvetica Neue', Helvetica, Arial-Unicode, Arial, Sans-serif">from the Noun Project</text></svg>