<svg xmlns="http://www.w3.org/2000/svg" xmlns:xlink="http://www.w3.org/1999/xlink" version="1.1" x="0px" y="0px" viewBox="0 0 5000 6250" style="enable-background:new 0 0 5000 5000;" xml:space="preserve"><g><path d="M550.3,1436c14.3,12.6,36,11.3,48.7-2.9c34.7-39.2,84.6-61.7,137-61.7c52.3,0,102.3,22.5,137,61.7   c47.8,53.9,116.5,84.9,188.6,84.9s140.8-30.9,188.6-84.9c34.7-39.2,84.6-61.7,137-61.7c52.3,0,102.3,22.5,137,61.7l0,0   c47.8,53.9,116.5,84.9,188.6,84.9l0,0c72.1,0,140.8-30.9,188.7-85c34.7-39.2,84.6-61.6,137-61.6c52.3,0,102.3,22.5,136.9,61.6   l0.2,0.2c47.8,53.9,116.5,84.9,188.6,84.9s140.8-30.9,188.7-85l0,0c34.7-39.2,84.6-61.6,137-61.7s102.3,22.5,137,61.7l0.1,0.1   c47.8,53.9,116.5,84.9,188.6,84.9l0,0c72.1,0,140.8-30.9,188.5-84.8l0.2-0.2c34.7-39.2,84.6-61.6,137-61.6l0,0   c52.3,0,102.3,22.5,137,61.7l0,0c47.8,53.9,116.5,84.9,188.6,84.9l0,0c72.1,0,140.8-30.9,188.6-84.9l0.1-0.1   c34.7-39.2,84.6-61.6,137-61.6c52.3,0,102.3,22.5,136.9,61.6l0.3,0.3c47.8,53.9,116.5,84.8,188.6,84.8s140.8-30.9,188.6-84.9   c12.6-14.3,11.3-36-2.9-48.7c-14.3-12.6-36-11.3-48.7,2.9c-34.7,39.2-84.6,61.6-137,61.6c-52.3,0-102.3-22.5-136.9-61.6l-0.3-0.3   c-47.8-53.9-116.5-84.9-188.6-84.8c-72.1,0-140.8,30.9-188.6,84.9l-0.1,0.1c-34.7,39.2-84.6,61.6-137,61.6l0,0   c-52.3,0-102.3-22.5-137-61.7c0,0,0,0-0.1-0.1c-47.8-53.9-116.5-84.9-188.6-84.9l0,0c-72.1,0-140.8,30.9-188.5,84.8l-0.2,0.2   c-34.7,39.2-84.6,61.6-137,61.6c-52.3,0-102.3-22.5-137-61.7l-0.1-0.1c-47.8-53.9-116.5-84.9-188.6-84.9s-140.8,30.9-188.7,85l0,0   c-34.7,39.2-84.6,61.6-137,61.6c-52.3,0-102.3-22.5-136.9-61.6l-0.2-0.2c-47.8-53.9-116.5-84.9-188.6-84.9s-140.8,30.9-188.7,85   c-34.7,39.2-84.6,61.7-137,61.6c-52.3,0-102.3-22.5-137-61.7l-0.1-0.1c-47.8-53.9-116.5-84.8-188.6-84.8s-140.8,30.9-188.6,84.9   c-34.7,39.2-84.6,61.7-137,61.7c-52.3,0-102.3-22.5-137-61.7c-47.8-53.9-116.5-84.9-188.6-84.9S595,1333,547.2,1387   C534.7,1401.6,536,1423.4,550.3,1436z"/><path d="M2984.2,3080v-58.3l353.4-303.1c14.5,3.3,29.6,5,45.1,5c62.4,0,118.3-28.1,155.7-72.4h405.5l149.7,149.7   c6.5,6.5,15.2,10.1,24.4,10.1h212.7c9.1,0,17.9-3.6,24.4-10.1l150.4-150.4c13.5-13.5,13.5-35.3,0-48.8s-35.3-13.5-48.8,0   L4316.5,2742h-139.8v-444.6h139.8l140.3,140.3c13.5,13.5,35.3,13.5,48.8,0s13.5-35.3,0-48.8l-150.4-150.4   c-6.5-6.5-15.2-10.1-24.4-10.1H4118c-9.1,0-17.9,3.6-24.4,10.1l-149.7,149.7h-405.5c-37.4-44.2-93.3-72.4-155.7-72.4   c-108.9,0-198.1,85.8-203.6,193.3L2984.2,2684v-235.9c0-74.5-29-144.5-81.7-197.1c-52.7-52.7-122.7-81.7-197.1-81.7H2646   l-36.5-90.1c-16.3-40.3-44-74.5-80.1-98.8s-78.1-37.2-121.6-37.2H1796V1631c0-19-15.4-34.5-34.5-34.5s-34.5,15.4-34.5,34.5v312.2   h-611.8c-43.5,0-85.6,12.8-121.6,37.2c-36.1,24.3-63.8,58.5-80.1,98.8l-36.5,90.1h-59.4c-74.5,0-144.5,29-197.1,81.7   c-52.7,52.7-81.7,122.7-81.7,197.1V3080c0,47.3,12.2,94.2,35.1,135.5l388,697.5c49.2,88.4,142.5,143.3,243.6,143.3h1112.2   c101.1,0,194.5-54.9,243.6-143.3l252.5-454l365.5,314.9c5.7,107.3,94.9,192.8,203.6,192.8c62.4,0,118.3-28.1,155.7-72.4h405.5   l149.7,149.7c6.5,6.5,15.2,10.1,24.4,10.1h212.7c9.1,0,17.9-3.6,24.4-10.1l150.4-150.4c13.5-13.5,13.5-35.3,0-48.8   s-35.3-13.5-48.8,0l-140.3,140.3h-139.8v-444.6h139.8l140.3,140.3c13.5,13.5,35.3,13.5,48.8,0s13.5-35.3,0-48.8l-150.4-150.4   c-6.5-6.5-15.2-10.1-24.4-10.1H4118c-9.1,0-17.9,3.6-24.4,10.1l-149.7,149.7h-405.5c-37.4-44.2-93.3-72.4-155.7-72.4   c-15.5,0-30.6,1.8-45.2,5.1l-394.6-337.4l6.2-11.1C2972.1,3174.1,2984.2,3127.3,2984.2,3080z M4107.7,2322v395.4l-105.6-105.6   v-184.2L4107.7,2322z M3933.1,2457.2v125h-356.3c6.4-19.7,9.8-40.7,9.8-62.5s-3.5-42.8-9.8-62.5H3933.1L3933.1,2457.2z    M3382.8,2384.8c74.4,0,134.9,60.5,134.9,134.9s-60.5,134.9-134.9,134.9c-73,0-132.6-58.3-134.8-130.7c0-0.3,0-0.6,0-0.9   c0-1.1,0-2.2,0-3.2C3247.9,2445.3,3308.4,2384.8,3382.8,2384.8z M3191.6,2590.6c14.8,39.7,41.6,73.6,75.9,97.2l-283.3,243v-154.1   L3191.6,2590.6z M977.3,2105.1c22.9-56.4,77-92.9,137.8-92.9h1292.6c60.9,0,115,36.5,137.9,92.9l26,64.3H951.3L977.3,2105.1z    M2500.9,3879.4c-37,66.5-107.3,107.8-183.4,107.8H1205.4c-76.1,0-146.4-41.3-183.4-107.8l-388-697.5   c-17.3-31.1-26.5-66.4-26.5-102v-631.8c0-115.7,94.1-209.8,209.8-209.8h1888.1c115.7,0,209.8,94.1,209.8,209.8V3080   c0,35.6-9.1,70.9-26.5,102L2500.9,3879.4z M4107.7,3565v395.4l-105.6-105.6v-184.2L4107.7,3565z M3933.1,3700.2v125h-356.3   c6.4-19.7,9.8-40.7,9.8-62.5s-3.5-42.8-9.8-62.5H3933.1L3933.1,3700.2z M3517.7,3762.7c0,74.4-60.5,134.9-134.9,134.9   s-134.9-60.5-134.9-134.9c0-1.1,0-2.2,0-3.4c0-0.4,0-0.7,0-1.1c2.3-72.3,61.9-130.5,134.8-130.5   C3457.1,3627.8,3517.7,3688.4,3517.7,3762.7z M3267.5,3594.7c-34.7,23.9-61.6,58.2-76.3,98.3l-343.3-295.7l60.8-109.4   L3267.5,3594.7z"/><path d="M2472.1,2639.7H1050.8c-102.1,0-185.2,83.1-185.2,185.2v248.7c0,31.4,8.1,62.6,23.4,90l70.3,126.4c0.1,0.1,0.1,0.3,0.2,0.4   l221.5,398.3c32.7,58.7,94.7,95.2,161.8,95.2H2180c67.2,0,129.2-36.5,161.8-95.2l221.5-398.3c0.1-0.1,0.1-0.2,0.2-0.4l70.3-126.4   c15.3-27.5,23.4-58.6,23.4-90v-248.7C2657.3,2722.8,2574.2,2639.7,2472.1,2639.7z M2280.6,2708.7l-14.8,55.8   c-15.8,59.6-70,101.3-131.7,101.3h-745.3c-61.7,0-115.8-41.7-131.7-101.3l-14.8-55.8H2280.6z M2281.6,3655.3   c-20.5,36.8-59.4,59.7-101.6,59.7h-837.2c-42.2,0-81.1-22.9-101.6-59.7l-193-347h1426.3L2281.6,3655.3z M2588.3,3073.7   c0,19.7-5.1,39.3-14.7,56.5l-60.7,109.1h-1503l-60.7-109.1c-9.6-17.2-14.7-36.8-14.7-56.5V2825c0-64.1,52.1-116.2,116.2-116.2H1171   l19.5,73.5c23.8,89.8,105.4,152.6,198.3,152.6h745.3c92.9,0,174.5-62.7,198.3-152.6l19.5-73.5h120.2c64.1,0,116.2,52.1,116.2,116.2   V3073.7L2588.3,3073.7z"/><path d="M1761.4,1348.4c19,0,34.5-15.4,34.5-34.5V842c0-19-15.4-34.5-34.5-34.5S1727,823,1727,842v471.8   C1727,1332.9,1742.4,1348.4,1761.4,1348.4z"/><path d="M1052.8,2486.5h423.5c19,0,34.5-15.4,34.5-34.5s-15.4-34.5-34.5-34.5h-423.5c-19,0-34.5,15.4-34.5,34.5   C1018.3,2471.1,1033.7,2486.5,1052.8,2486.5z"/><path d="M2046.7,2486.5h423.5c19,0,34.5-15.4,34.5-34.5s-15.4-34.5-34.5-34.5h-423.5c-19,0-34.5,15.4-34.5,34.5   S2027.6,2486.5,2046.7,2486.5z"/></g><text x="0" y="5015" fill="#000000" font-size="5px" font-weight="bold" font-family="'Helvetica Neue', Helvetica, Arial-Unicode, Arial, Sans-serif">Created by bsd studio</text><text x="0" y="5020" fill="#000000" font-size="5px" font-weight="bold" font-family="'Helvetica Neue', Helvetica, Arial-Unicode, Arial, Sans-serif">from the Noun Project</text></svg>