<svg xmlns="http://www.w3.org/2000/svg" xmlns:xlink="http://www.w3.org/1999/xlink" version="1.1" x="0px" y="0px" viewBox="0 0 64 80" enable-background="new 0 0 64 64" xml:space="preserve"><g><g><path d="M44.475,10.894c-0.089-0.155-0.254-0.25-0.433-0.25H19.958c-0.179,0-0.344,0.095-0.433,0.25L7.484,31.75    c-0.089,0.155-0.089,0.345,0,0.5l12.042,20.856c0.089,0.154,0.254,0.25,0.433,0.25h24.083c0.179,0,0.344-0.096,0.433-0.25    L56.516,32.25c0.09-0.155,0.09-0.345,0-0.5L44.475,10.894z M48.377,19.653c-0.197,0.09-0.392,0.188-0.595,0.266    c-0.177,0.067-0.301,0.229-0.319,0.418C47.288,22.14,45.799,23.5,44,23.5c-1.294,0-2.418-0.709-3.018-1.775l5.446-5.447    L48.377,19.653z M45.911,15.382l-5.307,5.307c-0.023-0.117-0.056-0.23-0.067-0.351c-0.019-0.189-0.143-0.351-0.319-0.419    c-1.038-0.396-1.977-0.951-2.816-1.613l6.312-6.312c0.062-0.062,0.097-0.136,0.119-0.213L45.911,15.382z M36.642,17.654    c-1.655-1.582-2.753-3.676-3.115-6.01h9.123l-6.003,6.003C36.645,17.648,36.644,17.651,36.642,17.654z M43.753,52.356H20.247    L8.494,32l11.753-20.356h12.266c0.579,4.082,3.23,7.522,7.069,9.099C39.939,22.905,41.788,24.5,44,24.5s4.061-1.595,4.418-3.758    c0.158-0.065,0.31-0.143,0.464-0.215L55.506,32L43.753,52.356z"/><path d="M32,23.5c-4.687,0-8.5,3.813-8.5,8.5c0,4.687,3.813,8.5,8.5,8.5c4.687,0,8.5-3.813,8.5-8.5    C40.5,27.313,36.687,23.5,32,23.5z M32,39.5c-4.136,0-7.5-3.364-7.5-7.5s3.364-7.5,7.5-7.5s7.5,3.364,7.5,7.5S36.136,39.5,32,39.5    z"/></g></g><text x="0" y="79" fill="#000000" font-size="5px" font-weight="bold" font-family="'Helvetica Neue', Helvetica, Arial-Unicode, Arial, Sans-serif">Created by Ralf Schmitzer</text><text x="0" y="84" fill="#000000" font-size="5px" font-weight="bold" font-family="'Helvetica Neue', Helvetica, Arial-Unicode, Arial, Sans-serif">from the Noun Project</text></svg>