<svg xmlns="http://www.w3.org/2000/svg" xmlns:xlink="http://www.w3.org/1999/xlink" version="1.1" x="0px" y="0px" viewBox="0 0 100 125" enable-background="new 0 0 100 100" xml:space="preserve"><path d="M96.187,47.347H74.26v10.584h-1.799V31.01l-20.735-4.153l0.821,8.744L30.152,10.729l-7.331,6.283L7.169,47.159H0.666  l4.922,15.116h22.674l6.591-15.116H11.212l21.355-25.834l20.386,30.727l-1.952,8.827c0,1.217,0.996,2.212,2.212,2.212h42.974  c1.217,0,2.212-0.996,2.212-2.212V49.56C98.4,48.343,97.404,47.347,96.187,47.347z M66.626,47.593h-7.36v-9.058h7.36V47.593z"/><path d="M44.02,73.774c5.281,1.781,7.363,1.781,12.741,0c5.065-1.666,6.595-1.782,12,0c5.355,1.781,7.455,1.781,12.74,0  c5.131-1.724,6.855-1.724,11.992,0c0.448,0.152,0.88,0.29,1.296,0.415c0.078-0.447,0.12-0.906,0.12-1.374  c0-4.421-3.597-8.018-8.018-8.018H49.087c-4.421,0-8.018,3.597-8.018,8.018c0,0.026,0.002,0.051,0.002,0.076  C41.938,73.103,42.897,73.398,44.02,73.774z"/><path d="M93.492,79.236c-5.137-1.723-6.86-1.723-11.992,0c-5.285,1.782-7.385,1.782-12.74,0c-5.405-1.782-6.934-1.665-12,0  c-5.378,1.782-7.46,1.782-12.741,0c-5.143-1.723-6.856-1.723-11.999,0c-5.283,1.782-7.381,1.782-12.74,0  c-2.61-0.862-4.649-1.302-6.06-1.302c-1.33,0-3.326,0.441-5.942,1.302c-2.435,0.812-4.379,1.206-5.902,1.281v8.026l0.02,0.318  c0.902-0.499,2.934-0.939,5.553-1.8c5.504-1.829,7.463-1.728,12.672,0c5.076,1.673,6.619,1.789,12.004,0  c5.349-1.781,7.422-1.781,12.804,0c5.379,1.781,6.919,1.673,12.004,0c5.198-1.743,7.146-1.835,12.667,0  c5.05,1.673,6.595,1.781,12.003,0c5.357-1.781,7.455-1.781,12.737,0c2.268,0.768,4.11,1.193,5.49,1.283v-7.629  C98.045,80.716,96.131,80.131,93.492,79.236z"/><path d="M20.362,65.562c0-0.919,0.747-1.667,1.663-1.667l0,0c0.919,0,1.663,0.747,1.663,1.667l0,0c0,0.916-0.744,1.66-1.663,1.66  l0,0C21.109,67.222,20.362,66.478,20.362,65.562z"/><path d="M22.025,72.148c-0.106,0-0.218-0.012-0.324-0.033c-0.106-0.021-0.212-0.054-0.312-0.097c-0.1-0.039-0.196-0.091-0.287-0.151  c-0.091-0.06-0.175-0.13-0.251-0.209c-0.311-0.309-0.49-0.738-0.49-1.177c0-0.435,0.178-0.865,0.487-1.173  c0.079-0.079,0.163-0.148,0.254-0.209c0.091-0.061,0.188-0.112,0.287-0.154c0.1-0.04,0.206-0.073,0.312-0.094  c0.541-0.109,1.116,0.07,1.5,0.457c0.312,0.309,0.487,0.738,0.487,1.173c0,0.439-0.175,0.868-0.487,1.177  C22.893,71.969,22.463,72.148,22.025,72.148z"/><path d="M25.986,70.55c0-0.919,0.744-1.663,1.663-1.663l0,0c0.919,0,1.663,0.744,1.663,1.663l0,0c0,0.919-0.744,1.663-1.663,1.663  l0,0C26.73,72.214,25.986,71.47,25.986,70.55z"/><path d="M25.986,65.628c0-0.919,0.744-1.663,1.663-1.663l0,0c0.919,0,1.663,0.744,1.663,1.663l0,0c0,0.919-0.744,1.663-1.663,1.663  l0,0C26.73,67.292,25.986,66.548,25.986,65.628z"/><path d="M27.65,77.136c-0.106,0-0.218-0.012-0.323-0.033c-0.106-0.021-0.212-0.054-0.312-0.094c-0.1-0.043-0.197-0.094-0.287-0.154  c-0.091-0.061-0.175-0.13-0.251-0.206c-0.312-0.311-0.49-0.738-0.49-1.176c0-0.109,0.012-0.218,0.033-0.327  c0.021-0.106,0.054-0.209,0.097-0.309c0.039-0.103,0.091-0.199,0.151-0.287c0.06-0.094,0.13-0.178,0.209-0.254  c0.076-0.076,0.16-0.145,0.251-0.206c0.091-0.061,0.188-0.112,0.287-0.154c0.1-0.042,0.206-0.073,0.312-0.094  c0.541-0.109,1.113,0.066,1.5,0.454c0.079,0.076,0.148,0.16,0.209,0.254c0.058,0.088,0.112,0.184,0.151,0.287  c0.043,0.1,0.076,0.203,0.097,0.309c0.021,0.109,0.03,0.218,0.03,0.327c0,0.439-0.175,0.865-0.487,1.176  C28.518,76.958,28.088,77.136,27.65,77.136z"/><g><path d="M33.359,59.968c-0.109,0-0.218-0.009-0.324-0.033c-0.109-0.021-0.212-0.051-0.312-0.094   c-0.103-0.042-0.199-0.094-0.287-0.151c-0.091-0.064-0.179-0.13-0.254-0.209c-0.308-0.308-0.487-0.738-0.487-1.176   c0-0.109,0.012-0.218,0.033-0.324c0.021-0.106,0.051-0.211,0.094-0.311c0.042-0.1,0.094-0.197,0.154-0.287   c0.061-0.091,0.13-0.175,0.206-0.254c0.076-0.076,0.163-0.145,0.254-0.206c0.088-0.06,0.184-0.112,0.287-0.154   c0.1-0.039,0.203-0.073,0.312-0.094c0.212-0.043,0.436-0.043,0.647,0c0.109,0.021,0.212,0.054,0.312,0.094   c0.103,0.042,0.2,0.094,0.287,0.154c0.094,0.061,0.178,0.13,0.254,0.206c0.076,0.079,0.145,0.163,0.206,0.254   c0.061,0.091,0.112,0.188,0.154,0.287c0.042,0.1,0.072,0.206,0.094,0.311c0.021,0.106,0.033,0.218,0.033,0.324   c0,0.109-0.012,0.218-0.033,0.327c-0.021,0.106-0.051,0.209-0.094,0.312c-0.043,0.1-0.094,0.196-0.154,0.287   c-0.06,0.091-0.13,0.175-0.206,0.251c-0.079,0.079-0.163,0.145-0.254,0.209c-0.091,0.058-0.188,0.109-0.287,0.151   c-0.1,0.042-0.206,0.073-0.312,0.094C33.577,59.959,33.468,59.968,33.359,59.968z"/><path d="M31.696,63.225c0-0.919,0.744-1.663,1.663-1.663l0,0c0.919,0,1.663,0.744,1.663,1.663l0,0c0,0.916-0.744,1.663-1.663,1.663   l0,0C32.44,64.889,31.696,64.141,31.696,63.225z"/><path d="M33.359,69.807c-0.109,0-0.218-0.012-0.324-0.033c-0.109-0.021-0.212-0.054-0.312-0.094   c-0.1-0.043-0.196-0.094-0.287-0.154c-0.091-0.06-0.179-0.13-0.254-0.206c-0.076-0.079-0.145-0.163-0.206-0.254   s-0.112-0.188-0.154-0.287c-0.043-0.1-0.073-0.206-0.094-0.312c-0.024-0.106-0.033-0.218-0.033-0.323   c0-0.439,0.178-0.868,0.487-1.177c0.076-0.076,0.163-0.148,0.254-0.209c0.088-0.058,0.184-0.109,0.287-0.151   c0.1-0.043,0.203-0.076,0.309-0.097c0.215-0.042,0.435-0.042,0.65,0c0.109,0.021,0.212,0.054,0.312,0.097   c0.103,0.042,0.197,0.094,0.287,0.151c0.091,0.061,0.175,0.133,0.254,0.209c0.309,0.309,0.487,0.738,0.487,1.177   c0,0.106-0.012,0.218-0.033,0.323c-0.021,0.106-0.051,0.212-0.094,0.312c-0.043,0.1-0.094,0.197-0.154,0.287   c-0.06,0.091-0.13,0.175-0.206,0.254C34.224,69.628,33.795,69.807,33.359,69.807z"/></g><path d="M31.588,45.564c0,0-0.539-3.676-2.975-4.229c-1.582-0.359-2.695,1.017-2.695,1.017s-1.034-3.46-3.926-2.986  c-3.105,0.508-6.176,6.198-6.176,6.198H31.588z"/><text x="0" y="115" fill="#000000" font-size="5px" font-weight="bold" font-family="'Helvetica Neue', Helvetica, Arial-Unicode, Arial, Sans-serif">Created by Luis Prado</text><text x="0" y="120" fill="#000000" font-size="5px" font-weight="bold" font-family="'Helvetica Neue', Helvetica, Arial-Unicode, Arial, Sans-serif">from the Noun Project</text></svg>