<svg xmlns="http://www.w3.org/2000/svg" viewBox="0 0 64 80" x="0px" y="0px"><g><path d="M50,38a11.735,11.735,0,0,0-5.153,1.191L42.606,36.95a7.009,7.009,0,0,1,0-9.9l2.237-2.236A11.822,11.822,0,0,0,50,26a12.075,12.075,0,1,0-10.81-6.847l-2.24,2.241a7.009,7.009,0,0,1-9.9,0l-2.235-2.236a12.054,12.054,0,1,0-5.657,5.657l2.236,2.235a7.009,7.009,0,0,1,0,9.9l-2.241,2.24A11.983,11.983,0,1,0,26,50a11.822,11.822,0,0,0-1.186-5.157l2.236-2.237a7.009,7.009,0,0,1,9.9,0l2.241,2.241A11.735,11.735,0,0,0,38,50,12,12,0,1,0,50,38ZM40,14A10,10,0,1,1,50,24a9.9,9.9,0,0,1-3.654-.689l3.332-3.332a4,4,0,0,0-5.657-5.657L40.7,17.648A10.015,10.015,0,0,1,40,14ZM14,24a10.005,10.005,0,1,1,9.308-6.349l-3.329-3.329a4,4,0,0,0-5.657,5.657l3.329,3.329A10.094,10.094,0,0,1,14,24ZM24,50a10.018,10.018,0,1,1-6.352-9.3l-3.326,3.326a4,4,0,0,0,5.657,5.657l3.332-3.332A9.9,9.9,0,0,1,24,50Zm1.636-8.808-7.071,7.072a2,2,0,1,1-2.829-2.829l7.072-7.071a9.01,9.01,0,0,0,0-12.728l-7.072-7.071a2,2,0,0,1,2.829-2.829l7.071,7.072a9.012,9.012,0,0,0,12.728,0l7.071-7.072a2,2,0,1,1,2.829,2.829l-7.072,7.071a9.01,9.01,0,0,0,0,12.728l7.072,7.071a2,2,0,1,1-2.829,2.829l-7.071-7.072A9.012,9.012,0,0,0,25.636,41.192ZM50,60A10.011,10.011,0,0,1,40,50a9.819,9.819,0,0,1,.692-3.651l3.329,3.329a4,4,0,0,0,5.657-5.657l-3.329-3.329A9.815,9.815,0,0,1,50,40a10,10,0,0,1,0,20Z"/><path d="M49,12a3,3,0,0,1,3,3,1,1,0,0,0,2,0,5.006,5.006,0,0,0-5-5,1,1,0,0,0,0,2Z"/><path d="M49,8a7.008,7.008,0,0,1,7,7,1,1,0,0,0,2,0,9.011,9.011,0,0,0-9-9,1,1,0,0,0,0,2Z"/><path d="M16,11a1,1,0,0,0-1-1,5.006,5.006,0,0,0-5,5,1,1,0,0,0,2,0,3,3,0,0,1,3-3A1,1,0,0,0,16,11Z"/><path d="M15,8a1,1,0,0,0,0-2,9.011,9.011,0,0,0-9,9,1,1,0,0,0,2,0A7.008,7.008,0,0,1,15,8Z"/><path d="M49,54a5.006,5.006,0,0,0,5-5,1,1,0,0,0-2,0,3,3,0,0,1-3,3,1,1,0,0,0,0,2Z"/><path d="M56,49a7.008,7.008,0,0,1-7,7,1,1,0,0,0,0,2,9.011,9.011,0,0,0,9-9,1,1,0,0,0-2,0Z"/><path d="M15,52a3,3,0,0,1-3-3,1,1,0,0,0-2,0,5.006,5.006,0,0,0,5,5,1,1,0,0,0,0-2Z"/><path d="M15,56a7.008,7.008,0,0,1-7-7,1,1,0,0,0-2,0,9.011,9.011,0,0,0,9,9,1,1,0,0,0,0-2Z"/><path d="M32,29a3,3,0,1,0,3,3A3,3,0,0,0,32,29Zm0,4a1,1,0,1,1,1-1A1,1,0,0,1,32,33Z"/></g><text x="0" y="79" fill="#000000" font-size="5px" font-weight="bold" font-family="'Helvetica Neue', Helvetica, Arial-Unicode, Arial, Sans-serif">Created by sripfoto</text><text x="0" y="84" fill="#000000" font-size="5px" font-weight="bold" font-family="'Helvetica Neue', Helvetica, Arial-Unicode, Arial, Sans-serif">from the Noun Project</text></svg>