<svg xmlns="http://www.w3.org/2000/svg" xmlns:xlink="http://www.w3.org/1999/xlink" version="1.1" x="0px" y="0px" viewBox="0 0 5000 6250" style="enable-background:new 0 0 5000 5000;" xml:space="preserve"><g><path d="M4132.58,1526.529c-11.138-4.219-23.767-1.028-31.662,7.876c-29.229,32.985-71.265,51.905-115.332,51.909   c-44.077,0.005-86.112-18.909-115.528-52.086c-40.088-45.237-97.754-71.178-158.197-71.175   c-60.444,0.005-118.1,25.956-158.281,71.302c-29.229,32.989-71.264,51.907-115.341,51.907h-0.009   c-44.086-0.002-86.14-18.937-115.369-51.947c-40.088-45.258-97.753-71.217-158.216-71.22c-0.009,0-0.009,0-0.019,0   c-60.443,0-118.119,25.951-158.281,71.29c-29.229,32.989-71.274,51.908-115.351,51.908c-44.077-0.001-86.122-18.921-115.444-52.014   c-40.087-45.25-97.753-71.2-158.206-71.197c-60.453,0.002-118.119,25.955-158.281,71.292   c-44.571,50.303-115.863,65.96-177.416,38.943c-8.864-3.885-19.079-3.042-27.169,2.246c-8.09,5.288-12.974,14.303-12.974,23.972   v316.552c0,15.813,12.816,28.633,28.633,28.633h1852.367c15.817,0,28.632-12.819,28.632-28.633v-362.879   C4151.137,1541.313,4143.699,1530.748,4132.58,1526.529z"/><path d="M2188.462,1662.581c0-236.365-120.915-450.667-323.44-573.259c-21.437-12.974-47.227-13.397-69.037-1.115   c-21.624,12.192-34.542,34.302-34.542,59.144v504.877c0,67.32-54.767,122.088-122.089,122.088h-241.392   c-67.322,0-122.089-54.768-122.089-122.088v-504.863c0-24.858-12.937-46.993-34.598-59.211   c-21.745-12.254-47.441-11.858-68.795,1.047c-215.22,130.178-338.661,367.193-322.145,618.548   c17.206,261.857,208.761,500.375,460.275,588.694v1595.688c0,15.813,12.816,28.633,28.633,28.633   c15.817,0,28.633-12.819,28.633-28.633V2313.677c11.343,2.845,22.751,5.494,34.281,7.72c15.547,2.992,30.543-7.163,33.535-22.688   c3.001-15.527-7.158-30.543-22.686-33.54c-270.612-52.224-487.947-293.476-505.535-561.172   c-15.099-229.93,97.8-446.731,294.649-565.793c4.744-2.88,8.948-1.339,11.026-0.168c2.041,1.15,5.462,3.894,5.462,9.33v504.863   c0,98.895,80.455,179.353,179.354,179.353h241.392c98.9,0,179.354-80.458,179.354-179.353v-504.877c0-5.407,3.383-8.12,5.397-9.256   c2.106-1.187,6.366-2.75,11.259,0.216c185.245,112.127,295.833,308.115,295.833,524.27c0,330.178-268.421,604.893-598.358,612.384   c-15.808,0.36-28.334,13.466-27.971,29.276c0.354,15.588,13.095,27.982,28.614,27.982c0.214,0,0.438-0.002,0.662-0.007   c46.379-1.053,91.611-7.011,135.287-17.229v1577.145c0,15.813,12.816,28.633,28.633,28.633s28.633-12.819,28.633-28.633V2298.871   C1993.803,2210.336,2188.462,1956.587,2188.462,1662.581z"/><path d="M2522.22,2061.584c-74.676,0-135.213,60.537-135.213,135.213v16.504l0,0h-218.37c-37.145,0-67.257,30.112-67.257,67.257   v22.918h-203.504c-15.817,0-28.633,12.819-28.633,28.633c0,15.813,12.816,28.633,28.633,28.633h203.504v1232.234h-260.378   c-15.817,0-28.633,12.819-28.633,28.633s12.816,28.633,28.633,28.633h260.378v22.911c0,37.149,30.115,67.264,67.264,67.264h218.363   l0,0v16.507c0,74.675,60.536,135.21,135.21,135.21h325.989c25.798,0,46.712-20.914,46.712-46.712V2108.297   c0-25.799-20.914-46.712-46.712-46.712H2522.22z M2387.007,3683.15h-218.37c-5.509,0-9.992-4.485-9.992-9.999V2280.565   c0-5.513,4.483-9.999,9.992-9.999h218.37l0,0V3683.15L2387.007,3683.15z M2751.867,3790.592c-28.016,0-50.818-22.798-50.818-50.821   c0-28.023,22.802-50.821,50.818-50.821c28.027,0,50.829,22.798,50.829,50.821   C2802.696,3767.794,2779.894,3790.592,2751.867,3790.592z M2751.867,3409.135c-28.016,0-50.818-22.798-50.818-50.82   c0-28.023,22.802-50.821,50.818-50.821c28.027,0,50.829,22.798,50.829,50.821   C2802.696,3386.337,2779.894,3409.135,2751.867,3409.135z M2751.867,3027.679c-28.016,0-50.818-22.798-50.818-50.821   c0-28.023,22.802-50.821,50.818-50.821c28.027,0,50.829,22.798,50.829,50.821   C2802.696,3004.881,2779.894,3027.679,2751.867,3027.679z M2751.867,2646.224c-28.016,0-50.818-22.798-50.818-50.821   c0-28.023,22.802-50.821,50.818-50.821c28.027,0,50.829,22.798,50.829,50.821   C2802.696,2623.425,2779.894,2646.224,2751.867,2646.224z M2751.867,2264.768c-28.016,0-50.818-22.798-50.818-50.821   s22.802-50.821,50.818-50.821c28.027,0,50.829,22.798,50.829,50.821S2779.894,2264.768,2751.867,2264.768z"/><path d="M3688.458,2638.327c0,15.813,12.816,28.633,28.633,28.633s28.633-12.819,28.633-28.633v-277.586h337.98   c15.817,0,28.633-12.819,28.633-28.633c0-15.813-12.815-28.633-28.633-28.633h-337.98v-22.911   c0-37.149-30.115-67.264-67.264-67.264h-218.373v-16.508c0-74.674-60.535-135.209-135.209-135.209h-325.981   c-25.798,0-46.712,20.914-46.712,46.712V3845.42c0,25.798,20.914,46.712,46.712,46.712h325.978   c74.676,0,135.213-60.537,135.213-135.213v-16.504h218.37c37.15,0,67.266-30.116,67.266-67.266v-22.909h337.98   c15.817,0,28.633-12.819,28.633-28.633s-12.815-28.633-28.633-28.633h-337.98v-819.438c0-15.813-12.816-28.633-28.633-28.633   s-28.633,12.819-28.633,28.633v899.614c0,5.522-4.477,9.999-9.999,9.999h-218.373V2270.567h218.37   c5.523,0,10.001,4.478,10.001,10.001V2638.327z M3095.226,3790.592c-28.016,0-50.818-22.798-50.818-50.821   c0-28.023,22.802-50.821,50.818-50.821s50.818,22.798,50.818,50.821C3146.044,3767.794,3123.242,3790.592,3095.226,3790.592z    M3095.226,3409.135c-28.016,0-50.818-22.798-50.818-50.82c0-28.023,22.802-50.821,50.818-50.821s50.818,22.798,50.818,50.821   C3146.044,3386.337,3123.242,3409.135,3095.226,3409.135z M3095.226,3027.679c-28.016,0-50.818-22.798-50.818-50.821   c0-28.023,22.802-50.821,50.818-50.821s50.818,22.798,50.818,50.821C3146.044,3004.881,3123.242,3027.679,3095.226,3027.679z    M3095.226,2646.224c-28.016,0-50.818-22.798-50.818-50.821c0-28.023,22.802-50.821,50.818-50.821s50.818,22.798,50.818,50.821   C3146.044,2623.425,3123.242,2646.224,3095.226,2646.224z M3095.226,2264.768c-28.016,0-50.818-22.798-50.818-50.821   s22.802-50.821,50.818-50.821s50.818,22.798,50.818,50.821S3123.242,2264.768,3095.226,2264.768z"/><path d="M877.868,2360.741h261.077c15.817,0,28.633-12.819,28.633-28.633c0-15.813-12.816-28.633-28.633-28.633H877.868   c-15.817,0-28.633,12.819-28.633,28.633C849.235,2347.922,862.051,2360.741,877.868,2360.741z"/><path d="M1205.623,3592.975H877.868c-15.817,0-28.633,12.819-28.633,28.633s12.816,28.633,28.633,28.633h327.756   c15.817,0,28.633-12.819,28.633-28.633S1221.44,3592.975,1205.623,3592.975z"/></g><text x="0" y="5015" fill="#000000" font-size="5px" font-weight="bold" font-family="'Helvetica Neue', Helvetica, Arial-Unicode, Arial, Sans-serif">Created by bsd studio</text><text x="0" y="5020" fill="#000000" font-size="5px" font-weight="bold" font-family="'Helvetica Neue', Helvetica, Arial-Unicode, Arial, Sans-serif">from the Noun Project</text></svg>