<svg xmlns="http://www.w3.org/2000/svg" viewBox="0 0 64 80" x="0px" y="0px"><title>oil-rig-energy-sea</title><path d="M54,18V15a1,1,0,0,0-1-1H49a1,1,0,0,0-1,1v5h2.132L41.465,33H38.878L35.991,10.871A1,1,0,0,0,35,10H33V7h3V5H28V7h3v3H29a1,1,0,0,0-.991.871L25.644,29H22.535L13.868,16H16a1,1,0,0,0,1-1V11a1,1,0,0,0-1-1H12a1,1,0,0,0-1,1v3H4v2H7V31.184a2.982,2.982,0,0,0,0,5.631V39H9V36.816a2.982,2.982,0,0,0,0-5.631V21.3L14.132,29H12v2h5V45H14a1,1,0,0,0-1,1v4a1,1,0,0,0,1,1h3v5.855c-.187.1-.376.194-.555.313a4.4,4.4,0,0,1-4.891,0L9.917,56.076A6.393,6.393,0,0,0,6.362,55H4v2H6.362a4.4,4.4,0,0,1,2.445.74l1.638,1.092a6.392,6.392,0,0,0,7.109,0,4.4,4.4,0,0,1,4.891,0,6.392,6.392,0,0,0,7.109,0,4.4,4.4,0,0,1,4.891,0,6.392,6.392,0,0,0,7.109,0,4.4,4.4,0,0,1,4.891,0,6.39,6.39,0,0,0,7.109,0l1.638-1.092A4.4,4.4,0,0,1,57.638,57H60V55H57.638a6.393,6.393,0,0,0-3.555,1.076l-1.638,1.092a4.4,4.4,0,0,1-4.891,0c-.179-.119-.368-.214-.555-.313V51h3a1,1,0,0,0,1-1V46a1,1,0,0,0-1-1H47V35h5V33H49.868L55,25.3v9.882a2.982,2.982,0,0,0,0,5.631V43h2V40.816a2.982,2.982,0,0,0,0-5.631V20h3V18H54Zm-4-2h2v2H50ZM27.4,31H31v2H27.139ZM33,26h2.948l.391,3H33Zm0-2V21h2.3l.391,3Zm2.035-5H33V16h1.644ZM31,19H28.965l.391-3H31Zm0,2v3H28.313l.391-3Zm0,5v3H27.66l.391-3Zm2,5h3.6l.261,2H33Zm1.122-19,.261,2H33V12ZM31,12v2H29.617l.261-2ZM25.122,33H19V31h6.383ZM19,39h2v2H19ZM13,12h2v2H13ZM8,35a1,1,0,1,1,1-1A1,1,0,0,1,8,35ZM9,16h2.465l5.757,8.635-2.84,1.136L9,17.7Zm7.535,13-1.019-1.529,2.84-1.136L20.132,29h-3.6ZM19,56.172V51h2v5.172A6.375,6.375,0,0,0,19,56.172Zm4.555,1c-.179-.119-.368-.214-.555-.313V51h6v5.855c-.187.1-.376.194-.555.313A4.4,4.4,0,0,1,23.555,57.168Zm7.445-1V51h2v5.172A6.375,6.375,0,0,0,31,56.172Zm4.555,1c-.179-.119-.368-.214-.555-.313V51h6v5.855c-.187.1-.376.194-.555.313A4.4,4.4,0,0,1,35.555,57.168Zm9.445-1a6.375,6.375,0,0,0-2,0V51h2ZM49,47v2H15V47H49ZM19,45V43h3a1,1,0,0,0,1-1V38a1,1,0,0,0-1-1H19V35H45v2H34a1,1,0,0,0-1,1v4a1,1,0,0,0,1,1H45v2Zm26-4H35V39H45Zm2-8H43.868l1.673-2.509,2.569,1.542L47.465,33Zm9,6a1,1,0,1,1,1-1A1,1,0,0,1,56,39ZM55,21.7l-5.779,8.669-2.569-1.541L52.535,20H55Z"/><path d="M30,37H26a1,1,0,0,0-1,1v4a1,1,0,0,0,1,1h4a1,1,0,0,0,1-1V38A1,1,0,0,0,30,37Zm-1,4H27V39h2Z"/><text x="0" y="79" fill="#000000" font-size="5px" font-weight="bold" font-family="'Helvetica Neue', Helvetica, Arial-Unicode, Arial, Sans-serif">Created by Ninejipjip</text><text x="0" y="84" fill="#000000" font-size="5px" font-weight="bold" font-family="'Helvetica Neue', Helvetica, Arial-Unicode, Arial, Sans-serif">from the Noun Project</text></svg>