<svg width="94" height="100" viewBox="0 0 94 100" fill="none" xmlns="http://www.w3.org/2000/svg">
<path d="M76.4859 84.0388C77.7698 84.1182 79.0088 84.5348 79.8506 85.2004L80.9925 86.1031C82.1102 86.986 83.5719 87.426 85.0346 87.426C86.5242 87.426 88.0138 86.9697 89.1432 86.058L93.665 82.4075C94.0514 82.0954 94.1125 81.5273 93.8016 81.1395C93.4907 80.7517 92.9238 80.6886 92.5384 81.0024L88.0165 84.653C86.4209 85.9417 83.713 85.9552 82.103 84.6863L80.9611 83.7836C79.8003 82.8674 78.175 82.3173 76.4859 82.2343V74.4292H79.5892C79.7922 74.4292 79.9881 74.3606 80.1471 74.2335L87.8638 68.0885C88.0785 67.9181 88.2043 67.6574 88.2043 67.3824V60.6188C88.2043 60.121 87.8027 59.717 87.3059 59.717H81.7984L79.7464 17.2273C80.6772 16.3715 81.4417 15.3416 81.9925 14.1864H87.4622C87.959 14.1864 88.3606 13.7824 88.3606 13.2846V3.81466C88.3606 3.31686 87.959 2.91285 87.4622 2.91285H80.0707C78.281 1.11464 75.8094 0 73.0826 0C70.3559 0 67.8843 1.11464 66.0946 2.91285H17.3793C17.169 2.91285 16.9849 2.99672 16.8312 3.11846C15.8088 2.4412 14.5869 2.04441 13.2734 2.04441C9.7012 2.04441 6.79564 4.96176 6.79564 8.54827C6.79564 10.0344 7.30056 11.4016 8.13881 12.4982C7.8576 12.6506 7.65994 12.9392 7.65994 13.2819V21.3143C7.65994 21.3152 7.66084 21.3161 7.66084 21.317C7.66084 21.4216 7.6851 21.5244 7.72193 21.6245C7.73182 21.6507 7.7417 21.6759 7.75428 21.7003C7.76506 21.7237 7.77135 21.749 7.78393 21.7715L12.3741 29.5911V33.9351C12.3741 34.2634 12.5511 34.5655 12.8377 34.7242C13.4989 35.0913 15.3811 36.4332 15.3596 37.7408C15.3416 38.8121 13.9931 39.7266 12.8646 40.3046C12.7577 40.3596 12.6867 40.4083 12.6095 40.5012C12.5915 40.5175 12.4388 40.6599 12.1225 40.6374C11.7748 40.6131 10.8 40.3407 9.26995 38.3459C8.96807 37.9509 8.40295 37.8779 8.01033 38.1809C7.61682 38.4848 7.54404 39.0511 7.84682 39.4452C9.35081 41.4066 10.7937 42.4149 12.1351 42.4419C12.1539 42.4419 12.1719 42.4428 12.1908 42.4428C13.0084 42.4428 13.5483 42.074 13.8017 41.8485C16.002 40.6933 17.1304 39.3217 17.1565 37.7705C17.1915 35.6567 15.1422 34.0632 14.1718 33.4292V29.5911L18.7629 21.7715C18.7764 21.749 18.7817 21.7237 18.7925 21.7003C18.8051 21.675 18.815 21.6498 18.8249 21.6236C18.8617 21.5235 18.886 21.4207 18.886 21.3161C18.886 21.3152 18.8869 21.3143 18.8869 21.3134V14.1828H64.1719C64.7226 15.338 65.4872 16.3679 66.418 17.2237L64.3669 59.7143H58.3518V39.7987H61.7928C62.2897 39.7987 62.6913 39.3947 62.6913 38.8969V30.7788C62.6913 30.281 62.2897 29.877 61.7928 29.877H22.2488C21.752 29.877 21.3504 30.281 21.3504 30.7788V38.8969C21.3504 39.3947 21.752 39.7987 22.2488 39.7987H25.6881V47.6778V54.1096V59.7152H7.85221C7.35537 59.7152 6.95377 60.1192 6.95377 60.617V67.3806C6.95377 67.6556 7.07955 67.9163 7.29427 68.0867L15.011 74.2317C15.17 74.3588 15.3668 74.4273 15.5689 74.4273H18.6721V80.3595C18.3963 80.2747 18.0899 80.3072 17.8483 80.5028L13.3264 84.1534C11.7308 85.4421 9.02288 85.4556 7.41287 84.1867L6.27095 83.284C4.89364 82.1973 2.86316 81.6166 0.84706 81.732C0.351121 81.7609 -0.0280216 82.1865 0.00162695 82.6843C0.0294786 83.1812 0.451746 83.5618 0.949483 83.5329C2.52086 83.4346 4.13446 83.89 5.16137 84.7008L6.30329 85.6035C7.42095 86.4864 8.88272 86.9264 10.3454 86.9264C11.835 86.9264 13.3246 86.4701 14.454 85.5584L18.673 82.1523V96.5452C17.1834 96.666 15.612 96.4297 14.4908 95.8138L3.56934 89.8122C3.13359 89.5733 2.58734 89.7329 2.35015 90.1703C2.11117 90.6067 2.27109 91.155 2.70594 91.394L13.6274 97.3956C16.0819 98.7447 19.9165 98.723 22.3557 97.346L32.8163 91.4391C34.6761 90.3894 37.738 90.5193 39.5025 91.7223L47.2192 96.9825C49.5543 98.5751 53.3322 98.7735 55.8218 97.4307L63.0551 93.5313C64.9185 92.5267 67.8986 92.7855 69.5625 94.0994L75.3611 98.677C76.4788 99.5599 77.9405 100 79.4032 100C80.8928 100 82.3824 99.5437 83.5117 98.632L92.5869 91.3056C92.9732 90.9936 93.0343 90.4255 92.7235 90.0377C92.4126 89.6499 91.8457 89.5868 91.4603 89.9006L82.3851 97.2269C80.7895 98.5147 78.0816 98.53 76.4716 97.2594L76.4392 97.2341C76.4608 97.1566 76.4877 97.0799 76.4877 96.9952V84.0388H76.4859ZM67.48 32.5139H77.7258L66.7846 46.9059L67.48 32.5139ZM78.7635 34.1236L79.4751 48.8547H67.5644L78.7635 34.1236ZM78.5982 30.7103H68.3425L76.2182 19.3195C76.8462 19.1085 77.4446 18.8343 78.0097 18.507L78.5982 30.7103ZM82.8226 11.5342L84.1272 12.3801H82.6457C82.7166 12.1023 82.7759 11.8209 82.8226 11.5342ZM86.2763 4.71647V11.6252L82.943 9.4645C82.864 7.72762 82.3411 6.10977 81.4813 4.71647H86.2763ZM63.6068 7.1216L59.8962 4.71647H64.684C64.2258 5.46046 63.8583 6.26488 63.6068 7.1216ZM13.2734 15.0521C14.5869 15.0521 15.8088 14.6553 16.8312 13.979C16.9094 14.0412 16.9947 14.0917 17.0909 14.126V20.4134H9.45682V13.7923C10.5287 14.5796 11.8458 15.0521 13.2734 15.0521ZM18.4978 12.3801C19.284 11.3042 19.7539 9.98124 19.7539 8.54827C19.7539 7.11529 19.284 5.79323 18.4987 4.71647H22.1455L33.9672 12.3801H18.4978ZM25.4572 4.71647H36.1163V11.6261L25.4572 4.71647ZM37.9141 4.71647H40.4504L52.2729 12.3801H37.9141V4.71647ZM43.762 4.71647H54.4211V11.6261L43.762 4.71647ZM13.2734 3.84803C15.8564 3.84803 17.9579 5.95646 17.9579 8.54827C17.9579 11.1401 15.8564 13.2485 13.2734 13.2485C10.6922 13.2485 8.59252 11.1401 8.59252 8.54827C8.59252 5.95646 10.6922 3.84803 13.2734 3.84803ZM13.2734 27.5702L10.1307 22.2161H16.417L13.2734 27.5702ZM56.2189 12.3801V4.71647H56.5846L63.2447 9.03434C63.2187 9.32653 63.1998 9.62142 63.1998 9.91992C63.1998 10.7703 63.3184 11.5919 63.5196 12.3801H56.2189ZM64.9967 9.91992C64.9967 5.44513 68.6237 1.80362 73.0826 1.80362C77.5003 1.80362 81.0958 5.3784 81.1623 9.79727C81.1497 9.86401 81.1614 9.93074 81.165 9.99838C81.1219 14.4371 77.5146 18.0371 73.0826 18.0371C68.6237 18.0362 64.9967 14.3956 64.9967 9.91992ZM73.0826 19.8398C73.2884 19.8398 73.4896 19.8209 73.6927 19.8092L67.6731 28.5153L68.1565 18.507C69.6084 19.3502 71.2876 19.8398 73.0826 19.8398ZM66.604 50.6583H79.5613L79.9988 59.7143H66.1664L66.604 50.6583ZM23.1473 31.6806H60.8944V37.9951H57.4534H26.5865H23.1473V31.6806ZM56.5549 39.7987V46.776H27.4849V39.7987H56.5549ZM27.4849 48.5787H55.9512V53.2068H27.4849V48.5787ZM27.4849 55.0105H56.554V59.7143H47.5786H27.4849V55.0105ZM8.75065 66.945V61.5179H26.5874H47.5795H57.4534H65.2231H80.9422H86.4074V66.945L79.2756 72.6237H47.5786H15.8816L8.75065 66.945ZM21.4735 95.7741C21.1716 95.9445 20.8275 96.078 20.469 96.1953V74.4273H26.8174V92.3968C26.8174 92.5114 26.8435 92.6196 26.8821 92.7197L21.4735 95.7741ZM62.2025 91.9432L54.9692 95.8427C53.0842 96.8599 49.9981 96.6985 48.2264 95.4909L40.5097 90.2307C38.1701 88.6336 34.4029 88.474 31.9331 89.8673L28.6143 91.7412V74.4264H47.5786H66.5429V84.5547C65.5663 84.4059 64.6651 84.0884 63.9994 83.6339L61.7668 82.1117C59.4272 80.5146 55.6592 80.3568 53.1903 81.7491L49.3512 83.9171C47.4627 84.9821 44.2651 84.9993 42.3685 83.9568L36.8278 80.9123C36.3921 80.6733 35.8458 80.8338 35.6087 81.2694C35.3697 81.7068 35.5296 82.2542 35.9644 82.4931L41.5051 85.5377C42.7171 86.2032 44.2633 86.5351 45.8131 86.5351C47.4043 86.5351 48.9972 86.1852 50.2326 85.4872L54.0716 83.3192C55.9314 82.2704 58.9933 82.3994 60.7578 83.6015L62.9904 85.1237C63.9491 85.7775 65.1952 86.1969 66.5429 86.3628V91.1397C65.0191 91.0089 63.4594 91.2651 62.2025 91.9432ZM70.6721 92.6818C69.992 92.1452 69.1681 91.7593 68.2913 91.4959C68.3146 91.4157 68.3416 91.3363 68.3416 91.2497V74.4273H74.69V95.8535L70.6721 92.6818Z" fill="#0184C1"/>
</svg>
