<svg width="117" height="100" viewBox="0 0 117 100" fill="none" xmlns="http://www.w3.org/2000/svg">
<path d="M116.343 15.7413C115.948 15.5928 115.501 15.7051 115.221 16.0185C114.186 17.1793 112.696 17.8451 111.135 17.8453C109.573 17.8455 108.084 17.1798 107.042 16.0123C105.621 14.4203 103.578 13.5073 101.437 13.5074C99.2952 13.5076 97.2525 14.4209 95.8288 16.0167C94.7933 17.1777 93.3039 17.8435 91.7423 17.8435H91.742C90.18 17.8434 88.69 17.177 87.6544 16.0153C86.2341 14.4226 84.191 13.509 82.0488 13.5089C82.0485 13.5089 82.0485 13.5089 82.0481 13.5089C79.9066 13.5089 77.8632 14.4222 76.4402 16.0178C75.4046 17.1787 73.915 17.8445 72.3533 17.8445C70.7917 17.8445 69.302 17.1787 68.2631 16.0141C66.8428 14.4216 64.7997 13.5084 62.6579 13.5085C60.516 13.5085 58.4729 14.4219 57.0499 16.0174C55.4708 17.7877 52.9449 18.3387 50.7641 17.3879C50.45 17.2512 50.0881 17.2808 49.8015 17.4669C49.5148 17.653 49.3418 17.9703 49.3418 18.3106V29.4508C49.3418 30.0072 49.7959 30.4584 50.3563 30.4584H115.986C116.546 30.4584 117 30.0073 117 29.4508V16.6802C117 16.2616 116.737 15.8898 116.343 15.7413Z" fill="#0184C1"/>
<path d="M47.4622 20.5293C47.4622 12.2111 43.1781 4.66927 36.0027 0.35498C35.2431 -0.101605 34.3294 -0.116491 33.5567 0.31574C32.7905 0.744805 32.3328 1.5229 32.3328 2.39715V20.1649C32.3328 22.5341 30.3924 24.4615 28.0072 24.4615H19.4547C17.0694 24.4615 15.129 22.5341 15.129 20.1649V2.39764C15.129 1.52283 14.6707 0.743856 13.9032 0.313876C13.1328 -0.11737 12.2224 -0.103434 11.4658 0.350722C3.84051 4.93198 -0.533018 13.2731 0.0521465 22.1188C0.661758 31.3342 7.44858 39.7282 16.3598 42.8363V98.9923C16.3598 99.5488 16.8138 99.9999 17.3742 99.9999C17.9346 99.9999 18.3887 99.5488 18.3887 98.9923V43.4428C18.7906 43.543 19.1948 43.6362 19.6033 43.7145C20.1541 43.8198 20.6854 43.4624 20.7914 42.9161C20.8978 42.3697 20.5378 41.8412 19.9877 41.7357C10.3998 39.8979 2.69963 31.4076 2.07648 21.9868C1.54152 13.895 5.54155 6.26531 12.5159 2.07525C12.684 1.97389 12.833 2.02813 12.9066 2.06934C12.9789 2.10981 13.1001 2.20637 13.1001 2.39768V20.165C13.1001 23.6453 15.9506 26.4768 19.4547 26.4768H28.0072C31.5112 26.4768 34.3617 23.6453 34.3617 20.165V2.39719C34.3617 2.2069 34.4816 2.11142 34.553 2.07145C34.6276 2.02967 34.7785 1.97467 34.9519 2.07905C41.5151 6.02506 45.4333 12.9223 45.4333 20.5293C45.4333 32.149 35.9231 41.8169 24.2334 42.0805C23.6733 42.0932 23.2295 42.5544 23.2423 43.1108C23.2549 43.6594 23.7063 44.0956 24.2561 44.0956C24.2637 44.0956 24.2717 44.0955 24.2796 44.0953C25.9228 44.0583 27.5254 43.8486 29.0728 43.489V98.9923C29.0728 99.5488 29.5269 100 30.0873 100C30.6477 100 31.1018 99.5489 31.1018 98.9923V42.9218C40.5654 39.806 47.4622 30.876 47.4622 20.5293Z" fill="#0184C1"/>
<path d="M59.2868 34.5712C56.6411 34.5712 54.4962 36.7016 54.4962 39.3296V39.9104H46.7593C45.4433 39.9104 44.3764 40.9702 44.3764 42.2774V43.0839H37.1662C36.6058 43.0839 36.1518 43.535 36.1518 44.0916C36.1518 44.6481 36.6058 45.0992 37.1662 45.0992H44.3764V88.4644H35.1512C34.5908 88.4644 34.1367 88.9155 34.1367 89.472C34.1367 90.0286 34.5908 90.4797 35.1512 90.4797H44.3764V91.286C44.3764 92.5933 45.4434 93.6532 46.7596 93.6532H54.4962V94.2341C54.4962 96.8621 56.641 98.9924 59.2867 98.9924H70.8366C71.7506 98.9924 72.4916 98.2564 72.4916 97.3485V36.2151C72.4916 35.3072 71.7506 34.5712 70.8366 34.5712L59.2868 34.5712ZM54.4962 91.6378H46.7593C46.5642 91.6378 46.4053 91.48 46.4053 91.2859V42.2776C46.4053 42.0836 46.5642 41.9257 46.7593 41.9257H54.4962V91.6378ZM67.4233 95.4189C66.4307 95.4189 65.6228 94.6166 65.6228 93.6304C65.6228 92.6442 66.4307 91.8419 67.4233 91.8419C68.4163 91.8419 69.2241 92.6442 69.2241 93.6304C69.2241 94.6166 68.4163 95.4189 67.4233 95.4189ZM67.4233 81.9946C66.4307 81.9946 65.6228 81.1923 65.6228 80.2061C65.6228 79.2199 66.4307 78.4176 67.4233 78.4176C68.4163 78.4176 69.2241 79.2199 69.2241 80.2061C69.2241 81.1923 68.4163 81.9946 67.4233 81.9946ZM67.4233 68.5703C66.4307 68.5703 65.6228 67.768 65.6228 66.7818C65.6228 65.7956 66.4307 64.9933 67.4233 64.9933C68.4163 64.9933 69.2241 65.7956 69.2241 66.7818C69.2241 67.768 68.4163 68.5703 67.4233 68.5703ZM67.4233 55.146C66.4307 55.146 65.6228 54.3437 65.6228 53.3575C65.6228 52.3713 66.4307 51.569 67.4233 51.569C68.4163 51.569 69.2241 52.3713 69.2241 53.3575C69.2241 54.3436 68.4163 55.146 67.4233 55.146ZM67.4233 41.7217C66.4307 41.7217 65.6228 40.9194 65.6228 39.9332C65.6228 38.947 66.4307 38.1447 67.4233 38.1447C68.4163 38.1447 69.2241 38.947 69.2241 39.9332C69.2241 40.9194 68.4163 41.7217 67.4233 41.7217Z" fill="#0184C1"/>
<path d="M100.607 54.868C100.607 55.4245 101.061 55.8756 101.621 55.8756C102.182 55.8756 102.636 55.4245 102.636 54.868V45.0991H114.61C115.171 45.0991 115.625 44.648 115.625 44.0914C115.625 43.5349 115.171 43.0838 114.61 43.0838H102.636V42.2775C102.636 40.9701 101.569 39.9103 100.253 39.9103H92.5155V39.3294C92.5155 36.7014 90.3708 34.571 87.7251 34.571H76.1755C75.2615 34.571 74.5205 35.3071 74.5205 36.2149V97.3484C74.5205 98.2562 75.2615 98.9923 76.1755 98.9923H87.725C90.3707 98.9923 92.5156 96.8618 92.5156 94.2338V93.653H100.252C101.569 93.653 102.636 92.5931 102.636 91.2857V90.4795H114.61C115.171 90.4795 115.625 90.0284 115.625 89.4719C115.625 88.9153 115.171 88.4642 114.61 88.4642H102.636V59.6263C102.636 59.0698 102.182 58.6186 101.621 58.6186C101.061 58.6186 100.607 59.0698 100.607 59.6263V91.2858C100.607 91.4801 100.448 91.6377 100.252 91.6377H92.5155V41.9257H100.252C100.448 41.9257 100.607 42.0833 100.607 42.2776L100.607 54.868ZM79.5885 95.4188C78.5959 95.4188 77.788 94.6165 77.788 93.6303C77.788 92.6441 78.5959 91.8418 79.5885 91.8418C80.5811 91.8418 81.389 92.6441 81.389 93.6303C81.389 94.6165 80.5811 95.4188 79.5885 95.4188ZM79.5885 81.9945C78.5959 81.9945 77.788 81.1922 77.788 80.206C77.788 79.2198 78.5959 78.4175 79.5885 78.4175C80.5811 78.4175 81.389 79.2198 81.389 80.206C81.389 81.1922 80.5811 81.9945 79.5885 81.9945ZM79.5885 68.5702C78.5959 68.5702 77.788 67.7679 77.788 66.7817C77.788 65.7955 78.5959 64.9932 79.5885 64.9932C80.5811 64.9932 81.389 65.7955 81.389 66.7817C81.389 67.7679 80.5811 68.5702 79.5885 68.5702ZM79.5885 55.1459C78.5959 55.1459 77.788 54.3436 77.788 53.3574C77.788 52.3712 78.5959 51.5689 79.5885 51.5689C80.5811 51.5689 81.389 52.3712 81.389 53.3574C81.389 54.3436 80.5811 55.1459 79.5885 55.1459ZM79.5885 41.7216C78.5959 41.7216 77.788 40.9193 77.788 39.9331C77.788 38.9469 78.5959 38.1446 79.5885 38.1446C80.5811 38.1446 81.389 38.9469 81.389 39.9331C81.389 40.9193 80.5811 41.7216 79.5885 41.7216Z" fill="#0184C1"/>
<path d="M1.02717 45.0992H10.2772C10.8376 45.0992 11.2916 44.648 11.2916 44.0915C11.2916 43.535 10.8376 43.0839 10.2772 43.0839H1.02717C0.466768 43.0839 0.0126953 43.535 0.0126953 44.0915C0.0126953 44.648 0.466768 45.0992 1.02717 45.0992Z" fill="#0184C1"/>
<path d="M12.6396 88.4642H1.02717C0.466768 88.4642 0.0126953 88.9154 0.0126953 89.4719C0.0126953 90.0284 0.466768 90.4796 1.02717 90.4796H12.6396C13.2 90.4796 13.6541 90.0284 13.6541 89.4719C13.6541 88.9154 13.2 88.4642 12.6396 88.4642Z" fill="#0184C1"/>
</svg>
