<svg width="123" height="100" viewBox="0 0 123 100" fill="none" xmlns="http://www.w3.org/2000/svg">
<path d="M0.360838 19.3456C0.803084 19.7335 1.47419 19.6935 1.86695 19.2564C2.94009 18.0498 4.48332 17.3572 6.10386 17.3572C7.72131 17.3572 9.26762 18.0498 10.3408 19.2564C11.819 20.9155 13.9437 21.8697 16.1735 21.8697C18.4033 21.8697 20.5279 20.9185 22.0062 19.2564C23.0793 18.0498 24.6225 17.3572 26.2431 17.3572C27.8605 17.3572 29.4068 18.0498 30.48 19.2564C31.9583 20.9155 34.0829 21.8697 36.3127 21.8697C38.5425 21.8697 40.6671 20.9185 42.1485 19.2533C43.2216 18.0467 44.7649 17.3572 46.3854 17.3572C48.0029 17.3572 49.5492 18.0498 50.6192 19.2533L50.6254 19.2595C52.1037 20.9185 54.2283 21.8727 56.4581 21.8727C58.6879 21.8727 60.8125 20.9216 62.2939 19.2564C63.3671 18.0498 64.9103 17.3603 66.5308 17.3572C68.1514 17.3541 69.6946 18.0498 70.7677 19.2564L70.7708 19.2595C72.2491 20.9185 74.3737 21.8727 76.6035 21.8727C78.8333 21.8727 80.958 20.9216 82.4331 19.2625L82.4393 19.2564C83.5125 18.0498 85.0557 17.3603 86.6762 17.3603C88.2937 17.3603 89.84 18.0529 90.9131 19.2595C92.3914 20.9185 94.5161 21.8727 96.7458 21.8727C98.9756 21.8727 101.1 20.9216 102.579 19.2595L102.582 19.2564C103.655 18.0498 105.198 17.3603 106.819 17.3603C108.436 17.3603 109.982 18.0529 111.052 19.2564L111.062 19.2656C112.54 20.9247 114.665 21.8758 116.894 21.8758C119.124 21.8758 121.249 20.9247 122.727 19.2625C123.117 18.8224 123.077 18.1544 122.637 17.7635C122.195 17.3757 121.524 17.4157 121.131 17.8528C120.058 19.0594 118.515 19.7489 116.894 19.7489C115.277 19.7489 113.731 19.0563 112.661 17.8528L112.651 17.8435C111.173 16.1845 109.048 15.2303 106.819 15.2334C104.589 15.2334 102.464 16.1845 100.986 17.8466L100.983 17.8497C99.9096 19.0563 98.3664 19.7458 96.7458 19.7458C95.1284 19.7458 93.5821 19.0532 92.5089 17.8466C92.5089 17.8466 92.5089 17.8466 92.5059 17.8435C91.0276 16.1845 88.9029 15.2303 86.6731 15.2303C84.4434 15.2303 82.3187 16.1814 80.8435 17.8405L80.8373 17.8466C79.7642 19.0532 78.221 19.7427 76.6004 19.7427C74.983 19.7427 73.4367 19.0501 72.3635 17.8435L72.3604 17.8405C70.8822 16.1814 68.7575 15.2272 66.5277 15.2272C64.2979 15.2272 62.1733 16.1783 60.6919 17.8435C59.6188 19.0501 58.0756 19.7396 56.455 19.7396C54.8376 19.7396 53.2913 19.0471 52.2212 17.8435L52.215 17.8374C50.7367 16.1783 48.6121 15.2241 46.3823 15.2241C44.1525 15.2241 42.0279 16.1752 40.5465 17.8405C39.4734 19.0471 37.9301 19.7396 36.3096 19.7366C34.6922 19.7366 33.1458 19.044 32.0727 17.8374L32.0696 17.8343C30.5913 16.1752 28.4667 15.2241 26.2369 15.2241C24.0071 15.2241 21.8825 16.1752 20.4042 17.8374C19.3311 19.044 17.7878 19.7366 16.1673 19.7366C14.5498 19.7366 13.0035 19.044 11.9304 17.8374C10.4521 16.1783 8.32746 15.2241 6.09767 15.2241C3.86788 15.2241 1.74325 16.1752 0.264967 17.8374C-0.121612 18.2868 -0.0814088 18.9578 0.360838 19.3456Z" fill="#0184C1"/>
<path d="M75.6324 69.9489V68.1544L86.5618 58.8248C87.0102 58.9264 87.4772 58.9787 87.9565 58.9787C89.8863 58.9787 91.6151 58.1138 92.7718 56.7502H105.312L109.942 61.358C110.143 61.5581 110.412 61.6689 110.697 61.6689H117.275C117.556 61.6689 117.828 61.5581 118.029 61.358L122.681 56.7286C123.098 56.3131 123.098 55.6421 122.681 55.2265C122.263 54.811 121.589 54.811 121.171 55.2265L116.836 59.5451H112.512V45.86H116.836L121.174 50.1785C121.592 50.5941 122.266 50.5941 122.684 50.1785C123.101 49.763 123.101 49.092 122.684 48.6764L118.032 44.047C117.831 43.847 117.562 43.7361 117.278 43.7361H110.697C110.415 43.7361 110.143 43.847 109.942 44.047L105.312 48.6549H92.7718C91.6151 47.2944 89.8863 46.4264 87.9565 46.4264C84.5886 46.4264 81.83 49.0674 81.6599 52.3763L75.6324 57.7598V50.4986C75.6324 48.2055 74.7355 46.0508 73.1057 44.4318C71.4759 42.8097 69.311 41.917 67.0101 41.917H65.1731L64.0443 39.1437C63.5402 37.9032 62.6835 36.8505 61.5671 36.1026C60.4506 35.3546 59.1517 34.9575 57.8064 34.9575H38.8857V25.3478C38.8857 24.763 38.4094 24.2859 37.8188 24.2859C37.2281 24.2859 36.7518 24.7599 36.7518 25.3478V34.9575H17.8311C16.4858 34.9575 15.1838 35.3515 14.0704 36.1026C12.954 36.8505 12.0973 37.9032 11.5932 39.1437L10.4644 41.917H8.62739C6.32338 41.917 4.15853 42.8097 2.53181 44.4318C0.901991 46.0539 0.00512695 48.2086 0.00512695 50.4986V69.9489C0.00512695 71.4048 0.382429 72.8484 1.09064 74.1197L13.0901 95.5891C14.6116 98.3101 17.4971 100 20.6237 100H55.02C58.1466 100 61.0352 98.3101 62.5536 95.5891L70.3625 81.6147L81.6661 91.3076C81.8424 94.6103 84.601 97.2421 87.9627 97.2421C89.8925 97.2421 91.6213 96.3771 92.7779 95.0135H105.319L109.948 99.6214C110.149 99.8215 110.418 99.9323 110.703 99.9323H117.281C117.562 99.9323 117.834 99.8215 118.035 99.6214L122.687 94.992C123.104 94.5765 123.104 93.9054 122.687 93.4899C122.269 93.0744 121.595 93.0744 121.178 93.4899L116.839 97.8084H112.515V84.1234H116.839L121.178 88.4419C121.595 88.8574 122.269 88.8574 122.687 88.4419C123.104 88.0263 123.104 87.3553 122.687 86.9398L118.035 82.3104C117.834 82.1103 117.565 81.9995 117.281 81.9995H110.697C110.415 81.9995 110.143 82.1103 109.942 82.3104L105.312 86.9182H92.7718C91.6151 85.5577 89.8863 84.6897 87.9565 84.6897C87.4772 84.6897 87.0102 84.7451 86.5587 84.8467L74.3551 74.4613L74.5469 74.1197C75.2582 72.8454 75.6324 71.4048 75.6324 69.9489ZM110.378 46.6172V58.7879L107.112 55.5374V49.8676L110.378 46.6172ZM104.978 50.7787V54.6263H93.9593C94.1573 54.0199 94.2624 53.3736 94.2624 52.7025C94.2624 52.0315 94.1542 51.3851 93.9593 50.7787H104.978ZM87.9596 48.5502C90.2605 48.5502 92.1316 50.4125 92.1316 52.7025C92.1316 54.9926 90.2605 56.8548 87.9596 56.8548C85.702 56.8548 83.8588 55.0603 83.7907 52.8318C83.7907 52.8226 83.7907 52.8133 83.7907 52.8041C83.7907 52.7703 83.7907 52.7364 83.7907 52.7056C83.7877 50.4125 85.6587 48.5502 87.9596 48.5502ZM82.0465 54.8849C82.5042 56.1069 83.333 57.1503 84.3938 57.8768L75.6324 65.3564V60.6131L82.0465 54.8849ZM13.5663 39.9409C14.2745 38.2049 15.9477 37.0814 17.828 37.0814H57.8033C59.6868 37.0814 61.3599 38.2049 62.0681 39.9409L62.8722 41.9201H12.7622L13.5663 39.9409ZM60.6857 94.5549C59.5414 96.6018 57.3673 97.8731 55.0138 97.8731H20.6206C18.2671 97.8731 16.093 96.6018 14.9487 94.5549L2.94931 73.0854C2.41429 72.1282 2.12977 71.0416 2.12977 69.9458V50.4986C2.12977 46.9373 5.03993 44.0409 8.61811 44.0409H67.0101C70.5883 44.0409 73.4985 46.9373 73.4985 50.4986V69.9489C73.4985 71.0447 73.217 72.1312 72.6789 73.0885L60.6857 94.5549ZM110.378 84.8775V97.0481L107.112 93.7977V88.1279L110.378 84.8775ZM104.978 89.039V92.8866H93.9593C94.1573 92.2802 94.2624 91.6338 94.2624 90.9628C94.2624 90.2918 94.1542 89.6454 93.9593 89.039H104.978ZM92.1316 90.9628C92.1316 93.2529 90.2605 95.1151 87.9596 95.1151C85.6587 95.1151 83.7877 93.2529 83.7877 90.9628C83.7877 90.929 83.7877 90.8951 83.7877 90.8582C83.7877 90.8459 83.7877 90.8366 83.7877 90.8243C83.8588 88.5989 85.702 86.8074 87.9565 86.8074C90.2574 86.8105 92.1316 88.6758 92.1316 90.9628ZM84.3938 85.7917C83.3207 86.5273 82.4887 87.5831 82.0341 88.8174L71.4171 79.7156L73.2974 76.3482L84.3938 85.7917Z" fill="#0184C1"/>
<path d="M59.795 56.3962H15.8394C12.6818 56.3962 10.1118 58.9541 10.1118 62.0968V69.7519C10.1118 70.7185 10.3623 71.6788 10.8355 72.5222L13.0096 76.4129C13.0127 76.4159 13.0127 76.4221 13.0158 76.4252L19.866 88.6851C20.8773 90.4919 22.7947 91.6154 24.8699 91.6154H50.7614C52.8396 91.6154 54.7571 90.4919 55.7653 88.6851L62.6155 76.4252C62.6185 76.4221 62.6185 76.419 62.6216 76.4129L64.7958 72.5222C65.2689 71.6757 65.5194 70.7185 65.5194 69.7519V62.0968C65.5225 58.9541 62.9525 56.3962 59.795 56.3962ZM53.8726 58.5201L53.4149 60.2377C52.9262 62.0722 51.25 63.3557 49.3419 63.3557H26.2925C24.3843 63.3557 22.7112 62.0722 22.2195 60.2377L21.7618 58.5201H53.8726ZM53.9035 87.657C53.2695 88.7897 52.0665 89.4946 50.7614 89.4946H24.8699C23.5648 89.4946 22.3617 88.7897 21.7277 87.657L15.759 76.9762H59.8692L53.9035 87.657ZM63.3886 69.755C63.3886 70.3614 63.2309 70.9647 62.934 71.4941L61.0568 74.8523H14.5745L12.6973 71.4941C12.4004 70.9647 12.2426 70.3614 12.2426 69.755V62.0999C12.2426 60.1269 13.8539 58.5232 15.8363 58.5232H19.5567L20.1598 60.7856C20.8958 63.5497 23.4194 65.4827 26.2925 65.4827H49.3419C52.2149 65.4827 54.7385 63.5527 55.4746 60.7856L56.0776 58.5232H59.795C61.7774 58.5232 63.3886 60.1269 63.3886 62.0999V69.755Z" fill="#0184C1"/>
<path d="M37.8158 16.6492C38.4034 16.6492 38.8828 16.1752 38.8828 15.5873V1.06193C38.8828 0.477099 38.4065 0 37.8158 0C37.2251 0 36.752 0.477099 36.752 1.06193V15.5842C36.752 16.1721 37.2282 16.6492 37.8158 16.6492Z" fill="#0184C1"/>
<path d="M15.9014 51.6806H28.9987C29.5863 51.6806 30.0657 51.2066 30.0657 50.6187C30.0657 50.0308 29.5894 49.5568 28.9987 49.5568H15.9014C15.3138 49.5568 14.8345 50.0308 14.8345 50.6187C14.8345 51.2066 15.3107 51.6806 15.9014 51.6806Z" fill="#0184C1"/>
<path d="M46.639 51.6806H59.7363C60.3239 51.6806 60.8032 51.2066 60.8032 50.6187C60.8032 50.0308 60.327 49.5568 59.7363 49.5568H46.639C46.0514 49.5568 45.572 50.0308 45.572 50.6187C45.572 51.2066 46.0483 51.6806 46.639 51.6806Z" fill="#0184C1"/>
</svg>
