<svg width="73" height="60" viewBox="0 0 73 60" fill="none" xmlns="http://www.w3.org/2000/svg">
<path d="M0.214156 11.6074C0.476627 11.8401 0.874923 11.8161 1.10803 11.5538C1.74493 10.8299 2.66083 10.4143 3.62261 10.4143C4.58256 10.4143 5.5003 10.8299 6.1372 11.5538C7.01455 12.5493 8.27552 13.1218 9.59889 13.1218C10.9223 13.1218 12.1832 12.5511 13.0606 11.5538C13.6975 10.8299 14.6134 10.4143 15.5752 10.4143C16.5351 10.4143 17.4528 10.8299 18.0898 11.5538C18.9671 12.5493 20.2281 13.1218 21.5514 13.1218C22.8748 13.1218 24.1358 12.5511 25.015 11.552C25.6519 10.828 26.5678 10.4143 27.5296 10.4143C28.4895 10.4143 29.4072 10.8299 30.0423 11.552L30.046 11.5557C30.9233 12.5511 32.1843 13.1236 33.5077 13.1236C34.831 13.1236 36.092 12.553 36.9712 11.5538C37.6081 10.8299 38.524 10.4162 39.4858 10.4143C40.4476 10.4125 41.3634 10.8299 42.0004 11.5538L42.0022 11.5557C42.8795 12.5511 44.1405 13.1236 45.4639 13.1236C46.7873 13.1236 48.0482 12.553 48.9237 11.5575L48.9274 11.5538C49.5643 10.8299 50.4802 10.4162 51.442 10.4162C52.4019 10.4162 53.3197 10.8317 53.9566 11.5557C54.8339 12.5511 56.0949 13.1236 57.4183 13.1236C58.7416 13.1236 60.0026 12.553 60.88 11.5557L60.8818 11.5538C61.5187 10.8299 62.4346 10.4162 63.3964 10.4162C64.3563 10.4162 65.2741 10.8317 65.9091 11.5538L65.9146 11.5594C66.792 12.5548 68.0529 13.1255 69.3763 13.1255C70.6997 13.1255 71.9607 12.5548 72.838 11.5575C73.0693 11.2934 73.0454 10.8926 72.7848 10.6581C72.5223 10.4254 72.124 10.4494 71.8909 10.7117C71.254 11.4356 70.3381 11.8493 69.3763 11.8493C68.4164 11.8493 67.4986 11.4338 66.8636 10.7117L66.8581 10.7061C65.9807 9.71067 64.7197 9.13816 63.3964 9.14C62.073 9.14 60.812 9.71067 59.9347 10.708L59.9328 10.7098C59.2959 11.4338 58.38 11.8475 57.4183 11.8475C56.4583 11.8475 55.5406 11.4319 54.9037 10.708C54.9037 10.708 54.9037 10.708 54.9018 10.7061C54.0245 9.71067 52.7635 9.13816 51.4402 9.13816C50.1168 9.13816 48.8558 9.70883 47.9803 10.7043L47.9766 10.708C47.3397 11.4319 46.4238 11.8456 45.462 11.8456C44.5021 11.8456 43.5844 11.4301 42.9475 10.7061L42.9456 10.7043C42.0683 9.70883 40.8073 9.13631 39.4839 9.13631C38.1606 9.13631 36.8996 9.70698 36.0204 10.7061C35.3835 11.4301 34.4676 11.8438 33.5058 11.8438C32.5459 11.8438 31.6281 11.4282 30.9931 10.7061L30.9894 10.7024C30.112 9.70698 28.8511 9.13446 27.5277 9.13446C26.2043 9.13446 24.9434 9.70513 24.0642 10.7043C23.4273 11.4282 22.5114 11.8438 21.5496 11.8419C20.5897 11.8419 19.6719 11.4264 19.035 10.7024L19.0332 10.7006C18.1558 9.70513 16.8949 9.13446 15.5715 9.13446C14.2481 9.13446 12.9872 9.70513 12.1098 10.7024C11.4729 11.4264 10.557 11.8419 9.59522 11.8419C8.63527 11.8419 7.71754 11.4264 7.08063 10.7024C6.20328 9.70698 4.94231 9.13446 3.61894 9.13446C2.29557 9.13446 1.03461 9.70513 0.157257 10.7024C-0.0721764 10.9721 -0.0483158 11.3747 0.214156 11.6074Z" fill="white"/>
<path d="M44.8875 41.9693V40.8926L51.3741 35.2949C51.6402 35.3558 51.9174 35.3872 52.2018 35.3872C53.3472 35.3872 54.3732 34.8683 55.0597 34.0501H62.5025L65.2502 36.8148C65.3695 36.9349 65.5292 37.0014 65.698 37.0014H69.6021C69.7691 37.0014 69.9306 36.9349 70.0499 36.8148L72.8104 34.0372C73.0582 33.7879 73.0582 33.3852 72.8104 33.1359C72.5627 32.8866 72.1625 32.8866 71.9147 33.1359L69.3414 35.727H66.7754V27.516H69.3414L71.9166 30.1071C72.1644 30.3564 72.5645 30.3564 72.8123 30.1071C73.0601 29.8578 73.0601 29.4552 72.8123 29.2059L70.0518 26.4282C69.9324 26.3082 69.7728 26.2417 69.6039 26.2417H65.698C65.531 26.2417 65.3695 26.3082 65.2502 26.4282L62.5025 29.1929H55.0597C54.3732 28.3766 53.3472 27.8558 52.2018 27.8558C50.203 27.8558 48.5658 29.4404 48.4648 31.4258L44.8875 34.6559V30.2992C44.8875 28.9233 44.3552 27.6305 43.3879 26.6591C42.4207 25.6858 41.1358 25.1502 39.7702 25.1502H38.68L38.01 23.4862C37.7108 22.7419 37.2024 22.1103 36.5398 21.6615C35.8772 21.2128 35.1063 20.9745 34.3079 20.9745H23.0785V15.2087C23.0785 14.8578 22.7959 14.5715 22.4453 14.5715C22.0947 14.5715 21.812 14.8559 21.812 15.2087V20.9745H10.5827C9.78425 20.9745 9.01151 21.2109 8.35075 21.6615C7.68814 22.1103 7.17972 22.7419 6.88054 23.4862L6.2106 25.1502H5.12033C3.75291 25.1502 2.46808 25.6858 1.50263 26.6591C0.535337 27.6324 0.00305176 28.9251 0.00305176 30.2992V41.9693C0.00305176 42.8429 0.226979 43.7091 0.647301 44.4718L7.76891 57.3535C8.67196 58.9861 10.3844 60 12.2401 60H32.6541C34.5098 60 36.2241 58.9861 37.1253 57.3535L41.7599 48.9688L48.4685 54.7845C48.5731 56.7662 50.2104 58.3452 52.2055 58.3452C53.3508 58.3452 54.3769 57.8263 55.0633 57.0081H62.5061L65.2538 59.7728C65.3731 59.8929 65.5328 59.9594 65.7017 59.9594H69.6057C69.7728 59.9594 69.9343 59.8929 70.0536 59.7728L72.8141 56.9952C73.0619 56.7459 73.0619 56.3433 72.8141 56.0939C72.5663 55.8446 72.1662 55.8446 71.9184 56.0939L69.3433 58.6851H66.7773V50.474H69.3433L71.9184 53.0651C72.1662 53.3145 72.5663 53.3145 72.8141 53.0651C73.0619 52.8158 73.0619 52.4132 72.8141 52.1639L70.0536 49.3862C69.9343 49.2662 69.7746 49.1997 69.6057 49.1997H65.698C65.531 49.1997 65.3695 49.2662 65.2502 49.3862L62.5025 52.1509H55.0597C54.3732 51.3346 53.3472 50.8138 52.2018 50.8138C51.9174 50.8138 51.6402 50.8471 51.3722 50.908L44.1295 44.6768L44.2433 44.4718C44.6654 43.7072 44.8875 42.8429 44.8875 41.9693ZM65.509 27.9703V35.2727L63.5707 33.3225V29.9206L65.509 27.9703ZM62.3042 30.4672V32.7758H55.7645C55.882 32.412 55.9444 32.0241 55.9444 31.6215C55.9444 31.2189 55.8801 30.8311 55.7645 30.4672H62.3042ZM52.2037 29.1301C53.5693 29.1301 54.6797 30.2475 54.6797 31.6215C54.6797 32.9956 53.5693 34.1129 52.2037 34.1129C50.8638 34.1129 49.7699 33.0362 49.7295 31.6991C49.7295 31.6935 49.7295 31.688 49.7295 31.6825C49.7295 31.6622 49.7295 31.6418 49.7295 31.6234C49.7276 30.2475 50.8381 29.1301 52.2037 29.1301ZM48.6943 32.9309C48.9659 33.6641 49.4578 34.2902 50.0874 34.7261L44.8875 39.2139V36.3679L48.6943 32.9309ZM8.05157 23.9645C8.47189 22.9229 9.46488 22.2488 10.5808 22.2488H34.3061C35.4239 22.2488 36.4168 22.9229 36.8372 23.9645L37.3144 25.1521H7.57435L8.05157 23.9645ZM36.0167 56.7329C35.3376 57.9611 34.0473 58.7238 32.6505 58.7238H12.2383C10.8415 58.7238 9.55114 57.9611 8.87202 56.7329L1.75041 43.8513C1.43288 43.2769 1.26402 42.625 1.26402 41.9675V30.2992C1.26402 28.1624 2.99119 26.4245 5.11482 26.4245H39.7702C41.8939 26.4245 43.621 28.1624 43.621 30.2992V41.9693C43.621 42.6268 43.454 43.2787 43.1346 43.8531L36.0167 56.7329ZM65.509 50.9265V58.2289L63.5707 56.2786V52.8768L65.509 50.9265ZM62.3042 53.4234V55.732H55.7645C55.882 55.3681 55.9444 54.9803 55.9444 54.5777C55.9444 54.1751 55.8801 53.7872 55.7645 53.4234H62.3042ZM54.6797 54.5777C54.6797 55.9517 53.5693 57.0691 52.2037 57.0691C50.8381 57.0691 49.7276 55.9517 49.7276 54.5777C49.7276 54.5574 49.7276 54.5371 49.7276 54.5149C49.7276 54.5075 49.7276 54.502 49.7276 54.4946C49.7699 53.1593 50.8638 52.0845 52.2018 52.0845C53.5674 52.0863 54.6797 53.2055 54.6797 54.5777ZM50.0874 51.475C49.4505 51.9164 48.9567 52.5499 48.6869 53.2904L42.3858 47.8294L43.5017 45.8089L50.0874 51.475Z" fill="white"/>
<path d="M35.4881 33.8377H9.40063C7.52662 33.8377 6.00134 35.3724 6.00134 37.258V41.8511C6.00134 42.431 6.15002 43.0072 6.43084 43.5133L7.72117 45.8477C7.72301 45.8495 7.72301 45.8532 7.72485 45.8551L11.7904 53.211C12.3906 54.2951 13.5286 54.9692 14.7602 54.9692H30.1267C31.3601 54.9692 32.4981 54.2951 33.0965 53.211L37.162 45.8551C37.1639 45.8532 37.1639 45.8514 37.1657 45.8477L38.456 43.5133C38.7369 43.0054 38.8855 42.431 38.8855 41.8511V37.258C38.8874 35.3724 37.3621 33.8377 35.4881 33.8377ZM31.9732 35.112L31.7015 36.1426C31.4115 37.2433 30.4167 38.0134 29.2842 38.0134H15.6045C14.472 38.0134 13.479 37.2433 13.1872 36.1426L12.9155 35.112H31.9732ZM31.9915 52.5942C31.6153 53.2738 30.9013 53.6967 30.1267 53.6967H14.7602C13.9856 53.6967 13.2716 53.2738 12.8953 52.5942L9.3529 46.1857H35.5321L31.9915 52.5942ZM37.6209 41.853C37.6209 42.2168 37.5273 42.5788 37.3511 42.8964L36.237 44.9113H8.64992L7.53579 42.8964C7.35959 42.5788 7.26598 42.2168 7.26598 41.853V37.2599C7.26598 36.0761 8.22226 35.1139 9.39879 35.1139H11.6069L11.9648 36.4713C12.4016 38.1298 13.8994 39.2896 15.6045 39.2896H29.2842C30.9894 39.2896 32.4871 38.1316 32.9239 36.4713L33.2819 35.1139H35.4881C36.6646 35.1139 37.6209 36.0761 37.6209 37.2599V41.853Z" fill="white"/>
<path d="M22.4435 9.98954C22.7923 9.98954 23.0768 9.70512 23.0768 9.35238V0.637158C23.0768 0.28626 22.7941 0 22.4435 0C22.093 0 21.8121 0.28626 21.8121 0.637158V9.35053C21.8121 9.70328 22.0948 9.98954 22.4435 9.98954Z" fill="white"/>
<path d="M9.43731 31.0084H17.2105C17.5592 31.0084 17.8437 30.724 17.8437 30.3712C17.8437 30.0185 17.5611 29.7341 17.2105 29.7341H9.43731C9.08858 29.7341 8.80408 30.0185 8.80408 30.3712C8.80408 30.724 9.08674 31.0084 9.43731 31.0084Z" fill="white"/>
<path d="M27.6801 31.0084H35.4533C35.802 31.0084 36.0865 30.724 36.0865 30.3712C36.0865 30.0185 35.8039 29.7341 35.4533 29.7341H27.6801C27.3314 29.7341 27.0469 30.0185 27.0469 30.3712C27.0469 30.724 27.3295 31.0084 27.6801 31.0084Z" fill="white"/>
</svg>
