<svg width="62" height="60" viewBox="0 0 62 60" fill="none" xmlns="http://www.w3.org/2000/svg">
<path d="M55.3571 14.2046V10.9266C55.3571 10.6368 55.2405 10.3589 55.0329 10.154C54.8252 9.94906 54.5436 9.83394 54.25 9.83394H49.8214C49.5278 9.83394 49.2462 9.94906 49.0386 10.154C48.8309 10.3589 48.7143 10.6368 48.7143 10.9266V16.3899H51.0747L41.4791 30.5945H38.6149L35.4186 6.41501C35.3839 6.15197 35.2535 5.91036 35.0516 5.73524C34.8497 5.56013 34.5902 5.46347 34.3214 5.4633H32.1071V2.18532H35.4286V0H26.5714V2.18532H29.8929V5.4633H27.6786C27.4098 5.46347 27.1503 5.56013 26.9484 5.73524C26.7465 5.91036 26.6161 6.15197 26.5814 6.41501L23.963 26.2238H20.5209L10.9253 12.0193H13.2857C13.5793 12.0193 13.861 11.9041 14.0686 11.6992C14.2762 11.4943 14.3929 11.2164 14.3929 10.9266V6.55596C14.3929 6.26617 14.2762 5.98825 14.0686 5.78333C13.861 5.57842 13.5793 5.4633 13.2857 5.4633H8.85714C8.56351 5.4633 8.2819 5.57842 8.07427 5.78333C7.86664 5.98825 7.75 6.26617 7.75 6.55596V9.83394H0V12.0193H3.32143V28.6102C2.67464 28.833 2.11408 29.2488 1.71743 29.8C1.32078 30.3512 1.10768 31.0105 1.10768 31.6866C1.10768 32.3627 1.32078 33.022 1.71743 33.5732C2.11408 34.1244 2.67464 34.5402 3.32143 34.763V37.1504H5.53571V34.7641C6.1825 34.5413 6.74307 34.1255 7.13972 33.5743C7.53637 33.0231 7.74946 32.3638 7.74946 31.6877C7.74946 31.0116 7.53637 30.3523 7.13972 29.8011C6.74307 29.2499 6.1825 28.8341 5.53571 28.6113V17.8104L11.2176 26.2238H8.85714V28.4092H14.3929V43.7064H11.0714C10.7778 43.7064 10.4962 43.8215 10.2886 44.0264C10.0809 44.2314 9.96428 44.5093 9.96428 44.7991V49.1697C9.96428 49.4595 10.0809 49.7374 10.2886 49.9423C10.4962 50.1473 10.7778 50.2624 11.0714 50.2624H14.3929V56.6599C14.1858 56.7692 13.9766 56.8719 13.7784 57.0019C12.9771 57.5306 12.0348 57.8129 11.0709 57.8129C10.1069 57.8129 9.16469 57.5306 8.36336 57.0019L6.55096 55.8087C5.38581 55.041 4.01602 54.6319 2.61507 54.633H0V56.8183H2.61507C3.57856 56.8177 4.52059 57.0991 5.32204 57.6269L7.13554 58.8201C8.30008 59.5891 9.66971 59.9996 11.0709 59.9996C12.472 59.9996 13.8417 59.5891 15.0062 58.8201C15.8075 58.2913 16.7498 58.0091 17.7137 58.0091C18.6777 58.0091 19.6199 58.2913 20.4212 58.8201C21.5858 59.5891 22.9554 59.9996 24.3566 59.9996C25.7578 59.9996 27.1274 59.5891 28.2919 58.8201C29.0933 58.2913 30.0355 58.0091 30.9994 58.0091C31.9634 58.0091 32.9056 58.2913 33.707 58.8201C34.8715 59.5891 36.2411 59.9996 37.6423 59.9996C39.0435 59.9996 40.4131 59.5891 41.5776 58.8201C42.379 58.2913 43.3212 58.0091 44.2852 58.0091C45.2491 58.0091 46.1913 58.2913 46.9927 58.8201C48.1571 59.5893 49.5268 60 50.928 60C52.3292 60 53.6989 59.5893 54.8634 58.8201L56.6769 57.6269C57.4786 57.0989 58.4211 56.8175 59.3849 56.8183H62V54.633H59.3849C57.984 54.6319 56.6142 55.041 55.449 55.8087L53.6355 57.0019C52.8342 57.5306 51.8919 57.8129 50.928 57.8129C49.9641 57.8129 49.0218 57.5306 48.2205 57.0019C48.0223 56.8719 47.8131 56.7681 47.606 56.6599V50.2624H50.9275C51.2211 50.2624 51.5027 50.1473 51.7103 49.9423C51.918 49.7374 52.0346 49.4595 52.0346 49.1697V44.7991C52.0346 44.5093 51.918 44.2314 51.7103 44.0264C51.5027 43.8215 51.2211 43.7064 50.9275 43.7064H47.6071V32.7798H53.1429V30.5945H50.7824L56.4643 22.181V32.9787C55.8175 33.2014 55.2569 33.6172 54.8603 34.1684C54.4636 34.7196 54.2505 35.379 54.2505 36.0551C54.2505 36.7311 54.4636 37.3905 54.8603 37.9417C55.2569 38.4929 55.8175 38.9087 56.4643 39.1314V41.5211H58.6786V39.1347C59.3254 38.912 59.8859 38.4962 60.2826 37.945C60.6792 37.3937 60.8923 36.7344 60.8923 36.0583C60.8923 35.3823 60.6792 34.7229 60.2826 34.1717C59.8859 33.6205 59.3254 33.2047 58.6786 32.9819V16.3899H62V14.2046H55.3571ZM50.9286 12.0193H53.1429V14.2046H50.9286V12.0193ZM25.9071 28.4092H29.8929V30.5945H25.6182L25.9071 28.4092ZM32.1071 22.9459H35.371L35.8039 26.2238H32.1071V22.9459ZM32.1071 20.7605V17.4826H34.6536L35.0865 20.7605H32.1071ZM34.3602 15.2972H32.1071V12.0193H33.9273L34.3602 15.2972ZM29.8929 15.2972H27.6398L28.0727 12.0193H29.8929V15.2972ZM29.8929 17.4826V20.7605H26.918L27.3509 17.4826H29.8929ZM29.8929 22.9459V26.2238H26.195L26.6279 22.9459H29.8929ZM32.1071 28.4092H36.0929L36.3818 30.5945H32.1071V28.4092ZM33.3494 7.64862L33.6383 9.83394H32.1071V7.64862H33.3494ZM29.8929 7.64862V9.83394H28.3617L28.6506 7.64862H29.8929ZM23.3851 30.5945H16.6071V28.4092H23.674L23.3851 30.5945ZM16.6071 37.1504H18.8214V39.3358H16.6071V37.1504ZM9.96428 7.64862H12.1786V9.83394H9.96428V7.64862ZM4.42857 32.7798C4.2096 32.7798 3.99554 32.7157 3.81348 32.5957C3.63141 32.4756 3.4895 32.3049 3.4057 32.1053C3.32191 31.9056 3.29998 31.6859 3.3427 31.474C3.38542 31.262 3.49087 31.0673 3.6457 30.9145C3.80054 30.7617 3.99781 30.6576 4.21258 30.6155C4.42734 30.5733 4.64995 30.595 4.85226 30.6777C5.05456 30.7604 5.22747 30.9004 5.34913 31.0801C5.47078 31.2598 5.53571 31.471 5.53571 31.6871C5.53571 31.9769 5.41907 32.2549 5.21144 32.4598C5.00381 32.6647 4.7222 32.7798 4.42857 32.7798ZM5.53571 12.0193H8.26482L14.6386 21.4544L11.4944 22.6956L5.53571 13.8768V12.0193ZM13.878 26.2238L12.7499 24.5532L15.8941 23.3119L17.8604 26.2238H13.8747H13.878ZM16.6071 55.9136V50.2624H18.8214V55.9136C18.0879 55.7986 17.3406 55.7986 16.6071 55.9136ZM21.6502 57.0063C21.452 56.8762 21.2427 56.7724 21.0357 56.6643V50.2624H27.6786V56.6599C27.4715 56.7692 27.2623 56.8719 27.0641 57.0019C26.2629 57.5304 25.3208 57.8125 24.3571 57.8125C23.3934 57.8125 22.4514 57.5304 21.6502 57.0019V57.0063ZM29.8929 55.9136V50.2624H32.1071V55.9136C31.3736 55.7986 30.6264 55.7986 29.8929 55.9136ZM34.9359 57.0063C34.7377 56.8762 34.5285 56.7724 34.3214 56.6643V50.2624H40.9643V56.6599C40.7572 56.7692 40.548 56.8719 40.3498 57.0019C39.5486 57.5304 38.6066 57.8125 37.6429 57.8125C36.6792 57.8125 35.7371 57.5304 34.9359 57.0019V57.0063ZM45.3929 55.9136C44.6594 55.7986 43.9121 55.7986 43.1786 55.9136V50.2624H45.3929V55.9136ZM49.8214 45.8917V48.077H12.1786V45.8917H49.8214ZM16.6071 43.7064V41.5211H19.9286C20.2222 41.5211 20.5038 41.406 20.7114 41.2011C20.9191 40.9961 21.0357 40.7182 21.0357 40.4284V36.0578C21.0357 35.768 20.9191 35.4901 20.7114 35.2852C20.5038 35.0802 20.2222 34.9651 19.9286 34.9651H16.6071V32.7798H45.3929V34.9651H33.2143C32.9207 34.9651 32.639 35.0802 32.4314 35.2852C32.2238 35.4901 32.1071 35.768 32.1071 36.0578V40.4284C32.1071 40.7182 32.2238 40.9961 32.4314 41.2011C32.639 41.406 32.9207 41.5211 33.2143 41.5211H45.3929V43.7064H16.6071ZM45.3929 39.3358H34.3214V37.1504H45.3929V39.3358ZM47.6071 30.5945H44.1396L45.9918 27.853L48.8361 29.5379L48.122 30.5945H47.6071ZM57.5714 37.1504C57.3525 37.1504 57.1384 37.0864 56.9563 36.9663C56.7743 36.8462 56.6324 36.6756 56.5486 36.4759C56.4648 36.2763 56.4428 36.0566 56.4856 35.8446C56.5283 35.6327 56.6337 35.438 56.7886 35.2852C56.9434 35.1323 57.1407 35.0283 57.3554 34.9861C57.5702 34.944 57.7928 34.9656 57.9951 35.0483C58.1974 35.131 58.3703 35.271 58.492 35.4507C58.6136 35.6304 58.6786 35.8417 58.6786 36.0578C58.6786 36.3476 58.5619 36.6255 58.3543 36.8304C58.1467 37.0353 57.8651 37.1504 57.5714 37.1504ZM56.4643 18.2474L50.0661 27.7197L47.2219 26.0359L53.7352 16.3899H56.4643V18.2474Z" fill="white"/>
<path d="M28.7857 34.9651H24.3571C24.0635 34.9651 23.7819 35.0803 23.5743 35.2852C23.3666 35.4901 23.25 35.768 23.25 36.0578V40.4284C23.25 40.7182 23.3666 40.9962 23.5743 41.2011C23.7819 41.406 24.0635 41.5211 24.3571 41.5211H28.7857C29.0793 41.5211 29.361 41.406 29.5686 41.2011C29.7762 40.9962 29.8929 40.7182 29.8929 40.4284V36.0578C29.8929 35.768 29.7762 35.4901 29.5686 35.2852C29.361 35.0803 29.0793 34.9651 28.7857 34.9651ZM27.6786 39.3358H25.4643V37.1505H27.6786V39.3358Z" fill="white"/>
</svg>
