<svg width="102" height="100" viewBox="0 0 102 100" fill="none" xmlns="http://www.w3.org/2000/svg">
<path d="M41.0722 50.1854C39.7887 50.1854 38.7444 51.2345 38.7444 52.5239V55.224C38.7444 56.5133 39.7887 57.5624 41.0722 57.5624C42.0176 57.5624 42.3902 58.2891 42.4822 58.511C42.5742 58.734 42.8215 59.5115 42.1533 60.1828C41.714 60.6241 41.4713 61.2122 41.4713 61.8373C41.4713 62.4623 41.714 63.0492 42.1533 63.4906L44.0532 65.3992C44.9607 66.3108 46.4374 66.3108 47.346 65.3992C48.0165 64.7257 48.7905 64.9741 49.0125 65.0665C49.2333 65.1589 49.9555 65.5333 49.9555 66.4853C49.9555 67.7747 50.9998 68.8237 52.2833 68.8237H54.9711C56.2546 68.8237 57.2989 67.7747 57.2989 66.4853C57.2989 65.5356 58.0223 65.1612 58.2431 65.0688C58.4651 64.9764 59.2391 64.728 59.9073 65.3992C60.8147 66.3108 62.2915 66.3108 63.2 65.3992L65.1 63.4906C65.5393 63.0492 65.782 62.4611 65.782 61.8361C65.782 61.211 65.5393 60.6241 65.1 60.1828C64.4318 59.5115 64.6791 58.7328 64.7711 58.5098C64.8631 58.2868 65.2357 57.5613 66.1811 57.5613C67.4646 57.5613 68.5089 56.5122 68.5089 55.2228V52.5227C68.5089 51.2333 67.4646 50.1843 66.1811 50.1843C65.2357 50.1843 64.8631 49.4576 64.7711 49.2357C64.6791 49.0127 64.4318 48.2352 65.1 47.5639C65.5405 47.1226 65.782 46.5345 65.782 45.9094C65.782 45.2844 65.5393 44.6975 65.1 44.2561L63.2 42.3475C62.2926 41.4359 60.8159 41.4359 59.9073 42.3475C59.2391 43.0187 58.4639 42.7703 58.2431 42.6779C58.0212 42.5855 57.2989 42.2111 57.2989 41.2614C57.2989 39.972 56.2546 38.923 54.9711 38.923H52.2833C50.9998 38.923 49.9555 39.972 49.9555 41.2614C49.9555 42.2111 49.2321 42.5855 49.0113 42.6779C48.7905 42.7703 48.0153 43.0187 47.3471 42.3475C46.4397 41.4359 44.963 41.4359 44.0544 42.3475L42.1544 44.2561C41.7151 44.6975 41.4724 45.2855 41.4724 45.9106C41.4724 46.5356 41.7151 47.1226 42.1544 47.5639C42.8226 48.2352 42.5754 49.0139 42.4834 49.2369C42.3902 49.4587 42.0176 50.1854 41.0722 50.1854ZM45.1527 50.3483C45.7772 48.8348 45.5495 47.1907 44.5708 45.9349L45.7232 44.7772C46.9733 45.7592 48.6099 45.9892 50.1166 45.3618C51.6232 44.7344 52.6192 43.4104 52.8112 41.8275H54.4409C54.633 43.4104 55.629 44.7344 57.1356 45.3618C58.6422 45.9892 60.2788 45.7592 61.5289 44.7772L62.6813 45.9349C61.7038 47.1907 61.4749 48.8348 62.0994 50.3483C62.7239 51.8619 64.0419 52.8624 65.6175 53.0554V54.6925C64.0419 54.8854 62.7239 55.886 62.0994 57.3995C61.4749 58.913 61.7026 60.5571 62.6813 61.813L61.5289 62.9707C60.2799 61.9886 58.6434 61.7587 57.1356 62.3861C55.629 63.0134 54.633 64.3375 54.4409 65.9203H52.8112C52.6192 64.3363 51.6243 63.0111 50.1166 62.3837C48.6099 61.7564 46.9733 61.9875 45.722 62.9707L44.5696 61.813C45.5472 60.5571 45.7761 58.913 45.1516 57.3995C44.5271 55.886 43.2091 54.8854 41.6334 54.6925V53.0554C43.2102 52.8624 44.5282 51.8619 45.1527 50.3483ZM53.6266 61.9216C58.0442 61.9216 61.6382 58.3111 61.6382 53.8733C61.6382 49.4356 58.0442 45.8251 53.6266 45.8251C49.2091 45.8251 45.6151 49.4356 45.6151 53.8733C45.6151 58.3111 49.2091 61.9216 53.6266 61.9216ZM53.6266 48.7297C56.4501 48.7297 58.748 51.0369 58.748 53.8745C58.748 56.7109 56.4513 59.0193 53.6266 59.0193C50.802 59.0193 48.5053 56.7121 48.5053 53.8745C48.5053 51.0369 50.8032 48.7297 53.6266 48.7297ZM75.9914 25.9945C75.9914 25.0482 75.4451 24.2291 74.6538 23.834V16.6129C74.6538 15.9417 74.4767 15.3409 74.1144 14.7771L70.1213 8.58202C69.4899 7.60228 68.4617 7.04077 67.3001 7.04077H59.4565V1.45229C59.4565 0.650468 58.809 0 58.0108 0H33.6656C32.8674 0 32.2199 0.650468 32.2199 1.45229V24.0696C31.6391 24.511 31.2619 25.2077 31.2619 25.9945V28.356C31.2619 29.687 32.3395 30.7707 33.6656 30.7707H37.5322C38.5615 32.3513 40.3373 33.398 42.3534 33.398C44.3695 33.398 46.1453 32.3513 47.1746 30.7707H59.7026C60.7319 32.3513 62.5077 33.398 64.5238 33.398C66.5399 33.398 68.3157 32.3513 69.345 30.7707H73.5911C74.9161 30.7707 75.9948 29.6882 75.9948 28.356V25.9945H75.9914ZM67.6946 10.1602L70.2432 14.1151H64.6584V9.94535H67.3001C67.4784 9.94535 67.5968 10.0101 67.6946 10.1602ZM61.767 9.94535V15.5673C61.767 16.3692 62.4145 17.0196 63.2127 17.0196H71.7636V23.5809H68.6423C67.5957 22.503 66.1362 21.8317 64.5215 21.8317C62.9079 21.8317 61.4473 22.503 60.4007 23.5809H59.4553V9.94535H61.767ZM56.5651 2.90458V23.5798H46.473C45.4265 22.5018 43.967 21.8306 42.3523 21.8306C40.7387 21.8306 39.2781 22.5018 38.2315 23.5798H35.1101V2.90458H56.5651ZM34.1521 27.8662V26.4832H36.7053C36.6328 26.8483 36.5937 27.2261 36.5937 27.6131C36.5937 27.6975 36.596 27.7818 36.6006 27.865L34.1521 27.8662ZM42.3523 30.4935C40.772 30.4935 39.4862 29.2018 39.4862 27.6131C39.4862 26.0257 40.772 24.7328 42.3523 24.7328C43.9325 24.7328 45.2194 26.0245 45.2194 27.6131C45.2194 29.2018 43.9325 30.4935 42.3523 30.4935ZM48.1027 27.8662C48.1062 27.783 48.1096 27.6986 48.1096 27.6143C48.1096 27.2272 48.0705 26.8494 47.9981 26.4844H58.8745C58.8021 26.8494 58.763 27.2272 58.763 27.6143C58.763 27.6986 58.7653 27.783 58.7699 27.8662H48.1027ZM64.5215 30.4935C62.9413 30.4935 61.6543 29.2018 61.6543 27.6131C61.6543 26.0257 62.9401 24.7328 64.5215 24.7328C66.1029 24.7328 67.3887 26.0245 67.3887 27.6131C67.3887 29.2018 66.1017 30.4935 64.5215 30.4935ZM73.1001 27.8662H70.272C70.2754 27.783 70.2789 27.6986 70.2789 27.6143C70.2789 27.2272 70.2398 26.8494 70.1673 26.4844H73.1001V27.8662ZM88.6896 77.177C91.8673 76.8269 94.3481 74.1153 94.3481 70.8306C94.3481 67.3102 91.497 64.4461 87.9915 64.4461C84.4872 64.4461 81.6349 67.3102 81.6349 70.8306C81.6349 74.1141 84.1157 76.8258 87.2934 77.177C80.961 77.5409 75.9201 82.8302 75.9201 89.2806C75.9201 90.6947 76.6607 92.6542 80.1869 93.9586C82.2698 94.7292 85.0415 95.1533 87.9915 95.1533C93.5591 95.1533 100.062 93.6155 100.062 89.2806C100.062 82.8302 95.0209 77.5409 88.6896 77.177ZM84.5263 70.8317C84.5263 68.9127 86.0812 67.3506 87.9915 67.3506C89.9018 67.3506 91.4567 68.9115 91.4567 70.8317C91.4567 72.7508 89.9018 74.3128 87.9915 74.3128C86.0812 74.3128 84.5263 72.7508 84.5263 70.8317ZM87.9915 92.2498C82.5814 92.2498 78.8114 90.6855 78.8114 89.2806C78.8114 84.1958 82.9299 80.0596 87.9915 80.0596C93.0531 80.0596 97.1704 84.1958 97.1704 89.2806C97.1715 90.6855 93.4015 92.2498 87.9915 92.2498ZM29.6127 71.8716C29.255 71.5966 28.7915 71.5053 28.3567 71.6232L19.6218 73.9997V73.0246C19.6218 72.5729 19.4125 72.1465 19.0548 71.8716C18.6971 71.5966 18.2336 71.5053 17.7989 71.6232L9.0639 73.9997V65.0954C9.0639 63.8984 8.09437 62.9256 6.90402 62.9256H2.15988C0.96838 62.9256 0 63.8996 0 65.0954V88.0732C0 88.875 0.647504 89.5255 1.44567 89.5255H28.7363C29.5344 89.5255 30.1819 88.875 30.1819 88.0732V73.0246C30.1796 72.5729 29.9703 72.1465 29.6127 71.8716ZM6.17256 65.829V67.3645H2.89019V65.829H6.17256ZM2.89019 86.6221V70.2691H6.17256V86.6209L2.89019 86.6221ZM9.06275 77.0095L16.7304 74.9229V86.6221H9.06275V77.0095ZM27.2895 86.6221H19.6218V77.0095L27.2895 74.9229V86.6221ZM73.2358 91.4249C73.5831 92.147 73.2806 93.0147 72.5618 93.3636C61.943 98.5107 49.3667 99.0457 38.3442 94.928L39.6104 97.9908C39.9164 98.7314 39.5679 99.5806 38.8307 99.8891C38.6489 99.9642 38.4615 100 38.2763 100C37.7093 100 37.1722 99.6638 36.9411 99.1046L34.3234 92.7755C34.1762 92.4197 34.1762 92.0199 34.3223 91.6641C34.4684 91.3082 34.7501 91.0251 35.1032 90.8773L41.4034 88.2477C42.1406 87.9403 42.986 88.2904 43.293 89.031C43.599 89.7716 43.2505 90.6208 42.5133 90.9293L39.4057 92.2267C49.6853 96.0521 61.4059 95.5472 71.3048 90.7479C72.0247 90.4001 72.8884 90.7028 73.2358 91.4249ZM101.436 58.3573L96.0272 62.5351C95.773 62.7315 95.4625 62.8366 95.1462 62.8366C95.0841 62.8366 95.0209 62.832 94.9588 62.8239C94.5792 62.7743 94.2342 62.5744 94.0007 62.2694L89.842 56.8357C89.3555 56.2002 89.474 55.2887 90.1065 54.7999C90.7402 54.3112 91.6465 54.4302 92.133 55.0657L94.1848 57.745C95.2014 46.7806 91.6821 35.5378 84.5067 27.1741C83.9857 26.5664 84.0536 25.6502 84.6574 25.1268C85.2623 24.6034 86.1743 24.6716 86.6953 25.2782C94.3929 34.2495 98.1618 46.3161 97.0554 58.0766L99.673 56.0547C100.306 55.566 101.213 55.685 101.699 56.3204C102.187 56.957 102.069 57.8686 101.436 58.3573ZM18.1071 28.4196L14.8339 28.8563C14.0415 28.9626 13.3158 28.4034 13.2111 27.6085C13.1065 26.8136 13.6631 26.0834 14.4544 25.9783L21.2181 25.076C22.0105 24.9708 22.7362 25.5289 22.8409 26.3238L23.7391 33.1184C23.8438 33.9133 23.2871 34.6435 22.4959 34.7486C21.7034 34.8538 20.9777 34.2957 20.8731 33.5009L20.4303 30.1503C14.0921 39.1344 11.5447 50.6395 13.5964 61.486C13.7459 62.274 13.2307 63.0342 12.4463 63.1833C12.3555 63.2006 12.2646 63.2087 12.1749 63.2087C11.4941 63.2087 10.888 62.7234 10.7568 62.0279C8.55441 50.3911 11.2962 38.0484 18.1071 28.4196ZM65.935 27.6143C65.935 28.3988 65.3024 29.0342 64.5215 29.0342C63.7406 29.0342 63.108 28.3988 63.108 27.6143C63.108 26.8298 63.7406 26.1944 64.5215 26.1944C65.3024 26.1944 65.935 26.8298 65.935 27.6143ZM43.7657 27.6143C43.7657 28.3988 43.1332 29.0342 42.3523 29.0342C41.5713 29.0342 40.9388 28.3988 40.9388 27.6143C40.9388 26.8298 41.5713 26.1944 42.3523 26.1944C43.1332 26.1944 43.7657 26.8298 43.7657 27.6143ZM12.2773 78.3393V80.2202C12.2773 80.3173 12.1979 80.397 12.1013 80.397H10.2289C10.1323 80.397 10.053 80.3173 10.053 80.2202V78.3393C10.053 78.2422 10.1323 78.1625 10.2289 78.1625H12.1013C12.1979 78.1625 12.2773 78.2422 12.2773 78.3393ZM24.0749 80.2202V78.3393C24.0749 78.2422 24.1543 78.1625 24.2509 78.1625H26.1233C26.2199 78.1625 26.2992 78.2422 26.2992 78.3393V80.2202C26.2992 80.3173 26.2199 80.397 26.1233 80.397H24.2509C24.1543 80.3981 24.0749 80.3184 24.0749 80.2202ZM20.6109 80.2202V78.3393C20.6109 78.2422 20.6902 78.1625 20.7868 78.1625H22.6592C22.7558 78.1625 22.8351 78.2422 22.8351 78.3393V80.2202C22.8351 80.3173 22.7558 80.397 22.6592 80.397H20.7868C20.6902 80.3981 20.6109 80.3184 20.6109 80.2202ZM15.7414 78.3393V80.2202C15.7414 80.3173 15.662 80.397 15.5654 80.397H13.693C13.5964 80.397 13.5171 80.3173 13.5171 80.2202V78.3393C13.5171 78.2422 13.5964 78.1625 13.693 78.1625H15.5654C15.662 78.1625 15.7414 78.2422 15.7414 78.3393Z" fill="#0184C1"/>
</svg>
