<svg width="112" height="100" viewBox="0 0 112 100" fill="none" xmlns="http://www.w3.org/2000/svg">
<path d="M26.1341 74.0728C24.2882 74.0728 22.4837 74.6158 20.9488 75.6332C19.4139 76.6506 18.2177 78.0967 17.5112 79.7885C16.8048 81.4804 16.62 83.3421 16.9801 85.1382C17.3403 86.9343 18.2292 88.5841 19.5345 89.879C20.8397 91.1739 22.5028 92.0558 24.3133 92.413C26.1238 92.7703 28.0004 92.5869 29.7058 91.8861C31.4113 91.1853 32.8689 89.9986 33.8945 88.4759C34.9201 86.9533 35.4675 85.1631 35.4675 83.3318C35.4645 80.8771 34.4802 78.5237 32.7305 76.7879C30.9808 75.0521 28.6086 74.0757 26.1341 74.0728ZM26.1341 88.8873C25.0265 88.8873 23.9438 88.5615 23.0229 87.951C22.102 87.3406 21.3842 86.473 20.9604 85.4578C20.5365 84.4427 20.4256 83.3257 20.6417 82.248C20.8578 81.1704 21.3911 80.1805 22.1743 79.4036C22.9575 78.6266 23.9553 78.0975 25.0416 77.8831C26.1279 77.6688 27.2539 77.7788 28.2771 78.1993C29.3004 78.6198 30.175 79.3318 30.7904 80.2454C31.4057 81.159 31.7341 82.2331 31.7341 83.3318C31.7341 84.8052 31.1441 86.2183 30.0939 87.2601C29.0437 88.302 27.6193 88.8873 26.1341 88.8873Z" fill="#0184C1"/>
<path d="M85.8665 74.0728C84.0206 74.0728 82.2161 74.6158 80.6812 75.6332C79.1464 76.6506 77.9501 78.0967 77.2437 79.7885C76.5372 81.4804 76.3524 83.3421 76.7125 85.1382C77.0727 86.9343 77.9616 88.5841 79.2669 89.879C80.5722 91.1739 82.2352 92.0558 84.0457 92.413C85.8562 92.7703 87.7328 92.5869 89.4383 91.8861C91.1437 91.1853 92.6014 89.9986 93.6269 88.4759C94.6525 86.9533 95.1999 85.1631 95.1999 83.3318C95.1969 80.8771 94.2126 78.5237 92.4629 76.7879C90.7132 75.0521 88.341 74.0757 85.8665 74.0728ZM85.8665 88.8873C84.759 88.8873 83.6763 88.5615 82.7553 87.951C81.8344 87.3406 81.1167 86.473 80.6928 85.4578C80.269 84.4427 80.1581 83.3257 80.3741 82.248C80.5902 81.1704 81.1236 80.1805 81.9067 79.4036C82.6899 78.6266 83.6877 78.0975 84.774 77.8831C85.8603 77.6688 86.9863 77.7788 88.0096 78.1993C89.0328 78.6198 89.9074 79.3318 90.5228 80.2454C91.1381 81.159 91.4665 82.2331 91.4665 83.3318C91.4665 84.8052 90.8765 86.2183 89.8263 87.2601C88.7761 88.302 87.3518 88.8873 85.8665 88.8873Z" fill="#0184C1"/>
<path d="M108.267 57.4064V31.9291C108.261 29.9657 107.475 28.0837 106.079 26.6921L94.4272 15.1331C93.0245 13.7479 91.1274 12.968 89.1483 12.9627H70.9333V7.40728C70.9333 5.44274 70.1467 3.55867 68.7464 2.16954C67.3461 0.780407 65.447 0 63.4667 0H7.46667C5.48638 0 3.58721 0.780407 2.18694 2.16954C0.786665 3.55867 0 5.44274 0 7.40728L0 83.3318C0 84.3141 0.393332 85.2562 1.09347 85.9507C1.7936 86.6453 2.74319 87.0355 3.73333 87.0355H9.7664C10.6087 90.7172 12.6873 94.0056 15.6612 96.3613C18.6351 98.7169 22.3277 100 26.1333 100C29.9389 100 33.6316 98.7169 36.6055 96.3613C39.5793 94.0056 41.6579 90.7172 42.5003 87.0355H69.4997C70.342 90.7172 72.4206 94.0056 75.3945 96.3613C78.3684 98.7169 82.0611 100 85.8667 100C89.6723 100 93.3649 98.7169 96.3388 96.3613C99.3127 94.0056 101.391 90.7172 102.234 87.0355H108.267C109.257 87.0355 110.206 86.6453 110.907 85.9507C111.607 85.2562 112 84.3141 112 83.3318V61.11C112 60.1278 111.607 59.1857 110.907 58.4912C110.206 57.7966 109.257 57.4064 108.267 57.4064ZM89.1483 16.6664C90.1377 16.6696 91.086 17.0595 91.7877 17.7515L103.439 29.3106C104.137 30.0067 104.53 30.9475 104.533 31.9291V57.4064H70.9333V16.6664H89.1483ZM7.46667 3.70364H63.4667C64.4568 3.70364 65.4064 4.09384 66.1065 4.78841C66.8067 5.48298 67.2 6.42501 67.2 7.40728V57.4064H3.73333V7.40728C3.73333 6.42501 4.12667 5.48298 4.8268 4.78841C5.52694 4.09384 6.47653 3.70364 7.46667 3.70364ZM26.1333 96.2946C23.549 96.2946 21.0227 95.5343 18.8739 94.11C16.7251 92.6856 15.0503 90.6611 14.0613 88.2925C13.0723 85.9238 12.8136 83.3175 13.3177 80.8029C13.8219 78.2884 15.0664 75.9787 16.8938 74.1658C18.7212 72.3529 21.0495 71.1184 23.5842 70.6182C26.1188 70.118 28.7461 70.3747 31.1337 71.3559C33.5214 72.337 35.5621 73.9984 36.9979 76.1301C38.4337 78.2618 39.2 80.7681 39.2 83.3318C39.1956 86.7684 37.8175 90.063 35.368 92.493C32.9184 94.923 29.5975 96.2902 26.1333 96.2946ZM85.8667 96.2946C83.2823 96.2946 80.756 95.5343 78.6072 94.11C76.4584 92.6856 74.7836 90.6611 73.7946 88.2925C72.8057 85.9238 72.5469 83.3175 73.0511 80.8029C73.5553 78.2884 74.7997 75.9787 76.6271 74.1658C78.4545 72.3529 80.7828 71.1184 83.3175 70.6182C85.8522 70.118 88.4794 70.3747 90.8671 71.3559C93.2547 72.337 95.2954 73.9984 96.7312 76.1301C98.167 78.2618 98.9333 80.7681 98.9333 83.3318C98.9289 86.7684 97.5508 90.063 95.1013 92.493C92.6518 94.923 89.3308 96.2902 85.8667 96.2946ZM108.267 83.3318H102.667C102.667 78.9117 100.897 74.6725 97.7461 71.547C94.5955 68.4214 90.3223 66.6655 85.8667 66.6655C81.411 66.6655 77.1379 68.4214 73.9873 71.547C70.8367 74.6725 69.0667 78.9117 69.0667 83.3318H42.9333C42.9333 78.9117 41.1633 74.6725 38.0127 71.547C34.8621 68.4214 30.589 66.6655 26.1333 66.6655C21.6777 66.6655 17.4046 68.4214 14.2539 71.547C11.1033 74.6725 9.33333 78.9117 9.33333 83.3318H3.73333V61.11H108.267V83.3318Z" fill="#0184C1"/>
<path d="M78.3993 40.74H97.066C98.0562 40.74 99.0057 40.3498 99.7059 39.6552C100.406 38.9607 100.799 38.0186 100.799 37.0364V33.4642C100.801 32.9777 100.705 32.4957 100.517 32.0462C100.329 31.5968 100.053 31.1887 99.7055 30.8457L90.2396 21.4552C89.5379 20.7631 88.5896 20.3732 87.6002 20.37H78.3993C77.4092 20.37 76.4596 20.7602 75.7595 21.4548C75.0593 22.1493 74.666 23.0914 74.666 24.0736V37.0364C74.666 38.0186 75.0593 38.9607 75.7595 39.6552C76.4596 40.3498 77.4092 40.74 78.3993 40.74ZM97.066 37.0364H86.5884L90.1108 26.5643L97.066 33.4642V37.0364ZM78.3993 24.0736H87.0159L82.6535 37.0364H78.3993V24.0736Z" fill="#0184C1"/>
<path d="M9.33403 46.2957C9.32978 47.3151 9.60838 48.3161 10.1393 49.1889C10.6703 50.0618 11.4331 50.7729 12.3442 51.2443C13.2554 51.7158 14.2797 51.9295 15.3051 51.8619C16.3305 51.7943 17.3174 51.4482 18.1577 50.8613C18.9979 50.2744 19.6593 49.4695 20.0692 48.5347C20.4791 47.5998 20.6218 46.5711 20.4817 45.5611C20.3416 44.5512 19.924 43.599 19.2747 42.8087C18.6255 42.0185 17.7696 41.4208 16.8007 41.0809V34.844C17.9879 34.4253 18.9985 33.6223 19.6698 32.5644L24.2935 33.5885C24.3457 35.3031 24.9986 36.946 26.1399 38.2348C27.2811 39.5235 28.8393 40.3774 30.5465 40.6497C32.2538 40.9219 34.0033 40.5955 35.4942 39.7266C36.985 38.8576 38.1241 37.5004 38.7154 35.8884L44.978 36.5069C45.1907 37.3516 45.6013 38.1345 46.1764 38.7921L43.9215 42.692C42.608 42.4458 41.249 42.6689 40.0853 43.3216C38.9217 43.9743 38.0284 45.0145 37.5639 46.258C37.0994 47.5015 37.0935 48.868 37.5473 50.1153C38.0012 51.3627 38.8854 52.4105 40.0434 53.073C41.2014 53.7355 42.5584 53.97 43.8741 53.735C45.1897 53.4999 46.379 52.8105 47.2312 51.7888C48.0835 50.7671 48.5437 49.4792 48.5304 48.1531C48.517 46.827 48.031 45.5484 47.1583 44.5438L49.4132 40.6439C50.4424 40.8326 51.5043 40.7313 52.4785 40.3516C53.4526 39.9719 54.3 39.329 54.9245 38.4958C55.5491 37.6626 55.9257 36.6724 56.0118 35.6376C56.0978 34.6029 55.8898 33.5648 55.4114 32.6414C54.9329 31.7179 54.2032 30.9459 53.3049 30.413C52.4067 29.8801 51.3758 29.6076 50.3294 29.6264C49.2829 29.6452 48.2627 29.9545 47.3845 30.5193C46.5062 31.0841 45.8051 31.8818 45.3607 32.8218L39.0924 32.2033C38.8652 30.7202 38.1866 29.3413 37.1474 28.2515L39.8671 23.9368C41.0945 24.2119 42.3797 24.0635 43.5106 23.516C44.6414 22.9686 45.5502 22.0548 46.0868 20.9257L52.4335 21.6294C52.7308 22.9108 53.4752 24.0466 54.5352 24.836C55.5953 25.6254 56.9025 26.0175 58.2258 25.9429C59.5491 25.8683 60.8032 25.3319 61.7662 24.4285C62.7293 23.5251 63.3393 22.3129 63.4884 21.0064C63.6374 19.6998 63.3159 18.3831 62.5808 17.289C61.8456 16.1949 60.7441 15.394 59.4711 15.0279C58.198 14.6618 56.8355 14.7541 55.6245 15.2885C54.4134 15.8229 53.4319 16.7649 52.8535 17.948L46.5068 17.2443C46.2671 16.2096 45.7322 15.2653 44.9658 14.5242C44.1995 13.7831 43.2343 13.2766 42.1855 13.0652C41.1367 12.8539 40.0488 12.9467 39.0517 13.3325C38.0547 13.7182 37.1907 14.3807 36.5631 15.2407L27.9764 12.6759C27.9105 11.3671 27.3802 10.1235 26.4795 9.16497C25.5787 8.20645 24.3653 7.59468 23.0539 7.4378C21.7424 7.28091 20.4172 7.58899 19.3126 8.3076C18.2079 9.02622 17.3949 10.1091 17.0172 11.3648C16.6395 12.6206 16.7214 13.9684 17.2485 15.17C17.7756 16.3716 18.7139 17.3497 19.8976 17.9314C21.0813 18.5131 22.4342 18.661 23.7172 18.3489C25.0001 18.0368 26.1306 17.2848 26.9087 16.2258L35.4954 18.7906C35.5536 19.9442 35.9769 21.0503 36.705 21.9516L33.974 26.296C32.3003 25.7375 30.4788 25.8025 28.8498 26.479C27.2209 27.1554 25.8959 28.397 25.1223 29.9719L20.4724 28.9423C20.3507 27.9628 19.9674 27.0333 19.3623 26.25C18.7571 25.4666 17.952 24.8579 17.0303 24.4866C16.1085 24.1154 15.1035 23.9951 14.1192 24.1383C13.1349 24.2815 12.207 24.6828 11.4314 25.301C10.6559 25.9191 10.0608 26.7315 9.70778 27.6541C9.35475 28.5768 9.25655 29.5763 9.42334 30.5493C9.59013 31.5222 10.0159 32.4333 10.6565 33.1884C11.2971 33.9434 12.1294 34.515 13.0674 34.844V41.0809C11.9793 41.4626 11.0366 42.1684 10.3683 43.1018C9.70006 44.0353 9.33882 45.1507 9.33403 46.2957ZM14.934 48.1475C14.5648 48.1475 14.2039 48.0389 13.897 47.8354C13.59 47.6319 13.3507 47.3427 13.2095 47.0043C13.0682 46.6659 13.0312 46.2936 13.1032 45.9344C13.1753 45.5752 13.353 45.2452 13.6141 44.9862C13.8752 44.7272 14.2078 44.5509 14.5699 44.4794C14.932 44.408 15.3073 44.4446 15.6484 44.5848C15.9895 44.725 16.281 44.9623 16.4861 45.2668C16.6912 45.5714 16.8007 45.9294 16.8007 46.2957C16.8007 46.7868 16.604 47.2578 16.254 47.6051C15.9039 47.9524 15.4291 48.1475 14.934 48.1475ZM42.934 49.9993C42.5648 49.9993 42.2039 49.8907 41.897 49.6872C41.59 49.4837 41.3507 49.1945 41.2095 48.8561C41.0682 48.5178 41.0312 48.1454 41.1032 47.7862C41.1753 47.427 41.353 47.097 41.6141 46.838C41.8752 46.5791 42.2078 46.4027 42.5699 46.3312C42.932 46.2598 43.3073 46.2965 43.6484 46.4366C43.9895 46.5768 44.281 46.8141 44.4861 47.1187C44.6912 47.4232 44.8007 47.7812 44.8007 48.1475C44.8007 48.6386 44.604 49.1096 44.254 49.4569C43.9039 49.8042 43.4291 49.9993 42.934 49.9993ZM50.4007 33.3329C50.7699 33.3329 51.1308 33.4415 51.4378 33.645C51.7447 33.8485 51.984 34.1377 52.1253 34.4761C52.2666 34.8145 52.3035 35.1868 52.2315 35.546C52.1595 35.9052 51.9817 36.2352 51.7206 36.4942C51.4596 36.7532 51.127 36.9295 50.7649 37.001C50.4028 37.0724 50.0274 37.0358 49.6864 36.8956C49.3453 36.7554 49.0537 36.5181 48.8486 36.2136C48.6435 35.909 48.534 35.551 48.534 35.1847C48.534 34.6936 48.7307 34.2226 49.0808 33.8753C49.4308 33.528 49.9056 33.3329 50.4007 33.3329ZM57.8674 18.5184C58.2366 18.5184 58.5975 18.627 58.9044 18.8305C59.2114 19.0339 59.4507 19.3232 59.5919 19.6615C59.7332 19.9999 59.7702 20.3722 59.6982 20.7315C59.6261 21.0907 59.4484 21.4206 59.1873 21.6796C58.9262 21.9386 58.5936 22.115 58.2315 22.1864C57.8694 22.2579 57.4941 22.2212 57.153 22.081C56.8119 21.9409 56.5204 21.7035 56.3153 21.399C56.1102 21.0945 56.0007 20.7364 56.0007 20.3702C56.0007 19.8791 56.1974 19.408 56.5474 19.0608C56.8975 18.7135 57.3723 18.5184 57.8674 18.5184ZM41.0674 16.6666C41.4366 16.6666 41.7975 16.7752 42.1044 16.9786C42.4114 17.1821 42.6507 17.4713 42.7919 17.8097C42.9332 18.1481 42.9702 18.5204 42.8982 18.8796C42.8261 19.2389 42.6484 19.5688 42.3873 19.8278C42.1262 20.0868 41.7936 20.2632 41.4315 20.3346C41.0694 20.4061 40.6941 20.3694 40.353 20.2292C40.0119 20.0891 39.7204 19.8517 39.5153 19.5472C39.3102 19.2427 39.2007 18.8846 39.2007 18.5184C39.2007 18.0272 39.3974 17.5562 39.7474 17.2089C40.0975 16.8617 40.5723 16.6666 41.0674 16.6666ZM22.4007 14.8147C22.0315 14.8147 21.6706 14.7061 21.3636 14.5026C21.0567 14.2992 20.8174 14.01 20.6761 13.6716C20.5348 13.3332 20.4979 12.9609 20.5699 12.6016C20.6419 12.2424 20.8197 11.9125 21.0808 11.6535C21.3418 11.3945 21.6744 11.2181 22.0365 11.1467C22.3986 11.0752 22.774 11.1119 23.115 11.2521C23.4561 11.3922 23.7477 11.6296 23.9528 11.9341C24.1579 12.2386 24.2674 12.5967 24.2674 12.9629C24.2674 13.454 24.0707 13.9251 23.7206 14.2723C23.3706 14.6196 22.8958 14.8147 22.4007 14.8147ZM31.734 29.6293C32.4724 29.6293 33.1942 29.8465 33.8082 30.2535C34.4221 30.6604 34.9006 31.2388 35.1832 31.9156C35.4657 32.5924 35.5397 33.337 35.3956 34.0555C35.2516 34.7739 34.896 35.4338 34.3739 35.9518C33.8518 36.4697 33.1866 36.8225 32.4624 36.9654C31.7382 37.1083 30.9875 37.035 30.3053 36.7546C29.6232 36.4743 29.0401 35.9996 28.6299 35.3906C28.2197 34.7815 28.0007 34.0654 28.0007 33.3329C28.0007 32.3507 28.394 31.4086 29.0942 30.7141C29.7943 30.0195 30.7439 29.6293 31.734 29.6293ZM14.934 27.7775C15.3032 27.7775 15.6641 27.8861 15.9711 28.0896C16.2781 28.293 16.5173 28.5822 16.6586 28.9206C16.7999 29.259 16.8369 29.6313 16.7648 29.9906C16.6928 30.3498 16.515 30.6797 16.254 30.9387C15.9929 31.1977 15.6603 31.3741 15.2982 31.4455C14.9361 31.517 14.5608 31.4803 14.2197 31.3401C13.8786 31.2 13.5871 30.9626 13.382 30.6581C13.1768 30.3536 13.0674 29.9955 13.0674 29.6293C13.0674 29.1381 13.264 28.6671 13.6141 28.3198C13.9642 27.9726 14.439 27.7775 14.934 27.7775Z" fill="#0184C1"/>
</svg>
