<svg width="70" height="100" viewBox="0 0 70 100" fill="none" xmlns="http://www.w3.org/2000/svg">
<path d="M56.6425 95.8821L46.6667 33.2554L22.5217 33.4956L14.2367 95.8821H0V100H70V95.8821H56.6425ZM37.029 92.828V83.7686C40.0725 86.4109 44.3333 90.0141 47.7826 92.725L37.029 92.828ZM37.029 80.1311V79.9252L48.0531 67.6057L52.0097 92.5191C48.8647 90.22 42.744 85.1412 37.029 80.1311ZM47.4783 64.1398L37.029 75.8416V53.6734L47.4444 63.8653L47.4783 64.1398ZM32.971 44.8199L27.5604 37.5449L32.971 37.4762V44.8199ZM37.029 37.4419L41.8647 37.4076L37.029 44.4424V37.4419ZM32.971 49.3496V49.8643L23.1981 59.4385L25.8019 39.7411L32.971 49.3496ZM22.5894 63.8309L32.971 53.7077V75.8759L22.5556 64.2084L22.5894 63.8309ZM32.971 79.9595V80.1654C27.7295 84.7294 22.2174 89.3621 18.8696 91.8671L22.0821 67.743L32.971 79.9595ZM32.971 83.7686V92.8623L21.913 92.9653C25.3961 90.2543 29.8261 86.4795 32.971 83.7686ZM46.7343 59.3699L37.029 49.8986V49.281L43.5894 39.7068L46.7343 59.3699Z" fill="#0184C1"/>
<path d="M46.1255 26.6667V22.7204H37.0289V18.8427H32.971V22.7204H23.8743V26.6667H20.3574V30.7846H49.6425V26.6667H46.1255Z" fill="#0184C1"/>
<path d="M33.9184 15.4796C32.8363 14.5874 31.585 14.1413 30.4015 14.0383C29.2179 13.9354 28.1358 14.1756 27.2227 14.6217C25.7348 15.3766 23.9425 14.759 23.2324 13.2491C22.5222 11.7392 23.0971 9.9204 24.585 9.19976C25.2614 8.8566 26.0053 8.78797 26.6478 8.99387L27.2227 9.13113C28.9474 9.57724 30.4691 10.4695 31.6527 11.5676C32.8363 12.7343 33.614 14.107 33.9184 15.4796Z" fill="#0184C1"/>
<path d="M35.9805 15.4796C36.3186 14.107 37.0964 12.7344 38.2462 11.6019C39.3959 10.4695 40.9515 9.6116 42.6761 9.16549L43.251 9.02822C44.8404 8.61643 46.4636 9.57728 46.9032 11.1901C47.309 12.803 46.3621 14.4502 44.7727 14.8963C44.0626 15.1022 43.3186 14.9992 42.6761 14.6904C41.7631 14.2443 40.681 14.004 39.4974 14.107C38.3476 14.1413 37.0964 14.5874 35.9805 15.4796Z" fill="#0184C1"/>
<path d="M34.9654 11.499L32.26 3.91514C31.719 2.40523 32.4968 0.723747 33.9847 0.174691C35.4726 -0.374366 37.1296 0.414903 37.6707 1.92481C37.9074 2.57681 37.9074 3.29745 37.6707 3.91514L34.9654 11.499Z" fill="#0184C1"/>
</svg>
