<svg width="100" height="100" viewBox="0 0 100 100" fill="none" xmlns="http://www.w3.org/2000/svg">
<path d="M79.8371 60.0996C76.8733 60.0991 73.9485 60.7763 71.2855 62.0797L67.5665 58.354C65.3913 56.1695 64.1698 53.21 64.1698 50.1245C64.1698 47.039 65.3913 44.0795 67.5665 41.895L71.2789 38.1777C73.9463 39.4743 76.8723 40.1484 79.8371 40.1494C84.1886 40.1764 88.4305 38.7836 91.9219 36.1816C95.4133 33.5796 97.9643 29.9098 99.1894 25.7268C100.415 21.5438 100.247 17.075 98.7127 12.9957C97.1781 8.91639 94.3598 5.44836 90.6837 3.11573C87.0075 0.783098 82.6733 -0.287364 78.3361 0.0661272C73.9989 0.419618 69.8945 2.17785 66.643 5.07509C63.3916 7.97234 61.1699 11.8511 60.3138 16.1253C59.4576 20.3994 60.0135 24.8366 61.8975 28.7662L58.1801 32.4919C55.9996 34.6709 53.0454 35.8947 49.9654 35.8947C46.8855 35.8947 43.9312 34.6709 41.7507 32.4919L38.0416 28.7745C40.0832 24.5094 40.553 19.6584 39.3679 15.0798C38.1829 10.5011 35.4194 6.48998 31.5664 3.75604C27.7133 1.0221 23.0192 -0.258387 18.3145 0.141136C13.6098 0.54066 9.19776 2.59444 5.85909 5.93909C2.52043 9.28375 0.470324 13.7037 0.0715153 18.4168C-0.327293 23.13 0.950903 27.8325 3.67995 31.6925C6.40899 35.5524 10.413 38.3208 14.9834 39.508C19.5539 40.6952 24.3962 40.2245 28.6536 38.1793L32.3643 41.895C34.5395 44.0795 35.761 47.039 35.761 50.1245C35.761 53.21 34.5395 56.1695 32.3643 58.354L28.6453 62.078C24.7511 60.2273 20.362 59.6942 16.1392 60.559C11.9163 61.4238 8.08818 63.6396 5.23133 66.8728C2.37448 70.106 0.643554 74.1816 0.299207 78.4857C-0.0451405 82.7898 1.01574 87.0895 3.32208 90.7373C5.62842 94.3851 9.05537 97.1834 13.0869 98.711C17.1183 100.238 21.5361 100.412 25.6748 99.2068C29.8136 98.0011 33.4493 95.4809 36.0344 92.0258C38.6195 88.5707 40.0141 84.3677 40.0082 80.0498C40.0072 77.0797 39.3343 74.1484 38.0399 71.4762L41.7507 67.7571C43.9312 65.5781 46.8855 64.3543 49.9654 64.3543C53.0454 64.3543 55.9996 65.5781 58.1801 67.7571L61.8992 71.4828C60.5982 74.1506 59.9222 77.0807 59.9227 80.0498C59.9227 83.9956 61.0906 87.8527 63.2789 91.1335C65.4671 94.4143 68.5773 96.9714 72.2162 98.4814C75.8551 99.9914 79.8592 100.386 83.7223 99.6167C87.5853 98.8469 91.1337 96.9468 93.9188 94.1567C96.7039 91.3666 98.6006 87.8118 99.369 83.9419C100.137 80.0719 99.743 76.0606 98.2357 72.4152C96.7284 68.7698 94.1759 65.654 90.901 63.4618C87.6261 61.2697 83.7758 60.0996 79.8371 60.0996ZM63.2417 20.1992C63.2417 16.9111 64.215 13.6968 66.0386 10.9628C67.8621 8.22877 70.4539 6.09788 73.4864 4.83956C76.5188 3.58124 79.8555 3.25201 83.0747 3.89349C86.2939 4.53498 89.2509 6.11837 91.5719 8.44344C93.8928 10.7685 95.4733 13.7308 96.1137 16.9558C96.754 20.1808 96.4254 23.5235 95.1693 26.5614C93.9132 29.5992 91.7861 32.1957 89.057 34.0225C86.3279 35.8493 83.1194 36.8244 79.8371 36.8244C77.7617 36.8297 75.7041 36.441 73.7732 35.6789L79.3028 30.1394C80.5477 28.8922 81.2471 27.2007 81.2471 25.437C81.2471 23.6732 80.5477 21.9817 79.3028 20.7345C78.0578 19.4874 76.3693 18.7867 74.6087 18.7867C72.8482 18.7867 71.1597 19.4874 69.9147 20.7345L64.4034 26.2641C63.6421 24.3327 63.2481 22.2757 63.2417 20.1992ZM20.0937 36.8244C16.5445 36.8262 13.088 35.6886 10.2314 33.5784C7.37482 31.4683 5.26833 28.4967 4.22095 25.0994C3.17358 21.7022 3.24043 18.0581 4.4117 14.7017C5.58297 11.3453 7.79702 8.45324 10.7291 6.44968C13.6612 4.44611 17.157 3.43652 20.7037 3.56897C24.2505 3.70142 27.6616 4.96895 30.4366 7.18564C33.2117 9.40233 35.2046 12.4515 36.1232 15.886C37.0418 19.3204 36.8376 22.9594 35.5407 26.2691L30.0161 20.7345C29.3996 20.117 28.6678 19.6272 27.8624 19.2929C27.057 18.9587 26.1938 18.7867 25.3221 18.7867C24.4503 18.7867 23.5871 18.9587 22.7817 19.2929C21.9763 19.6272 21.2445 20.117 20.6281 20.7345C19.3831 21.9817 18.6837 23.6732 18.6837 25.437C18.6837 27.2007 19.3831 28.8922 20.6281 30.1394L26.1527 35.6739C24.2215 36.4297 22.167 36.8198 20.0937 36.8244ZM36.6891 80.0498C36.6973 83.6117 35.5654 87.0824 33.4596 89.9524C31.3539 92.8223 28.3851 94.9404 24.9892 95.9957C21.5933 97.0509 17.9492 96.9877 14.5918 95.8153C11.2344 94.643 8.34057 92.4232 6.33522 89.4819C4.32988 86.5406 3.31863 83.0327 3.44992 79.4732C3.58121 75.9138 4.84814 72.4902 7.0647 69.7052C9.28126 66.9202 12.3307 64.9204 15.7653 63.9995C19.1999 63.0786 22.8388 63.285 26.1477 64.5884L20.6281 70.1179C19.3831 71.3651 18.6837 73.0566 18.6837 74.8203C18.6837 76.5841 19.3831 78.2756 20.6281 79.5228C21.873 80.7699 23.5615 81.4706 25.3221 81.4706C27.0827 81.4706 28.7711 80.7699 30.0161 79.5228L35.5457 73.9833C36.3054 75.9151 36.6933 77.9735 36.6891 80.0498ZM39.4041 65.4063L27.6695 77.1637C27.3612 77.4725 26.9952 77.7175 26.5925 77.8846C26.1897 78.0517 25.758 78.1377 25.3221 78.1377C24.8861 78.1377 24.4544 78.0517 24.0516 77.8846C23.6489 77.7175 23.2829 77.4725 22.9746 77.1637C22.6664 76.8548 22.4218 76.4882 22.255 76.0847C22.0882 75.6812 22.0023 75.2488 22.0023 74.812C22.0023 74.3753 22.0882 73.9428 22.255 73.5393C22.4218 73.1358 22.6664 72.7692 22.9746 72.4604L34.7109 60.7048C37.5079 57.8965 39.0787 54.0915 39.0787 50.1245C39.0787 46.1575 37.5079 42.3524 34.7109 39.5442L22.9746 27.7886C22.3521 27.1649 22.0023 26.319 22.0023 25.437C22.0023 24.5549 22.3521 23.709 22.9746 23.0853C23.5972 22.4616 24.4416 22.1113 25.3221 22.1113C26.2025 22.1113 27.0469 22.4616 27.6695 23.0853L39.4041 34.8427C42.2077 37.6439 46.0058 39.2169 49.9654 39.2169C53.9251 39.2169 57.7231 37.6439 60.5267 34.8427L72.2613 23.0853C72.5696 22.7765 72.9356 22.5315 73.3383 22.3644C73.7411 22.1973 74.1728 22.1113 74.6087 22.1113C75.0447 22.1113 75.4764 22.1973 75.8792 22.3644C76.2819 22.5315 76.6479 22.7765 76.9562 23.0853C77.2644 23.3942 77.509 23.7608 77.6758 24.1643C77.8426 24.5678 77.9285 25.0002 77.9285 25.437C77.9285 25.8737 77.8426 26.3062 77.6758 26.7097C77.509 27.1131 77.2644 27.4798 76.9562 27.7886L65.2199 39.5442C62.4229 42.3524 60.8521 46.1575 60.8521 50.1245C60.8521 54.0915 62.4229 57.8965 65.2199 60.7048L76.9562 72.4604C77.5788 73.0841 77.9285 73.93 77.9285 74.812C77.9285 75.6941 77.5788 76.54 76.9562 77.1637C76.3336 77.7874 75.4892 78.1377 74.6087 78.1377C73.7283 78.1377 72.8839 77.7874 72.2613 77.1637L60.5267 65.4063C57.7231 62.6051 53.9251 61.0321 49.9654 61.0321C46.0058 61.0321 42.2077 62.6051 39.4041 65.4063ZM79.8371 96.675C75.4372 96.6701 71.2189 94.917 68.1077 91.8002C64.9966 88.6834 63.2466 84.4576 63.2417 80.0498C63.2354 77.9717 63.6252 75.9116 64.3901 73.9799L69.9147 79.5145C71.1597 80.7616 72.8482 81.4623 74.6087 81.4623C76.3693 81.4623 78.0578 80.7616 79.3028 79.5145C80.5477 78.2673 81.2471 76.5758 81.2471 74.812C81.2471 73.0483 80.5477 71.3568 79.3028 70.1096L73.7782 64.5751C75.7063 63.8086 77.7628 63.4181 79.8371 63.4246C84.2385 63.4246 88.4596 65.1762 91.5719 68.294C94.6841 71.4118 96.4325 75.6405 96.4325 80.0498C96.4325 84.4591 94.6841 88.6877 91.5719 91.8056C88.4596 94.9234 84.2385 96.675 79.8371 96.675Z" fill="#0184C1"/>
<path d="M78.1776 16.8742C79.498 16.8742 80.7643 17.3997 81.698 18.335C82.6317 19.2704 83.1562 20.539 83.1562 21.8618C83.1562 22.3027 83.3311 22.7256 83.6423 23.0374C83.9535 23.3491 84.3756 23.5243 84.8158 23.5243C85.2559 23.5243 85.678 23.3491 85.9892 23.0374C86.3005 22.7256 86.4753 22.3027 86.4753 21.8618C86.4727 19.658 85.5976 17.5451 84.0421 15.9868C82.4865 14.4285 80.3775 13.5518 78.1776 13.5492C77.7375 13.5492 77.3154 13.7244 77.0041 14.0361C76.6929 14.3479 76.5181 14.7708 76.5181 15.2117C76.5181 15.6526 76.6929 16.0755 77.0041 16.3873C77.3154 16.6991 77.7375 16.8742 78.1776 16.8742Z" fill="#0184C1"/>
<path d="M78.1776 10.2241C81.2575 10.2276 84.2102 11.4548 86.388 13.6365C88.5658 15.8183 89.7909 18.7763 89.7944 21.8617C89.7944 22.3026 89.9692 22.7255 90.2805 23.0373C90.5917 23.3491 91.0138 23.5242 91.4539 23.5242C91.8941 23.5242 92.3162 23.3491 92.6274 23.0373C92.9386 22.7255 93.1135 22.3026 93.1135 21.8617C93.1086 17.8948 91.5335 14.0918 88.7335 11.2868C85.9335 8.48186 82.1374 6.90389 78.1776 6.89905C77.7375 6.89905 77.3154 7.07421 77.0041 7.38599C76.6929 7.69777 76.5181 8.12064 76.5181 8.56156C76.5181 9.00249 76.6929 9.42536 77.0041 9.73714C77.3154 10.0489 77.7375 10.2241 78.1776 10.2241Z" fill="#0184C1"/>
<path d="M23.4128 15.2117C23.4128 14.7708 23.238 14.3479 22.9267 14.0361C22.6155 13.7244 22.1934 13.5492 21.7533 13.5492C19.5534 13.5518 17.4444 14.4285 15.8888 15.9868C14.3333 17.5451 13.4582 19.658 13.4556 21.8618C13.4556 22.3027 13.6304 22.7256 13.9416 23.0374C14.2529 23.3491 14.675 23.5243 15.1151 23.5243C15.5552 23.5243 15.9774 23.3491 16.2886 23.0374C16.5998 22.7256 16.7746 22.3027 16.7746 21.8618C16.7746 20.539 17.2992 19.2704 18.2329 18.335C19.1665 17.3997 20.4329 16.8742 21.7533 16.8742C22.1934 16.8742 22.6155 16.6991 22.9267 16.3873C23.238 16.0755 23.4128 15.6526 23.4128 15.2117Z" fill="#0184C1"/>
<path d="M21.7532 10.2241C22.1934 10.2241 22.6155 10.0489 22.9267 9.73714C23.2379 9.42536 23.4128 9.00249 23.4128 8.56156C23.4128 8.12064 23.2379 7.69777 22.9267 7.38599C22.6155 7.07421 22.1934 6.89905 21.7532 6.89905C17.7935 6.90389 13.9973 8.48186 11.1973 11.2868C8.39736 14.0918 6.82221 17.8948 6.81738 21.8617C6.81738 22.3026 6.99223 22.7255 7.30345 23.0373C7.61468 23.3491 8.03679 23.5242 8.47692 23.5242C8.91706 23.5242 9.33917 23.3491 9.6504 23.0373C9.96162 22.7255 10.1365 22.3026 10.1365 21.8617C10.14 18.7763 11.365 15.8183 13.5428 13.6365C15.7206 11.4548 18.6734 10.2276 21.7532 10.2241Z" fill="#0184C1"/>
<path d="M78.1776 86.6998C80.3775 86.6972 82.4865 85.8206 84.0421 84.2622C85.5976 82.7039 86.4727 80.5911 86.4753 78.3872C86.4753 77.9463 86.3005 77.5235 85.9892 77.2117C85.678 76.8999 85.2559 76.7247 84.8158 76.7247C84.3756 76.7247 83.9535 76.8999 83.6423 77.2117C83.3311 77.5235 83.1562 77.9463 83.1562 78.3872C83.1562 79.71 82.6317 80.9786 81.698 81.914C80.7643 82.8493 79.498 83.3748 78.1776 83.3748C77.7375 83.3748 77.3154 83.55 77.0041 83.8617C76.6929 84.1735 76.5181 84.5964 76.5181 85.0373C76.5181 85.4782 76.6929 85.9011 77.0041 86.2129C77.3154 86.5247 77.7375 86.6998 78.1776 86.6998Z" fill="#0184C1"/>
<path d="M89.7944 78.3872C89.7909 81.4727 88.5658 84.4307 86.388 86.6124C84.2102 88.7941 81.2575 90.0213 78.1776 90.0249C77.7375 90.0249 77.3154 90.2 77.0041 90.5118C76.6929 90.8236 76.5181 91.2465 76.5181 91.6874C76.5181 92.1283 76.6929 92.5512 77.0041 92.863C77.3154 93.1747 77.7375 93.3499 78.1776 93.3499C82.1374 93.3451 85.9335 91.7671 88.7335 88.9621C91.5335 86.1571 93.1086 82.3541 93.1135 78.3872C93.1135 77.9463 92.9386 77.5235 92.6274 77.2117C92.3162 76.8999 91.8941 76.7247 91.4539 76.7247C91.0138 76.7247 90.5917 76.8999 90.2805 77.2117C89.9692 77.5235 89.7944 77.9463 89.7944 78.3872Z" fill="#0184C1"/>
<path d="M21.7533 83.3748C20.4329 83.3748 19.1665 82.8493 18.2329 81.914C17.2992 80.9786 16.7746 79.71 16.7746 78.3872C16.7746 77.9463 16.5998 77.5235 16.2886 77.2117C15.9774 76.8999 15.5552 76.7247 15.1151 76.7247C14.675 76.7247 14.2529 76.8999 13.9416 77.2117C13.6304 77.5235 13.4556 77.9463 13.4556 78.3872C13.4582 80.5911 14.3333 82.7039 15.8888 84.2622C17.4444 85.8206 19.5534 86.6972 21.7533 86.6998C22.1934 86.6998 22.6155 86.5247 22.9267 86.2129C23.238 85.9011 23.4128 85.4782 23.4128 85.0373C23.4128 84.5964 23.238 84.1735 22.9267 83.8617C22.6155 83.55 22.1934 83.3748 21.7533 83.3748Z" fill="#0184C1"/>
<path d="M21.7532 90.0249C18.6734 90.0213 15.7206 88.7941 13.5428 86.6124C11.365 84.4307 10.14 81.4727 10.1365 78.3872C10.1365 77.9463 9.96162 77.5235 9.6504 77.2117C9.33917 76.8999 8.91706 76.7247 8.47692 76.7247C8.03679 76.7247 7.61468 76.8999 7.30345 77.2117C6.99223 77.5235 6.81738 77.9463 6.81738 78.3872C6.82221 82.3541 8.39736 86.1571 11.1973 88.9621C13.9973 91.7671 17.7935 93.3451 21.7532 93.3499C22.1934 93.3499 22.6155 93.1747 22.9267 92.863C23.2379 92.5512 23.4128 92.1283 23.4128 91.6874C23.4128 91.2465 23.2379 90.8236 22.9267 90.5118C22.6155 90.2 22.1934 90.0249 21.7532 90.0249Z" fill="#0184C1"/>
<path d="M49.9654 45.137C48.9808 45.137 48.0182 45.4295 47.1995 45.9775C46.3807 46.5256 45.7426 47.3045 45.3658 48.2159C44.989 49.1272 44.8904 50.13 45.0825 51.0975C45.2746 52.065 45.7488 52.9537 46.445 53.6512C47.1413 54.3488 48.0284 54.8238 48.9942 55.0162C49.9599 55.2087 50.9609 55.1099 51.8707 54.7324C52.7804 54.3549 53.558 53.7156 54.105 52.8954C54.6521 52.0752 54.9441 51.111 54.9441 50.1245C54.9441 48.8017 54.4195 47.5331 53.4859 46.5978C52.5522 45.6624 51.2859 45.137 49.9654 45.137ZM49.9654 51.787C49.6372 51.787 49.3164 51.6895 49.0434 51.5068C48.7705 51.3242 48.5578 51.0645 48.4322 50.7607C48.3066 50.4569 48.2738 50.1227 48.3378 49.8002C48.4018 49.4777 48.5599 49.1814 48.792 48.9489C49.0241 48.7164 49.3198 48.5581 49.6417 48.4939C49.9636 48.4298 50.2973 48.4627 50.6005 48.5885C50.9038 48.7144 51.1629 48.9275 51.3453 49.2009C51.5277 49.4743 51.625 49.7957 51.625 50.1245C51.625 50.5654 51.4501 50.9883 51.1389 51.3001C50.8277 51.6119 50.4056 51.787 49.9654 51.787Z" fill="#0184C1"/>
</svg>
