<svg width="60" height="60" viewBox="0 0 60 60" fill="none" xmlns="http://www.w3.org/2000/svg">
<path d="M47.9023 36.0598C46.124 36.0595 44.3691 36.4658 42.7713 37.2478L40.5399 35.0124C39.2348 33.7017 38.5019 31.926 38.5019 30.0747C38.5019 28.2234 39.2348 26.4477 40.5399 25.137L42.7673 22.9066C44.3678 23.6846 46.1234 24.0891 47.9023 24.0896C50.5131 24.1058 53.0583 23.2702 55.1531 21.709C57.248 20.1478 58.7786 17.9459 59.5136 15.4361C60.2487 12.9263 60.1483 10.245 59.2276 7.7974C58.3069 5.34983 56.6159 3.26902 54.4102 1.86944C52.2045 0.469859 49.604 -0.172418 47.0017 0.0396763C44.3994 0.251771 41.9367 1.30671 39.9858 3.04506C38.035 4.7834 36.7019 7.11068 36.1883 9.67516C35.6746 12.2396 36.0081 14.9019 37.1385 17.2597L34.9081 19.4951C33.5998 20.8026 31.8272 21.5368 29.9792 21.5368C28.1313 21.5368 26.3587 20.8026 25.0504 19.4951L22.825 17.2647C24.0499 14.7057 24.3318 11.7951 23.6208 9.04786C22.9097 6.30067 21.2516 3.89399 18.9398 2.25362C16.628 0.613261 13.8115 -0.155032 10.9887 0.0846817C8.16586 0.324396 5.51866 1.55666 3.51546 3.56346C1.51226 5.57025 0.282194 8.2222 0.0429092 11.0501C-0.196376 13.878 0.570542 16.6995 2.20797 19.0155C3.84539 21.3314 6.24777 22.9925 8.99005 23.7048C11.7323 24.4171 14.6377 24.1347 17.1922 22.9076L19.4186 25.137C20.7237 26.4477 21.4566 28.2234 21.4566 30.0747C21.4566 31.926 20.7237 33.7017 19.4186 35.0124L17.1872 37.2468C14.8506 36.1364 12.2172 35.8165 9.68349 36.3354C7.14977 36.8543 4.85291 38.1838 3.1388 40.1237C1.42469 42.0636 0.386132 44.5089 0.179524 47.0914C-0.0270843 49.6739 0.609442 52.2537 1.99325 54.4424C3.37705 56.631 5.43322 58.3101 7.85211 59.2266C10.271 60.1431 12.9217 60.2475 15.4049 59.5241C17.8882 58.8006 20.0696 57.2885 21.6206 55.2155C23.1717 53.1424 24.0085 50.6206 24.0049 48.0299C24.0043 46.2478 23.6005 44.489 22.824 42.8857L25.0504 40.6543C26.3587 39.3468 28.1313 38.6126 29.9792 38.6126C31.8272 38.6126 33.5998 39.3468 34.9081 40.6543L37.1395 42.8897C36.3589 44.4904 35.9533 46.2484 35.9536 48.0299C35.9536 50.3973 36.6544 52.7116 37.9673 54.6801C39.2802 56.6486 41.1464 58.1828 43.3297 59.0888C45.5131 59.9948 47.9155 60.2319 50.2334 59.77C52.5512 59.3081 54.6802 58.1681 56.3513 56.494C58.0223 54.82 59.1603 52.6871 59.6214 50.3651C60.0824 48.0432 59.8458 45.6364 58.9414 43.4491C58.0371 41.2619 56.5056 39.3924 54.5406 38.0771C52.5757 36.7618 50.2655 36.0598 47.9023 36.0598ZM37.945 12.1195C37.945 10.1466 38.529 8.21805 39.6231 6.57766C40.7173 4.93726 42.2724 3.65873 44.0918 2.90374C45.9113 2.14874 47.9133 1.9512 49.8448 2.3361C51.7764 2.72099 53.5506 3.67102 54.9431 5.06607C56.3357 6.46111 57.284 8.2385 57.6682 10.1735C58.0524 12.1085 57.8552 14.1141 57.1016 15.9368C56.3479 17.7595 55.0717 19.3174 53.4342 20.4135C51.7968 21.5096 49.8716 22.0946 47.9023 22.0946C46.657 22.0978 45.4225 21.8646 44.2639 21.4073L47.5817 18.0836C48.3286 17.3353 48.7482 16.3204 48.7482 15.2622C48.7482 14.2039 48.3286 13.189 47.5817 12.4407C46.8347 11.6924 45.8216 11.272 44.7653 11.272C43.7089 11.272 42.6958 11.6924 41.9488 12.4407L38.642 15.7584C38.1852 14.5996 37.9488 13.3654 37.945 12.1195ZM12.0562 22.0946C9.92667 22.0957 7.85283 21.4132 6.13886 20.1471C4.42489 18.881 3.161 17.098 2.53257 15.0597C1.90415 13.0213 1.94426 10.8349 2.64702 8.82103C3.34978 6.80719 4.67821 5.07194 6.43746 3.86981C8.19671 2.66767 10.2942 2.06191 12.4222 2.14138C14.5503 2.22085 16.5969 2.98137 18.262 4.31138C19.927 5.6414 21.1228 7.47091 21.6739 9.53158C22.2251 11.5922 22.1026 13.7756 21.3244 15.7614L18.0096 12.4407C17.6398 12.0702 17.2007 11.7763 16.7175 11.5758C16.2342 11.3752 15.7163 11.272 15.1932 11.272C14.6702 11.272 14.1523 11.3752 13.669 11.5758C13.1858 11.7763 12.7467 12.0702 12.3768 12.4407C11.6299 13.189 11.2102 14.2039 11.2102 15.2622C11.2102 16.3204 11.6299 17.3353 12.3768 18.0836L15.6916 21.4043C14.5329 21.8578 13.3002 22.0919 12.0562 22.0946ZM22.0135 48.0299C22.0184 50.167 21.3393 52.2494 20.0758 53.9714C18.8123 55.6934 17.0311 56.9643 14.9935 57.5974C12.956 58.2305 10.7695 58.1926 8.75505 57.4892C6.74061 56.7858 5.00434 55.4539 3.80113 53.6891C2.59793 51.9244 1.99118 49.8196 2.06995 47.6839C2.14873 45.5483 2.90888 43.4941 4.23882 41.8231C5.56875 40.1521 7.39841 38.9523 9.45918 38.3997C11.5199 37.8471 13.7033 37.971 15.6886 38.753L12.3768 42.0708C11.6299 42.819 11.2102 43.834 11.2102 44.8922C11.2102 45.9505 11.6299 46.9654 12.3768 47.7137C13.1238 48.462 14.1369 48.8824 15.1932 48.8824C16.2496 48.8824 17.2627 48.462 18.0096 47.7137L21.3274 44.39C21.7832 45.5491 22.016 46.7841 22.0135 48.0299ZM23.6425 39.2438L16.6017 46.2982C16.4167 46.4835 16.1971 46.6305 15.9555 46.7308C15.7138 46.831 15.4548 46.8826 15.1932 46.8826C14.9317 46.8826 14.6727 46.831 14.431 46.7308C14.1893 46.6305 13.9697 46.4835 13.7848 46.2982C13.5998 46.1129 13.4531 45.8929 13.353 45.6508C13.2529 45.4087 13.2014 45.1493 13.2014 44.8872C13.2014 44.6252 13.2529 44.3657 13.353 44.1236C13.4531 43.8815 13.5998 43.6615 13.7848 43.4762L20.8265 36.4229C22.5047 34.7379 23.4472 32.4549 23.4472 30.0747C23.4472 27.6945 22.5047 25.4115 20.8265 23.7265L13.7848 16.6732C13.4112 16.2989 13.2014 15.7914 13.2014 15.2622C13.2014 14.733 13.4112 14.2254 13.7848 13.8512C14.1583 13.477 14.665 13.2668 15.1932 13.2668C15.7215 13.2668 16.2281 13.477 16.6017 13.8512L23.6425 20.9056C25.3246 22.5863 27.6035 23.5302 29.9792 23.5302C32.355 23.5302 34.6339 22.5863 36.316 20.9056L43.3568 13.8512C43.5418 13.6659 43.7613 13.5189 44.003 13.4186C44.2447 13.3184 44.5037 13.2668 44.7653 13.2668C45.0268 13.2668 45.2858 13.3184 45.5275 13.4186C45.7692 13.5189 45.9887 13.6659 46.1737 13.8512C46.3587 14.0365 46.5054 14.2565 46.6055 14.4986C46.7056 14.7407 46.7571 15.0001 46.7571 15.2622C46.7571 15.5242 46.7056 15.7837 46.6055 16.0258C46.5054 16.2679 46.3587 16.4879 46.1737 16.6732L39.1319 23.7265C37.4537 25.4115 36.5112 27.6945 36.5112 30.0747C36.5112 32.4549 37.4537 34.7379 39.1319 36.4229L46.1737 43.4762C46.5472 43.8505 46.7571 44.358 46.7571 44.8872C46.7571 45.4164 46.5472 45.924 46.1737 46.2982C45.8002 46.6724 45.2935 46.8826 44.7653 46.8826C44.237 46.8826 43.7303 46.6724 43.3568 46.2982L36.316 39.2438C34.6339 37.5631 32.355 36.6192 29.9792 36.6192C27.6035 36.6192 25.3246 37.5631 23.6425 39.2438ZM47.9023 58.005C45.2623 58.0021 42.7314 56.9502 40.8647 55.0801C38.9979 53.2101 37.9479 50.6745 37.945 48.0299C37.9412 46.783 38.1751 45.5469 38.6341 44.388L41.9488 47.7087C42.6958 48.457 43.7089 48.8774 44.7653 48.8774C45.8216 48.8774 46.8347 48.457 47.5817 47.7087C48.3286 46.9604 48.7482 45.9455 48.7482 44.8872C48.7482 43.829 48.3286 42.8141 47.5817 42.0658L44.2669 38.7451C45.4238 38.2852 46.6577 38.0509 47.9023 38.0548C50.5431 38.0548 53.0758 39.1057 54.9431 40.9764C56.8105 42.8471 57.8595 45.3843 57.8595 48.0299C57.8595 50.6754 56.8105 53.2126 54.9431 55.0833C53.0758 56.954 50.5431 58.005 47.9023 58.005Z" fill="white"/>
<path d="M46.9066 10.1245C47.6989 10.1245 48.4587 10.4398 49.0189 11.001C49.5791 11.5622 49.8938 12.3233 49.8938 13.117C49.8938 13.3816 49.9987 13.6353 50.1854 13.8224C50.3722 14.0094 50.6254 14.1145 50.8895 14.1145C51.1536 14.1145 51.4069 14.0094 51.5936 13.8224C51.7803 13.6353 51.8852 13.3816 51.8852 13.117C51.8837 11.7947 51.3586 10.527 50.4253 9.59202C49.492 8.65702 48.2265 8.13104 46.9066 8.12946C46.6425 8.12946 46.3893 8.23455 46.2025 8.42162C46.0158 8.60869 45.9109 8.86241 45.9109 9.12697C45.9109 9.39152 46.0158 9.64524 46.2025 9.83231C46.3893 10.0194 46.6425 10.1245 46.9066 10.1245Z" fill="white"/>
<path d="M46.9066 6.13448C48.7545 6.1366 50.5262 6.87294 51.8329 8.18196C53.1396 9.49099 53.8746 11.2658 53.8767 13.1171C53.8767 13.3816 53.9816 13.6353 54.1683 13.8224C54.3551 14.0095 54.6083 14.1146 54.8724 14.1146C55.1365 14.1146 55.3898 14.0095 55.5765 13.8224C55.7632 13.6353 55.8681 13.3816 55.8681 13.1171C55.8652 10.7369 54.9201 8.45514 53.2402 6.77215C51.5602 5.08915 49.2825 4.14237 46.9066 4.13947C46.6425 4.13947 46.3893 4.24456 46.2025 4.43163C46.0158 4.6187 45.9109 4.87242 45.9109 5.13698C45.9109 5.40153 46.0158 5.65525 46.2025 5.84232C46.3893 6.02939 46.6425 6.13448 46.9066 6.13448Z" fill="white"/>
<path d="M14.0477 9.12697C14.0477 8.86241 13.9428 8.60869 13.7561 8.42162C13.5693 8.23455 13.3161 8.12946 13.052 8.12946C11.7321 8.13104 10.4666 8.65702 9.53331 9.59202C8.59998 10.527 8.07495 11.7947 8.07336 13.117C8.07336 13.3816 8.17827 13.6353 8.36501 13.8224C8.55174 14.0094 8.80501 14.1145 9.06909 14.1145C9.33317 14.1145 9.58644 14.0094 9.77317 13.8224C9.95991 13.6353 10.0648 13.3816 10.0648 13.117C10.0648 12.3233 10.3795 11.5622 10.9397 11.001C11.4999 10.4398 12.2597 10.1245 13.052 10.1245C13.3161 10.1245 13.5693 10.0194 13.7561 9.83231C13.9428 9.64524 14.0477 9.39152 14.0477 9.12697Z" fill="white"/>
<path d="M13.052 6.13448C13.3161 6.13448 13.5693 6.02939 13.7561 5.84232C13.9428 5.65525 14.0477 5.40153 14.0477 5.13698C14.0477 4.87242 13.9428 4.6187 13.7561 4.43163C13.5693 4.24456 13.3161 4.13947 13.052 4.13947C10.6761 4.14237 8.39841 5.08915 6.71842 6.77215C5.03844 8.45514 4.09335 10.7369 4.09045 13.1171C4.09045 13.3816 4.19536 13.6353 4.3821 13.8224C4.56883 14.0095 4.8221 14.1146 5.08618 14.1146C5.35026 14.1146 5.60353 14.0095 5.79026 13.8224C5.977 13.6353 6.0819 13.3816 6.0819 13.1171C6.08401 11.2658 6.81903 9.49099 8.12572 8.18196C9.4324 6.87294 11.204 6.1366 13.052 6.13448Z" fill="white"/>
<path d="M46.9066 52.0199C48.2265 52.0183 49.492 51.4923 50.4253 50.5573C51.3586 49.6223 51.8837 48.3547 51.8852 47.0324C51.8852 46.7678 51.7803 46.5141 51.5936 46.327C51.4069 46.1399 51.1536 46.0349 50.8895 46.0349C50.6254 46.0349 50.3722 46.1399 50.1854 46.327C49.9987 46.5141 49.8938 46.7678 49.8938 47.0324C49.8938 47.826 49.5791 48.5872 49.0189 49.1484C48.4587 49.7096 47.6989 50.0249 46.9066 50.0249C46.6425 50.0249 46.3893 50.13 46.2025 50.3171C46.0158 50.5041 45.9109 50.7578 45.9109 51.0224C45.9109 51.287 46.0158 51.5407 46.2025 51.7277C46.3893 51.9148 46.6425 52.0199 46.9066 52.0199Z" fill="white"/>
<path d="M53.8767 47.0324C53.8746 48.8836 53.1396 50.6584 51.8329 51.9675C50.5262 53.2765 48.7545 54.0128 46.9066 54.0149C46.6425 54.0149 46.3893 54.12 46.2025 54.3071C46.0158 54.4942 45.9109 54.7479 45.9109 55.0124C45.9109 55.277 46.0158 55.5307 46.2025 55.7178C46.3893 55.9049 46.6425 56.0099 46.9066 56.0099C49.2825 56.007 51.5602 55.0603 53.2402 53.3773C54.9201 51.6943 55.8652 49.4125 55.8681 47.0324C55.8681 46.7678 55.7632 46.5141 55.5765 46.327C55.3898 46.1399 55.1365 46.0349 54.8724 46.0349C54.6083 46.0349 54.3551 46.1399 54.1683 46.327C53.9816 46.5141 53.8767 46.7678 53.8767 47.0324Z" fill="white"/>
<path d="M13.052 50.0249C12.2597 50.0249 11.4999 49.7096 10.9397 49.1484C10.3795 48.5872 10.0648 47.826 10.0648 47.0324C10.0648 46.7678 9.95991 46.5141 9.77317 46.327C9.58644 46.1399 9.33317 46.0349 9.06909 46.0349C8.80501 46.0349 8.55174 46.1399 8.36501 46.327C8.17827 46.5141 8.07336 46.7678 8.07336 47.0324C8.07495 48.3547 8.59998 49.6223 9.53331 50.5573C10.4666 51.4923 11.7321 52.0183 13.052 52.0199C13.3161 52.0199 13.5693 51.9148 13.7561 51.7277C13.9428 51.5407 14.0477 51.287 14.0477 51.0224C14.0477 50.7578 13.9428 50.5041 13.7561 50.3171C13.5693 50.13 13.3161 50.0249 13.052 50.0249Z" fill="white"/>
<path d="M13.052 54.0149C11.204 54.0128 9.4324 53.2765 8.12572 51.9675C6.81903 50.6584 6.08401 48.8836 6.0819 47.0324C6.0819 46.7678 5.977 46.5141 5.79026 46.327C5.60353 46.1399 5.35026 46.0349 5.08618 46.0349C4.8221 46.0349 4.56883 46.1399 4.3821 46.327C4.19536 46.5141 4.09045 46.7678 4.09045 47.0324C4.09335 49.4125 5.03844 51.6943 6.71842 53.3773C8.39841 55.0603 10.6761 56.007 13.052 56.0099C13.3161 56.0099 13.5693 55.9049 13.7561 55.7178C13.9428 55.5307 14.0477 55.277 14.0477 55.0124C14.0477 54.7479 13.9428 54.4942 13.7561 54.3071C13.5693 54.12 13.3161 54.0149 13.052 54.0149Z" fill="white"/>
<path d="M29.9792 27.0822C29.3884 27.0822 28.8109 27.2577 28.3197 27.5865C27.8284 27.9153 27.4455 28.3827 27.2195 28.9295C26.9934 29.4763 26.9342 30.078 27.0495 30.6585C27.1647 31.239 27.4492 31.7722 27.867 32.1907C28.2848 32.6092 28.817 32.8942 29.3965 33.0097C29.9759 33.1252 30.5765 33.0659 31.1224 32.8394C31.6682 32.6129 32.1347 32.2294 32.463 31.7372C32.7912 31.2451 32.9664 30.6665 32.9664 30.0747C32.9664 29.281 32.6517 28.5199 32.0915 27.9586C31.5313 27.3974 30.7715 27.0822 29.9792 27.0822ZM29.9792 31.0722C29.7823 31.0722 29.5898 31.0137 29.426 30.9041C29.2623 30.7945 29.1347 30.6387 29.0593 30.4564C28.9839 30.2741 28.9642 30.0736 29.0026 29.8801C29.0411 29.6866 29.1359 29.5088 29.2752 29.3693C29.4144 29.2298 29.5918 29.1348 29.785 29.0963C29.9781 29.0579 30.1783 29.0776 30.3603 29.1531C30.5422 29.2286 30.6977 29.3565 30.8072 29.5205C30.9166 29.6845 30.975 29.8774 30.975 30.0747C30.975 30.3392 30.8701 30.593 30.6833 30.78C30.4966 30.9671 30.2433 31.0722 29.9792 31.0722Z" fill="white"/>
</svg>
