<svg width="161" height="100" viewBox="0 0 161 100" fill="none" xmlns="http://www.w3.org/2000/svg">
<path d="M153.188 96.4271V46.3064H151.456V42.5816H153.118V39.0069H122.441V28.9246H119.929V25.2015H122.376V21.6268H82.7951V7.29951H80.9061V3.57468H82.8828V0H22.1625V3.57468H24.3307V7.29951H22.1769V21.6483H3.53484V25.223H7.61172V96.4253H0V100H161V96.4253L153.188 96.4271ZM11.1895 34.8192L18.1036 45.0821L11.1895 55.3468V34.8192ZM22.1769 65.9654L15.261 55.7043L22.1769 45.436V65.9654ZM11.1895 56.0618L18.1036 66.3193L11.1895 76.5876V56.0618ZM22.1769 66.6768V87.2276L15.261 76.9486L22.1769 66.6768ZM22.1769 96.4271H16.4631L22.1769 87.9372V96.4271ZM79.2174 10.876V96.4271H25.7546V10.876H79.2174ZM63.2408 7.30129V3.57647H68.4966V7.30129H63.2408ZM59.663 7.30129H54.4073V3.57647H59.663V7.30129ZM50.8277 7.30129H45.5719V3.57647H50.8277V7.30129ZM41.996 7.30129H36.7402V3.57647H41.996V7.30129ZM105.307 28.9263V25.2033H109.04V28.9263H105.307ZM101.729 28.9263H97.9953V25.2033H101.729V28.9263ZM94.4176 28.9263H90.6824V25.2033H94.4176V28.9263ZM118.863 32.501V96.4289H82.7951V32.501H118.863ZM136.834 46.3064V42.5816H140.567V46.3064H136.834ZM133.256 46.3064H129.523V42.5816H133.256V46.3064ZM149.61 49.8811V96.4271H122.441V49.8811H149.61ZM147.879 46.3064H144.145V42.5816H147.879V46.3064ZM125.945 42.5816V46.3064H122.441V42.5816H125.945ZM116.351 28.9263H112.618V25.2033H116.351V28.9263ZM87.1046 25.2033V28.9263H82.7951V25.2033H87.1046ZM77.3283 7.30129H72.0725V3.57647H77.3283V7.30129ZM27.9085 3.57647H33.1642V7.30129H27.9085V3.57647ZM22.1769 44.7264L15.261 34.46L21.4846 25.2248H22.1786V44.7264H22.1769ZM17.1715 25.2265L11.1895 34.1043V25.2265H17.1715ZM11.1895 77.3061L18.1036 87.5833L12.1501 96.4289H11.1877V77.3061H11.1895ZM74.1709 34.7352H70.5931V70.2211H74.1709V34.7352ZM74.1709 73.8833H70.5931V87.7728H74.1709V73.8833ZM115.262 87.7728V44.1974H111.684V87.7728H115.262ZM146.916 87.8461V60.7357H143.338V87.8461H146.916Z" fill="#0184C1"/>
<path d="M50.7538 41.5123C50.4531 41.1863 50.0231 41 49.5721 41C49.1211 41 48.6918 41.1863 48.3911 41.5108C48.0083 41.9239 39.0311 51.7049 39.0001 58.7773C38.9877 61.4979 40.0687 64.0577 42.0431 65.988C44.0184 67.9199 46.6507 68.9895 49.4551 69C49.4713 69 49.4868 69 49.5023 69C52.2896 69 54.9127 67.9529 56.8926 66.0496C58.8848 64.1358 59.9883 61.585 59.9999 58.866C60.0325 51.6298 51.1327 41.9209 50.7538 41.5123ZM54.6577 63.8654C53.2761 65.1934 51.4466 65.9234 49.5016 65.9234C49.4907 65.9234 49.4799 65.9234 49.4682 65.9234C47.5116 65.9159 45.6751 65.1693 44.2973 63.8233C42.9196 62.4758 42.1656 60.6882 42.1741 58.7924C42.1927 54.5726 46.7778 48.2362 49.5697 44.9148C52.3307 48.2182 56.8453 54.5306 56.8259 58.854C56.8174 60.7498 56.0479 62.5299 54.6577 63.8654Z" fill="#0184C1"/>
<path d="M99.3956 54.3476C99.1808 54.1264 98.8736 54 98.5515 54C98.2293 54 97.9227 54.1264 97.7079 54.3466C97.4345 54.6269 91.0222 61.264 91.0001 66.0632C90.9912 67.9093 91.7634 69.6463 93.1737 70.9562C94.5845 72.2671 96.4648 72.9929 98.4679 73C98.4795 73 98.4906 73 98.5017 73C100.493 73 102.366 72.2895 103.78 70.998C105.203 69.6993 105.992 67.9684 106 66.1233C106.023 61.213 99.6662 54.6249 99.3956 54.3476ZM102.184 69.5158C101.197 70.4169 99.8904 70.9123 98.5011 70.9123C98.4934 70.9123 98.4856 70.9123 98.4773 70.9123C97.0797 70.9072 95.7679 70.4006 94.7838 69.4873C93.7997 68.5729 93.2611 67.3598 93.2672 66.0734C93.2805 63.21 96.5556 58.9103 98.5498 56.6565C100.522 58.8981 103.747 63.1814 103.733 66.1152C103.727 67.4016 103.177 68.6096 102.184 69.5158Z" fill="#0184C1"/>
<path d="M134.037 69.2195C133.908 69.0798 133.724 69 133.531 69C133.338 69 133.154 69.0798 133.025 69.2189C132.861 69.3959 129.013 73.5878 129 76.6189C128.995 77.7848 129.458 78.8819 130.304 79.7092C131.151 80.5371 132.279 80.9955 133.481 81C133.488 81 133.494 81 133.501 81C134.696 81 135.82 80.5513 136.668 79.7356C137.522 78.9153 137.995 77.8221 138 76.6568C138.014 73.5556 134.2 69.3947 134.037 69.2195ZM135.71 78.7995C135.118 79.3686 134.334 79.6815 133.501 79.6815C133.496 79.6815 133.491 79.6815 133.486 79.6815C132.648 79.6783 131.861 79.3583 131.27 78.7814C130.68 78.2039 130.357 77.4378 130.36 76.6253C130.368 74.8168 132.333 72.1012 133.53 70.6778C134.713 72.0935 136.648 74.7988 136.64 76.6517C136.636 77.4642 136.306 78.2271 135.71 78.7995Z" fill="#0184C1"/>
</svg>
