<svg width="76" height="48" viewBox="0 0 76 48" fill="none" xmlns="http://www.w3.org/2000/svg">
<g clipPath="url(#clip0_37_2990)">
<path d="M0 47.8079V36.6433H3.37358C5.83629 36.6433 7.42187 37.5834 7.42187 39.5288C7.43999 39.9885 7.33772 40.4449 7.12551 40.8512C6.91331 41.2575 6.59879 41.5992 6.21414 41.8413C6.71634 42.0673 7.13951 42.4425 7.42795 42.9178C7.71639 43.393 7.85659 43.946 7.83009 44.5038C7.83009 46.7511 6.21414 47.8044 3.70419 47.8044L0 47.8079ZM2.17934 41.2889H3.79528C4.78374 41.2889 5.20544 40.7949 5.20544 39.8856C5.20544 38.9112 4.43626 38.5921 3.40057 38.5921H2.17596L2.17934 41.2889ZM2.17934 45.8659H3.52877C4.84784 45.8659 5.61364 45.5228 5.61364 44.4935C5.61364 43.4642 4.93892 43.025 3.71431 43.025H2.17596L2.17934 45.8659ZM12.0673 48.0034C9.91833 48.0034 8.83541 46.9364 8.83541 45.4988C8.83541 43.9205 10.1073 42.9941 11.9863 42.977C12.4543 42.9854 12.921 43.0278 13.383 43.1039V42.7197C13.383 41.7452 12.8331 41.2855 11.7839 41.2855C11.0756 41.2768 10.3722 41.4073 9.71254 41.6698L9.3212 39.9543C10.1859 39.6338 11.0998 39.4723 12.0201 39.4773C14.3242 39.4773 15.4712 40.7228 15.4712 42.8741V47.2967C14.397 47.7827 13.2291 48.0172 12.0538 47.9829L12.0673 48.0034ZM13.383 46.2022V44.4866C13.0174 44.4042 12.6442 44.3616 12.2697 44.3597C11.5478 44.3597 10.9844 44.6479 10.9844 45.389C10.9844 46.0752 11.4533 46.4183 12.2866 46.4183C12.6641 46.4307 13.0392 46.3544 13.383 46.1953V46.2022ZM17.0096 47.8147V40.167C18.138 39.7118 19.3413 39.4789 20.5552 39.4808C22.8459 39.4808 24.1616 40.6302 24.1616 42.7505V47.8216H21.9957V42.8946C21.9957 41.7933 21.4931 41.2821 20.5384 41.2821C20.0634 41.2757 19.5926 41.374 19.1586 41.5703V47.8079L17.0096 47.8147ZM31.7251 39.9508L31.3169 41.6904C30.757 41.4439 30.1558 41.3088 29.5458 41.2924C28.274 41.2924 27.5858 42.2016 27.5858 43.6941C27.5858 45.3375 28.3077 46.1816 29.6571 46.1816C30.2591 46.1647 30.8513 46.0234 31.3979 45.7664L31.7353 47.5368C31.0256 47.8582 30.255 48.0164 29.4783 48C26.8739 48 25.3693 46.3565 25.3693 43.7558C25.3693 41.1551 26.8604 39.4636 29.3535 39.4636C30.1642 39.46 30.9673 39.6221 31.715 39.9405L31.7251 39.9508ZM36.4009 48.0069C33.9854 48.0069 32.4808 46.2914 32.4808 43.7318C32.4808 41.1723 33.9854 39.4739 36.4009 39.4739C38.8164 39.4739 40.3075 41.1894 40.3075 43.7318C40.3075 46.2742 38.8333 48 36.4009 48V48.0069ZM36.4009 46.1884C37.5142 46.1884 38.0877 45.2483 38.0877 43.7318C38.0877 42.2153 37.5075 41.2924 36.4009 41.2924C35.2944 41.2924 34.6905 42.2325 34.6905 43.7318C34.6905 45.2312 35.3011 46.1816 36.4009 46.1816V46.1884ZM41.5591 47.8147V40.167C42.6876 39.7118 43.8908 39.4789 45.1048 39.4808C47.3954 39.4808 48.7111 40.6302 48.7111 42.7505V47.8216H46.5453V42.8946C46.5453 41.7933 46.0426 41.2821 45.0879 41.2821C44.6129 41.2757 44.1422 41.374 43.7081 41.5703V47.8079L41.5591 47.8147ZM53.5927 48.0069C51.7271 48.0069 50.769 46.9776 50.769 44.864V41.433H49.7029V39.6798H50.769V37.9094L52.9348 37.7961V39.6798H54.6756V41.433H52.9348V44.8469C52.9348 45.7733 53.3127 46.2193 54.0177 46.2193C54.297 46.2184 54.5753 46.1862 54.8477 46.1232L54.959 47.8936C54.5091 47.9822 54.0506 48.0179 53.5927 48V48.0069ZM59.0545 48.0069C56.9055 48.0069 55.8226 46.9398 55.8226 45.5022C55.8226 43.9239 57.0945 42.9976 58.9735 42.9804C59.4415 42.9888 59.9082 43.0313 60.3702 43.1074V42.7231C60.3702 41.7487 59.8203 41.2889 58.7711 41.2889C58.0628 41.2802 57.3595 41.4107 56.6998 41.6732L56.3084 39.9577C57.1731 39.6372 58.087 39.4757 59.0073 39.4808C61.3114 39.4808 62.4585 40.7262 62.4585 42.8775V47.2967C61.3896 47.7866 60.2265 48.0269 59.0545 48V48.0069ZM60.3702 46.2056V44.4901C60.0046 44.4076 59.6314 44.365 59.2569 44.3631C58.535 44.3631 57.9716 44.6513 57.9716 45.3924C57.9716 46.0786 58.4405 46.4217 59.2738 46.4217C59.6515 46.433 60.0267 46.3556 60.3702 46.1953V46.2056ZM69.877 39.9543L69.4688 41.6938C68.9088 41.4473 68.3076 41.3122 67.6976 41.2958C66.4258 41.2958 65.7376 42.205 65.7376 43.6975C65.7376 45.341 66.4595 46.185 67.8089 46.185C68.4109 46.1681 69.0032 46.0269 69.5497 45.7698L69.8871 47.5402C69.1774 47.8616 68.4068 48.0198 67.6302 48.0034C65.0258 48.0034 63.5211 46.36 63.5211 43.7593C63.5211 41.1586 65.0123 39.4671 67.5053 39.4671C68.3194 39.462 69.126 39.6242 69.877 39.944V39.9543ZM74.6337 48.0103C72.7681 48.0103 71.81 46.981 71.81 44.8675V41.4365H70.744V39.6832H71.81V37.9128L73.9759 37.7996V39.6832H75.7166V41.4365H73.9759V44.8503C73.9759 45.7767 74.3537 46.2227 75.0588 46.2227C75.338 46.2218 75.6163 46.1896 75.8887 46.1267L76 47.8971C75.5511 47.9842 75.0938 48.0188 74.6371 48L74.6337 48.0103Z" fill="#00202E"/>
<path d="M15.0968 31.061C26.5501 31.061 32.275 23.2966 38 15.5322H0V31.061H15.0968Z" fill="#00202E"/>
<path d="M60.9032 0C49.4499 0 43.725 7.76441 38 15.5288H76V0H60.9032Z" fill="#00202E"/>
</g>
<defs>
<clipPath id="clip0_37_2990">
<rect width="76" height="48" fill="white"/>
</clipPath>
</defs>
</svg>
