<svg width="141" height="26" viewBox="0 0 141 26" fill="none" xmlns="http://www.w3.org/2000/svg">
<g clipPath="url(#clip0_37_2941)">
<path d="M48.5 0.291077H49.3V22.5272H48.5V0.291077Z" fill="#00202E"/>
<path d="M58.5 9.76448C59.4946 9.75855 60.4706 9.49473 61.332 8.99895V7.11703H60.68C60.324 8.58828 59.56 8.93915 58.556 8.93915C56.728 8.93915 55.664 6.94559 55.664 4.88026C55.664 2.52786 56.728 0.936997 58.792 0.936997C59.62 0.936997 60.328 1.23204 60.68 2.53184H61.332V0.637963C60.5258 0.311738 59.662 0.150385 58.792 0.163495C58.1516 0.144904 57.5138 0.25229 56.9151 0.479515C56.3164 0.70674 55.7684 1.04936 55.3026 1.48777C54.8367 1.92618 54.4621 2.4518 54.2002 3.03459C53.9383 3.61738 53.7941 4.2459 53.776 4.88424C53.776 4.9374 53.776 4.9919 53.776 5.04772C53.828 7.35227 55.064 9.76448 58.5 9.76448ZM63.22 8.93915L62.276 9.11458V9.64486H65.7V9.11458L64.816 8.93915V4.11473C65.2432 3.85674 65.7325 3.71895 66.232 3.71602C67.472 3.71602 67.588 4.83241 67.588 5.95279V8.95111L66.704 9.12654V9.65682H70.1V9.12654L69.216 8.95111V5.42251C69.216 3.71602 68.816 2.65944 67.268 2.65944C66.363 2.65267 65.4847 2.96473 64.788 3.54059V2.17054e-05H62.132V0.530315L63.196 0.885163V8.93915H63.22ZM95.8 18.3527C95.8 16.6462 95.4 15.5897 93.852 15.5897C92.9469 15.5825 92.0685 15.8947 91.372 16.4708V12.9382H88.776V13.4685L89.84 13.8234V21.8813L88.896 22.0568V22.587H92.32V22.0568L91.436 21.8813V17.0569C91.8632 16.7989 92.3525 16.6611 92.852 16.6582C94.092 16.6582 94.208 17.7746 94.208 18.895V21.8933L93.324 22.0687V22.599H96.748V22.0687L95.864 21.8933V18.3647L95.8 18.3527ZM83.524 8.93915L82.64 9.05876V9.58905H86.064V9.05876L85.12 8.88332V2.17054e-05H82.584V0.530315L83.528 0.885163L83.524 8.93915ZM99.696 12.9263H97.16V13.4566L98.104 13.8114V21.8654L97.16 21.985V22.5751H100.584V21.985L99.7 21.8654L99.696 12.9263ZM140.068 8.86738V2.17054e-05H137.532V0.530315L138.476 0.885163V8.93915L137.532 9.05876V9.58905H141.016V9.05876L140.068 8.86738ZM136.172 -0.0159302H133.62V0.514363L134.564 0.869211V8.92319L133.62 9.0428V9.5731H137.104V9.0428L136.16 8.86738L136.172 -0.0159302ZM79.864 3.6921V2.75113H77.564V3.28142L78.332 3.57647V8.93116L77.564 9.05079V9.58107H81.34V9.05079L79.924 8.87535V4.34997C80.2844 4.14089 80.6878 4.01642 81.1037 3.98602C81.5195 3.95562 81.9369 4.02009 82.324 4.17454V2.70329C81.496 2.40824 80.496 2.93853 79.844 3.70406L79.864 3.6921ZM89.484 9.75251C90.4485 9.79627 91.4013 9.52772 92.2 8.98699L91.964 8.39689C91.3607 8.63163 90.7229 8.76632 90.076 8.7956C88.72 8.7956 87.892 7.85465 87.832 6.26777H92.552C92.728 3.20965 91.252 2.50393 89.66 2.50393C89.207 2.48582 88.7549 2.55755 88.33 2.71497C87.905 2.87239 87.5157 3.11235 87.1845 3.42095C86.8533 3.72955 86.5869 4.10064 86.4007 4.51268C86.2146 4.92471 86.1123 5.36949 86.1 5.82122C86.1 5.92222 86.1 6.02324 86.1 6.12424C86.16 8.51651 87.456 9.77245 89.464 9.77245L89.484 9.75251ZM89.604 3.22162C90.96 3.22162 91.14 4.51743 91.14 5.57402H87.892C87.892 4.45762 88.292 3.22162 89.604 3.22162ZM130.404 2.57172C129.497 2.5394 128.614 2.86728 127.95 3.48331C127.285 4.09934 126.893 4.95314 126.86 5.8571C126.86 5.95811 126.86 6.05912 126.86 6.16012C126.86 8.45272 128.16 9.74853 130.224 9.74853C131.172 9.79188 132.109 9.53355 132.9 9.01091L132.664 8.42081C132.061 8.65555 131.423 8.79024 130.776 8.81953C129.42 8.81953 128.592 7.87857 128.532 6.29169H133.252C133.488 3.29338 132.012 2.58368 130.36 2.58368L130.404 2.57172ZM131.88 5.62983H128.632C128.692 4.4337 129.108 3.27743 130.344 3.27743C131.644 3.22161 131.88 4.57325 131.88 5.63382V5.62983ZM71.828 15.5897C70.9211 15.5573 70.0384 15.8852 69.3739 16.5013C68.7093 17.1173 68.3173 17.9711 68.284 18.875C68.284 18.976 68.284 19.0771 68.284 19.1781C68.284 21.4707 69.584 22.7665 71.648 22.7665C72.6125 22.8102 73.5653 22.5417 74.364 22.001L74.128 21.4108C73.5247 21.6456 72.8869 21.7803 72.24 21.8096C70.884 21.8096 70.056 20.8686 69.996 19.2817H74.716C74.892 16.2834 73.416 15.5737 71.824 15.5737L71.828 15.5897ZM73.244 18.588H69.996C70.056 17.3918 70.472 16.2356 71.708 16.2356C73.068 16.2356 73.3 17.5314 73.244 18.58V18.588ZM78.968 15.5897C78.0611 15.5573 77.1784 15.8852 76.5139 16.5013C75.8493 17.1173 75.4573 17.9711 75.424 18.875C75.424 18.976 75.424 19.0771 75.424 19.1781C75.424 21.4707 76.724 22.7665 78.788 22.7665C79.7525 22.8102 80.7053 22.5417 81.504 22.001L81.268 21.4108C80.6647 21.6456 80.027 21.7803 79.38 21.8096C78.024 21.8096 77.196 20.8686 77.136 19.2817H81.856C82.032 16.2834 80.556 15.5737 78.964 15.5737L78.968 15.5897ZM80.384 18.588H77.14C77.2 17.3918 77.616 16.2356 78.852 16.2356C80.208 16.2356 80.444 17.5314 80.384 18.58V18.588ZM109.896 17.1167C109.93 16.8334 110.076 16.5751 110.301 16.3986C110.526 16.2222 110.812 16.142 111.096 16.1758C111.431 16.1912 111.752 16.317 112.008 16.5334C112.265 16.7498 112.442 17.0446 112.512 17.3719H113.164V15.9605C112.525 15.7208 111.847 15.6005 111.164 15.6056C110.22 15.6056 108.508 16.0801 108.508 17.5992C108.508 19.8359 112.168 19.8359 112.168 21.0719C112.168 21.662 111.768 22.1325 110.812 22.1325C110.417 22.1321 110.032 22.0064 109.713 21.7734C109.395 21.5404 109.159 21.2123 109.04 20.8367H108.42V22.3079C109.129 22.6757 109.921 22.8582 110.72 22.8382C111.84 22.8382 113.612 22.4834 113.612 20.7809C113.552 18.4883 109.892 18.7235 109.892 17.1327L109.896 17.1167ZM55.716 15.1232C55.716 14.3576 56.424 13.8274 57.368 13.8274C58.312 13.8274 58.784 14.2261 59.14 15.4222H59.792V13.6599C59.0217 13.3875 58.2093 13.2526 57.392 13.2612C55.68 13.2612 54.144 14.1423 54.144 15.6136C54.144 18.4963 58.748 18.261 58.748 20.6134C58.748 21.4946 58.156 22.1445 57.036 22.1445C55.916 22.1445 55.208 21.7458 54.736 20.0871H54.18V22.1684C55.0664 22.578 56.0352 22.7798 57.012 22.7585C59.136 22.7585 60.376 21.5624 60.376 20.1709C60.376 17.2882 55.712 17.1127 55.712 15.1112L55.716 15.1232Z" fill="#00202E"/>
<path d="M64.864 15.5298C64.4636 15.5295 64.0676 15.6131 63.7017 15.7752C63.3357 15.9373 63.0081 16.1743 62.74 16.4708V15.6495H60.14V16.1877L61.204 16.5426V24.9992L60.26 25.1747V25.705H64.1V25.1747L62.8 24.9992V22.607C63.13 22.6792 63.4663 22.7193 63.804 22.7266C66.164 22.7266 67.464 20.8447 67.464 18.9029C67.584 17.0808 66.812 15.5498 64.868 15.5498L64.864 15.5298ZM64.1 22.0607C63.8704 22.086 63.638 22.0561 63.4222 21.9736C63.2065 21.891 63.0137 21.7582 62.86 21.5863V17.0609C63.0204 16.874 63.2199 16.7243 63.4445 16.6224C63.6691 16.5205 63.9133 16.4687 64.16 16.4708C65.4 16.4708 65.988 17.4716 65.988 18.9986C65.988 20.5935 65.456 22.0607 64.1 22.0607ZM86.528 21.8255C85.112 21.8255 84.228 20.5895 84.228 19.0026C84.228 17.5314 84.88 16.3552 86.176 16.3552C86.944 16.3552 87.24 16.7539 87.476 17.5513H88.304V15.9565C87.687 15.7027 87.0232 15.5818 86.356 15.6016C85.8774 15.584 85.4 15.6606 84.9511 15.8271C84.5023 15.9935 84.0907 16.2466 83.74 16.5717C83.3893 16.8968 83.1064 17.2877 82.9073 17.7219C82.7083 18.1561 82.5971 18.6252 82.58 19.1023V19.1342C82.58 21.4866 83.936 22.7226 85.828 22.7226C86.7752 22.7777 87.7126 22.5075 88.484 21.9571L88.248 21.4268C87.7095 21.6713 87.1276 21.8068 86.536 21.8255H86.528ZM105.3 16.3512L106.244 16.5266L104.592 21.5265L102.932 16.5864L103.64 16.411V15.7611H100.572V16.411L101.048 16.5306L103.88 23.3087C103.48 24.3693 102.76 25.0152 101.52 24.7202V25.9562C102.72 26.1316 103.764 26.0159 104.72 23.7792L107.492 16.6622L108.084 16.4867V15.8368H105.3V16.3671V16.3512ZM98.452 7.70312C98.452 5.52615 94.792 5.70956 94.792 4.17452C94.8261 3.89117 94.9716 3.63289 95.1966 3.45644C95.4216 3.28 95.7077 3.19983 95.992 3.23356C96.3275 3.24904 96.6483 3.37478 96.9045 3.59117C97.1606 3.80756 97.3377 4.10242 97.408 4.4297H98.0601V3.01826C97.4209 2.77864 96.7429 2.65834 96.0601 2.6634C95.176 2.6634 93.404 3.13786 93.404 4.65696C93.404 6.89373 97.064 6.89374 97.064 8.12975C97.064 8.71984 96.664 9.19032 95.708 9.19032C95.3134 9.19023 94.929 9.06501 94.6104 8.83278C94.2919 8.60056 94.0557 8.27335 93.9361 7.89849H93.3V9.36973C94.0094 9.73751 94.8007 9.91996 95.6 9.90003C96.664 9.78041 98.432 9.36973 98.432 7.72305L98.452 7.70312ZM116.632 4.11471C116.666 3.83136 116.812 3.57308 117.037 3.39664C117.262 3.22019 117.548 3.14001 117.832 3.17375C118.167 3.18922 118.488 3.31498 118.744 3.53137C119.001 3.74776 119.178 4.04261 119.248 4.36988H119.9V3.01826C119.261 2.77864 118.583 2.65834 117.9 2.6634C117.016 2.6634 115.244 3.13786 115.244 4.65696C115.244 6.89373 118.904 6.89374 118.904 8.12975C118.904 8.71984 118.504 9.19032 117.548 9.19032C117.153 9.18996 116.768 9.06417 116.45 8.83118C116.131 8.59819 115.895 8.27011 115.776 7.89451H115.184V9.36576C115.893 9.73353 116.685 9.91597 117.484 9.89604C118.604 9.89604 120.376 9.54118 120.376 7.83868C120.376 5.48628 116.656 5.72153 116.656 4.13067L116.632 4.11471ZM122.592 4.11471C122.626 3.83136 122.772 3.57308 122.997 3.39664C123.222 3.22019 123.508 3.14001 123.792 3.17375C124.127 3.18922 124.448 3.31498 124.704 3.53137C124.961 3.74776 125.138 4.04261 125.208 4.36988H125.86V3.01826C125.221 2.77864 124.543 2.65834 123.86 2.6634C122.916 2.6634 121.204 3.13786 121.204 4.65696C121.204 6.89373 124.864 6.89374 124.864 8.12975C124.864 8.71984 124.464 9.19032 123.508 9.19032C123.113 9.18996 122.728 9.06417 122.41 8.83118C122.091 8.59819 121.855 8.27011 121.736 7.89451H121.144V9.36576C121.853 9.73353 122.645 9.91597 123.444 9.89604C124.564 9.89604 126.336 9.54118 126.336 7.83868C126.276 5.48628 122.616 5.72153 122.616 4.13067L122.592 4.11471ZM70.352 7.81476C70.3451 8.09438 70.3984 8.37224 70.5083 8.62961C70.6181 8.88698 70.7821 9.1179 70.989 9.3068C71.196 9.49571 71.4411 9.6382 71.708 9.72472C71.9748 9.81123 72.2572 9.83974 72.536 9.80832C73.267 9.82561 73.9788 9.57444 74.536 9.1026C74.596 9.39765 74.832 9.75249 75.6 9.75249C76.0245 9.75201 76.4451 9.67222 76.84 9.51726V9.04279H76.072V5.10352C76.072 3.57247 75.42 2.63151 73.592 2.63151C72.5986 2.58096 71.6127 2.82665 70.76 3.33722L70.996 3.92732C71.6236 3.64453 72.3076 3.50817 72.996 3.52861C73.2033 3.50586 73.4131 3.52982 73.6098 3.59872C73.8065 3.66762 73.9853 3.77969 74.1327 3.92666C74.2802 4.07364 74.3926 4.25176 74.4617 4.44787C74.5308 4.64397 74.5549 4.85305 74.532 5.05966V5.53413C72.932 5.47432 70.34 6.06441 70.34 7.82672L70.352 7.81476ZM74.5 8.52846C74.1765 8.76721 73.7825 8.89203 73.38 8.8833C72.848 8.8833 71.964 8.70787 71.964 7.6473C71.964 6.58672 73.164 6.11624 74.5 6.11624V8.52846ZM102.828 9.05874L101.588 8.8235V5.47033C102.18 5.47033 102.944 5.35072 103.536 6.4711C104.244 7.66724 105.072 9.6608 106.368 9.6608H107.608V9.0707C107.324 9.05727 107.048 8.96854 106.81 8.81366C106.572 8.65877 106.379 8.44334 106.252 8.18955C105.956 7.71508 105.6 7.07316 105.308 6.5947C105.041 6.05912 104.605 5.62513 104.068 5.35869C104.674 5.26477 105.226 4.95866 105.626 4.49533C106.025 4.03201 106.246 3.44184 106.248 2.83086C106.248 0.948941 104.892 0.43859 102.824 0.43859H98.988V1.02869L99.992 1.20412V8.84742L98.872 9.08266V9.61295H102.828V9.08266V9.05874ZM101.588 0.996784H102.592C103.712 0.996784 104.656 1.29183 104.656 2.8787C104.656 4.46558 103.652 4.76063 102.472 4.76063H101.588V0.996784ZM113.804 2.76308H111.3V3.29337L112.128 3.58841V8.23739C111.803 8.58172 111.361 8.79226 110.888 8.82749C109.884 8.82749 109.532 8.35301 109.532 7.06119V2.76308H107.056V3.29337L107.884 3.58841V7.06119C107.884 9.29796 108.948 9.76845 110.128 9.76845C110.878 9.72876 111.598 9.46168 112.192 9.00293C112.252 9.35778 112.428 9.76845 113.312 9.76845C113.736 9.76796 114.157 9.68817 114.552 9.53321V9.05874H113.844V2.76308H113.804ZM11.332 21.5903C6.78803 21.5903 3.66003 16.6502 3.66003 11.471C3.66003 5.64577 7.43603 1.70649 11.26 1.70649C14.508 1.70649 16.396 3.00231 17.34 6.53091H18.58V2.41222C16.6383 0.96241 14.2781 0.177734 11.852 0.175439C5.05204 0.175439 -0.0119629 5.29489 -0.0119629 11.6464C-0.0119629 17.2283 2.88004 22.8103 11.024 22.8103C13.6058 22.7976 16.15 22.1933 18.46 21.044V16.5864H17.22C16.7 19.9436 14.284 21.5903 11.332 21.5903ZM34.172 4.70481C34.1805 3.83839 34.5336 3.01073 35.1539 2.40368C35.7742 1.79663 36.6108 1.45982 37.48 1.46726H37.596C39.484 1.46726 40.844 2.58366 41.552 5.35072H42.792V1.23202C41.1384 0.56434 39.3759 0.204858 37.592 0.171448C33.992 0.171448 31.1 2.28862 31.1 5.70159C31.16 12.5275 40.956 12.1129 40.956 17.6629C40.956 19.8399 39.6 21.2514 37.236 21.2514C36.1641 21.2238 35.1163 20.9283 34.1888 20.3918C33.2613 19.8554 32.4839 19.0953 31.928 18.1813L30.728 18.8312C31.2941 20.0292 32.1861 21.0449 33.3027 21.7624C34.4193 22.48 35.7156 22.8707 37.044 22.8901C41.472 22.8901 43.892 20.0672 43.892 16.6542C43.952 9.71262 34.152 9.77244 34.152 4.69285L34.172 4.70481Z" fill="#00202E"/>
<path d="M29.452 19.0585C28.684 17.9421 27.852 16.3512 27.152 15.2348C26.676 14.4095 25.6759 12.8824 24.0839 12.2365C27.2119 11.471 29.2199 9.17838 29.2199 6.17608C29.2199 1.76234 25.3839 0.350891 20.4839 0.350891H17.476C18.2039 0.760489 18.8946 1.23277 19.54 1.76233H20.5C23.392 1.76233 25.812 2.58767 25.812 6.41132C25.812 10.235 23.216 11.2357 20.324 11.2357H18.492V12.5993H19.4959C20.8519 12.5993 21.976 13.1296 23.036 14.9517C23.512 15.7771 24.512 17.5394 25.692 19.3057C30.356 26.3668 35.608 25.1906 37.692 24.6005L37.572 23.9506C32.7719 23.8908 30.904 21.1278 29.488 19.0664L29.452 19.0585Z" fill="#00202E"/>
</g>
<defs>
<clipPath id="clip0_37_2941">
<rect width="141" height="26" fill="white"/>
</clipPath>
</defs>
</svg>
