<svg width="113" height="22" viewBox="0 0 113 22" fill="none" xmlns="http://www.w3.org/2000/svg">
<g clipPath="url(#clip0_37_2946)">
<path d="M0 16.6511L3.76185 0H18.6389L17.9267 3.37352H9.74763L9.14468 6.18778H16.2315L15.5193 9.44855H8.38882L7.62858 13.1152H16.0218L15.2615 16.6601H0V16.6511Z" fill="#00202E"/>
<path d="M18.049 6.8688C19.5782 1.00574 23.6066 1.0734 28.4651 1.18164C31.7901 1.24027 36.9151 1.29438 35.9889 6.47191C35.9889 6.47191 35.7704 7.93768 35.4471 9.50718H30.2521L40.7163 22H33.7256L29.2035 16.588C27.7523 17.0174 26.2409 17.1898 24.7339 17.0976C22.0075 16.9848 16.9349 17.0976 17.1009 12.3169C17.2524 10.4744 17.5699 8.65053 18.049 6.8688ZM24.428 6.07503C23.7899 7.9012 23.3146 9.78369 23.008 11.6991C22.6235 13.6654 24.096 14.4051 25.4548 14.4051C26.5995 14.4051 28.1811 13.7331 28.6705 12.3756C29.3257 10.5333 29.8014 8.62812 30.0905 6.6884C30.5842 3.53137 27.6437 3.98237 27.6437 3.98237C25.2887 3.82001 24.4193 6.07503 24.4193 6.07503H24.428Z" fill="#00202E"/>
<path d="M38.6934 1.85364H44.7448C44.7448 1.85364 42.7786 10.3506 42.4029 12.4928C42.4145 12.7372 42.4733 12.9767 42.5759 13.1973C42.6785 13.4179 42.8228 13.6151 43.0002 13.7773C43.1777 13.9395 43.3848 14.0634 43.6094 14.1418C43.8339 14.2202 44.0714 14.2514 44.3078 14.2337C44.3078 14.2337 46.7065 14.6306 47.2002 12.6011L49.647 1.84912H55.8075C55.8075 1.84912 53.4656 12.4883 53.0811 13.8323C52.6967 15.1763 50.6344 16.9307 46.0511 17.1517C44.7931 17.1989 43.5336 17.1234 42.2893 16.9262L36.7317 10.3957C36.7317 10.3957 38.2128 3.59902 38.6934 1.85364Z" fill="#00202E"/>
<path d="M58.1013 1.85364H64.2619L60.9369 16.597H54.8856L58.1013 1.85364Z" fill="#00202E"/>
<path d="M69.4961 16.597H63.3793L66.595 1.85364H79.8904L79.2175 4.72653H72.1701L71.5191 7.48668H77.5135L76.9106 10.301H70.9685L69.4961 16.597Z" fill="#00202E"/>
<path d="M77.8369 16.597H73.5813L83.9974 1.85364H91.425L92.8974 13.8368L97.8521 9.28168L92.9368 1.85364H100.845L103.187 5.62403L107.005 1.85364H113L105.201 8.72244L110.326 16.6015H102.741L100.19 12.2087L95.934 16.6015H86.7587L86.4835 13.3903H79.9996L77.8369 16.597ZM82.1405 10.1792H86.0116L85.5179 5.33991L82.1405 10.1792Z" fill="#00202E"/>
</g>
<defs>
<clipPath id="clip0_37_2946">
<rect width="113" height="22" fill="white"/>
</clipPath>
</defs>
</svg>
