<svg width="104" height="36" viewBox="0 0 104 36" fill="none" xmlns="http://www.w3.org/2000/svg">
<g clipPath="url(#clip0_37_2934)">
<path d="M17.3005 8.45096H13.293C12.7209 8.45096 12.1722 8.21957 11.7676 7.80769C11.363 7.3958 11.1357 6.83716 11.1357 6.25467V2.17462C11.1357 1.59213 11.363 1.03349 11.7676 0.621604C12.1722 0.20972 12.7209 -0.0216675 13.293 -0.0216675H17.3005C17.8727 -0.0216675 18.4214 0.20972 18.8259 0.621604C19.2305 1.03349 19.4578 1.59213 19.4578 2.17462V6.28071C19.4578 6.86321 19.2305 7.42185 18.8259 7.83373C18.4214 8.24561 17.8727 8.477 17.3005 8.477" fill="#00202E"/>
<path d="M6.93645 17.618H2.42584C1.78321 17.618 1.16683 17.3584 0.712023 16.8962C0.257212 16.4339 0.00112941 15.8069 0 15.1526V10.556C0 9.90103 0.25558 9.27284 0.710514 8.80967C1.16545 8.34651 1.78247 8.0863 2.42584 8.0863H6.93645C7.57983 8.0863 8.19685 8.34651 8.65178 8.80967C9.10672 9.27284 9.3623 9.90103 9.3623 10.556V15.1483C9.3623 15.8025 9.10731 16.4301 8.65329 16.8931C8.19928 17.3562 7.58336 17.6169 6.94072 17.618" fill="#00202E"/>
<path d="M6.50583 27.1411H3.7517C3.35821 27.1411 2.98085 26.9819 2.70261 26.6987C2.42437 26.4154 2.26807 26.0312 2.26807 25.6306V22.8266C2.26807 22.6283 2.30644 22.4319 2.381 22.2486C2.45556 22.0653 2.56484 21.8988 2.70261 21.7586C2.84038 21.6183 3.00394 21.507 3.18394 21.4311C3.36395 21.3552 3.55687 21.3162 3.7517 21.3162H6.50583C6.70067 21.3162 6.89359 21.3552 7.07359 21.4311C7.2536 21.507 7.41715 21.6183 7.55492 21.7586C7.69269 21.8988 7.80197 22.0653 7.87653 22.2486C7.95109 22.4319 7.98947 22.6283 7.98947 22.8266V25.6306C7.98947 26.0305 7.83375 26.414 7.55643 26.6972C7.27912 26.9803 6.90283 27.1399 6.51009 27.1411" fill="#00202E"/>
<path d="M13.8985 36H10.6455C10.1816 36 9.73651 35.8127 9.40803 35.479C9.07954 35.1454 8.89444 34.6928 8.89331 34.2204V30.9043C8.89331 30.4311 9.07791 29.9774 9.40652 29.6428C9.73512 29.3083 10.1808 29.1203 10.6455 29.1203H13.9027C14.3675 29.1203 14.8131 29.3083 15.1417 29.6428C15.4704 29.9774 15.655 30.4311 15.655 30.9043V34.2204C15.655 34.6935 15.4704 35.1473 15.1417 35.4818C14.8131 35.8164 14.3675 36.0043 13.9027 36.0043M25.8401 10.1437H23.5848C23.2633 10.1437 22.9549 10.014 22.7271 9.78293C22.4994 9.55188 22.3709 9.23835 22.3697 8.91102V6.61924C22.3697 6.29191 22.4972 5.97793 22.7241 5.74606C22.9511 5.51419 23.259 5.38335 23.5805 5.3822H25.8358C26.1573 5.38335 26.4653 5.51419 26.6922 5.74606C26.9192 5.97793 27.0466 6.29191 27.0466 6.61924V8.88498C27.0455 9.21156 26.9176 9.52444 26.6908 9.75537C26.4639 9.9863 26.1566 10.1165 25.8358 10.1177" fill="#00202E"/>
<path d="M75.1883 11.6716C75.5275 11.6716 75.8528 11.5344 76.0927 11.2902C76.3325 11.046 76.4673 10.7148 76.4673 10.3694C76.4673 10.1119 76.3923 9.86012 76.2518 9.64598C76.1112 9.43184 75.9115 9.26495 75.6778 9.16639C75.444 9.06783 75.1869 9.04203 74.9388 9.09228C74.6907 9.14252 74.4628 9.26654 74.2839 9.44865C74.105 9.63076 73.9832 9.86278 73.9339 10.1154C73.8845 10.368 73.9099 10.6298 74.0067 10.8677C74.1035 11.1057 74.2674 11.309 74.4777 11.4521C74.6881 11.5952 74.9354 11.6716 75.1883 11.6716Z" fill="#00202E"/>
<path d="M27.7416 25.7912C27.6426 25.9383 27.5085 26.0572 27.3518 26.137C27.1952 26.2167 27.0212 26.2546 26.8463 26.2469C26.6367 26.2472 26.4303 26.195 26.2451 26.095C26.0974 25.9873 25.977 25.8453 25.8939 25.6807C25.8109 25.5162 25.7676 25.3338 25.7676 25.1488C25.7668 24.9668 25.8187 24.7886 25.9169 24.6366L28.931 19.8013L25.9296 14.9617C25.831 14.8002 25.7793 14.6136 25.7804 14.4234C25.7773 14.2386 25.8222 14.0561 25.9105 13.8945C25.9988 13.7329 26.1275 13.598 26.2835 13.5033C26.5212 13.3631 26.8014 13.317 27.0703 13.3739C27.3393 13.4307 27.5783 13.5865 27.7416 13.8114L30.2015 17.7743L32.6913 13.8114C32.8546 13.5865 33.0936 13.4307 33.3625 13.3739C33.6315 13.317 33.9116 13.3631 34.1494 13.5033C34.3051 13.5983 34.4335 13.7333 34.5218 13.8948C34.6101 14.0563 34.6551 14.2386 34.6524 14.4234C34.6588 14.6119 34.613 14.7984 34.5203 14.9617L31.5061 19.797L34.5203 24.6366C34.6187 24.7885 34.6706 24.9668 34.6695 25.1488C34.6696 25.3338 34.6263 25.5162 34.5432 25.6807C34.4602 25.8453 34.3398 25.9873 34.192 26.095C34.0069 26.195 33.8005 26.2472 33.5909 26.2469C33.4184 26.2511 33.2476 26.2112 33.0942 26.1308C32.9407 26.0505 32.8096 25.9322 32.7126 25.7868L30.2271 21.8457L27.7416 25.7912ZM38.4895 14.8662C39.4204 14.0168 40.5723 13.4589 41.8069 13.2594C43.0415 13.0599 44.3064 13.2272 45.45 13.7413C46.5935 14.2554 47.5671 15.0944 48.254 16.1577C48.9409 17.221 49.312 18.4636 49.3226 19.7362C49.3226 19.7362 49.3226 19.7796 49.3226 19.8013C49.3163 21.0754 48.9485 22.3205 48.2634 23.3868C47.5783 24.453 46.6052 25.295 45.4611 25.8114C44.317 26.3277 43.0507 26.4965 41.8146 26.2973C40.5785 26.0981 39.4253 25.5395 38.4937 24.6887V30.3313C38.4806 30.6134 38.3611 30.8796 38.1603 31.0744C37.9594 31.2692 37.6925 31.3777 37.4151 31.3774C37.1423 31.3692 36.8824 31.2572 36.6867 31.0636C36.491 30.87 36.3737 30.6087 36.3578 30.3313V14.3149C36.3726 14.0368 36.4895 13.7745 36.6854 13.5799C36.8812 13.3854 37.1416 13.2728 37.4151 13.2645C37.6925 13.2642 37.9594 13.3727 38.1603 13.5675C38.3611 13.7624 38.4806 14.0285 38.4937 14.3106V14.8488L38.4895 14.8662ZM42.8125 15.3957C41.956 15.3983 41.1195 15.659 40.4085 16.1451C39.6974 16.6311 39.1437 17.3206 38.8171 18.1267C38.4905 18.9328 38.4057 19.8193 38.5734 20.6743C38.7411 21.5294 39.1538 22.3148 39.7594 22.9313C40.365 23.5479 41.1364 23.968 41.9763 24.1388C42.8162 24.3095 43.6869 24.2232 44.4786 23.8907C45.2704 23.5582 45.9477 22.9944 46.425 22.2705C46.9024 21.5466 47.1586 20.695 47.1611 19.823C47.1685 19.2395 47.0611 18.6604 46.8452 18.1198C46.6293 17.5793 46.3093 17.0882 45.904 16.6755C45.4987 16.2629 45.0164 15.9371 44.4854 15.7173C43.9544 15.4975 43.3856 15.3881 42.8125 15.3957ZM67.7189 18.6207V25.2443C67.7031 25.5216 67.5857 25.7829 67.39 25.9765C67.1943 26.1701 66.9344 26.2821 66.6616 26.2903C66.3835 26.2918 66.1155 26.1837 65.9137 25.9888C65.7119 25.7939 65.5919 25.5271 65.5787 25.2443V14.328C65.5908 14.0443 65.7104 13.7765 65.9123 13.5806C66.1142 13.3848 66.3828 13.2762 66.6616 13.2775C66.9261 13.2873 67.1784 13.3935 67.3725 13.5767C67.5665 13.76 67.6895 14.0081 67.7189 14.2759C68.6558 13.5663 69.7914 13.1814 70.9591 13.1777C71.2544 13.1668 71.5425 13.2728 71.7627 13.4735C71.9829 13.6743 72.1182 13.9541 72.14 14.2542C72.1246 14.5608 71.9929 14.8494 71.7726 15.0591C71.5523 15.2688 71.2606 15.3832 70.9591 15.3783C69.275 15.4304 67.7189 16.0424 67.7189 18.6033V18.6207ZM75.2054 13.2993C74.9279 13.2989 74.6611 13.4075 74.4602 13.6023C74.2593 13.7971 74.1399 14.0632 74.1268 14.3453V25.2443C74.1399 25.5264 74.2593 25.7925 74.4602 25.9873C74.6611 26.1821 74.9279 26.2906 75.2054 26.2903C75.4781 26.2821 75.738 26.1701 75.9337 25.9765C76.1294 25.7829 76.2468 25.5216 76.2627 25.2443V14.328C76.2468 14.0506 76.1294 13.7893 75.9337 13.5957C75.738 13.4021 75.4781 13.2901 75.2054 13.2819V13.2993ZM88.8481 14.3453C88.8612 14.0632 88.9807 13.7971 89.1815 13.6023C89.3824 13.4075 89.6493 13.2989 89.9267 13.2993C90.1995 13.3075 90.4594 13.4194 90.6551 13.6131C90.8508 13.8067 90.9681 14.0679 90.984 14.3453V25.2443C90.9681 25.5216 90.8508 25.7829 90.6551 25.9765C90.4594 26.1701 90.1995 26.2821 89.9267 26.2903C89.6493 26.2906 89.3824 26.1821 89.1815 25.9873C88.9807 25.7925 88.8612 25.5264 88.8481 25.2443V24.7061C87.916 25.5593 86.7614 26.1199 85.5235 26.3202C84.2855 26.5205 83.0171 26.352 81.8711 25.8349C80.7252 25.3179 79.7506 24.4744 79.0648 23.4061C78.3791 22.3379 78.0115 21.0905 78.0064 19.8143C78.0064 19.8143 78.0064 19.7709 78.0064 19.7535C78.0138 18.4794 78.3825 17.2346 79.0681 16.1687C79.7537 15.1028 80.7271 14.2611 81.8713 13.7449C83.0155 13.2287 84.2817 13.0599 85.5179 13.2588C86.7541 13.4577 87.9075 14.0159 88.8395 14.8662V14.328L88.8481 14.3453ZM84.525 24.1939C85.6518 24.1674 86.7241 23.6952 87.5148 22.8775C88.3054 22.0598 88.7523 20.9608 88.7606 19.8133C88.7689 18.6659 88.338 17.5603 87.5593 16.7308C86.7806 15.9013 85.7152 15.4131 84.589 15.3697H84.525C83.9445 15.3511 83.3662 15.4515 82.8245 15.6649C82.2828 15.8783 81.7887 16.2003 81.3717 16.6118C80.9546 17.0234 80.6229 17.516 80.3964 18.0606C80.17 18.6051 80.0533 19.1904 80.0533 19.7818C80.0533 20.3731 80.17 20.9584 80.3964 21.503C80.6229 22.0475 80.9546 22.5402 81.3717 22.9517C81.7887 23.3632 82.2828 23.6852 82.8245 23.8986C83.3662 24.112 83.9445 24.2124 84.525 24.1939ZM101.881 18.7292C101.864 17.8322 101.506 16.977 100.883 16.3426C100.26 15.7083 99.4196 15.344 98.5386 15.3263C96.8035 15.3263 95.1962 16.0424 95.1962 18.599V25.2226C95.1803 25.4999 95.0629 25.7612 94.8672 25.9548C94.6715 26.1485 94.4117 26.2604 94.1389 26.2686C93.8615 26.2689 93.5946 26.1604 93.3937 25.9656C93.1928 25.7708 93.0734 25.5047 93.0602 25.2226V14.328C93.0723 14.0451 93.1913 13.7779 93.3923 13.5821C93.5933 13.3864 93.8608 13.2773 94.1389 13.2775C94.4034 13.2873 94.6556 13.3935 94.8497 13.5767C95.0437 13.76 95.1667 14.0081 95.1962 14.2759C96.1503 13.5429 97.318 13.1563 98.5131 13.1777C101.429 13.1777 104.017 15.5042 104.017 18.421V25.2269C104.002 25.5051 103.885 25.7674 103.689 25.9619C103.494 26.1565 103.233 26.269 102.96 26.2773C102.682 26.2776 102.415 26.1691 102.215 25.9743C102.014 25.7795 101.894 25.5134 101.881 25.2312V18.7205V18.7292ZM25.2049 19.3933C25.1537 16.0424 22.2205 13.1777 18.7459 13.1777C17.8946 13.1734 17.0509 13.3399 16.2628 13.6676C15.4747 13.9953 14.7577 14.4779 14.1528 15.0877C12.9311 16.3193 12.24 17.9945 12.2315 19.7449C12.223 21.4952 12.8979 23.1773 14.1076 24.4211C15.3173 25.6649 16.9627 26.3685 18.682 26.3771H18.7459C20.4289 26.3866 22.0468 25.7153 23.2437 24.5107C23.4109 24.3656 23.5302 24.1717 23.5853 23.9552C23.6405 23.7387 23.6288 23.5102 23.552 23.3006C23.4752 23.0911 23.3369 22.9107 23.1559 22.784C22.9749 22.6573 22.76 22.5903 22.5403 22.5922C22.2117 22.6196 21.9063 22.7751 21.6876 23.0263C21.3007 23.4127 20.84 23.7142 20.334 23.9121C19.828 24.1099 19.2875 24.1999 18.7459 24.1765C17.7267 24.191 16.7354 23.837 15.9485 23.1773C15.1616 22.5176 14.63 21.5951 14.4485 20.5739H24.1987H24.2542L24.365 20.5522C24.6078 20.4773 24.8197 20.3233 24.9684 20.114C25.117 19.9047 25.1941 19.6515 25.1878 19.3933H25.2049ZM18.7459 15.3523C19.6608 15.3459 20.5538 15.6372 21.2946 16.1838C22.0354 16.7303 22.5854 17.5035 22.8643 18.3907H14.5849C14.8671 17.4971 15.4238 16.7195 16.173 16.1725C16.9221 15.6255 17.8241 15.3379 18.7459 15.3523ZM63.7924 19.3933C63.7412 16.0424 60.8081 13.1777 57.3334 13.1777C55.6142 13.1697 53.9622 13.8573 52.7409 15.0892C51.5196 16.3212 50.8291 17.9967 50.8212 19.7471C50.8133 21.4974 51.4886 23.1793 52.6987 24.4226C53.9088 25.666 55.5545 26.3691 57.2737 26.3771H57.3334C59.0076 26.3797 60.615 25.7089 61.8057 24.5107C61.9729 24.3656 62.0921 24.1717 62.1473 23.9552C62.2024 23.7387 62.1908 23.5102 62.114 23.3006C62.0371 23.0911 61.8988 22.9107 61.7178 22.784C61.5368 22.6573 61.3219 22.5903 61.1022 22.5922C60.7737 22.6196 60.4682 22.7751 60.2495 23.0263C59.8631 23.4122 59.4031 23.7134 58.8979 23.9112C58.3926 24.109 57.853 24.1993 57.3121 24.1765C56.2929 24.191 55.3016 23.837 54.5147 23.1773C53.7278 22.5176 53.1962 21.5951 53.0147 20.5739H62.7649H62.8502H62.8928C63.1507 20.5102 63.3793 20.3581 63.54 20.1431C63.7007 19.9281 63.7838 19.6633 63.7753 19.3933H63.7924ZM57.3334 15.3523C58.249 15.345 59.143 15.6358 59.8846 16.1825C60.6263 16.7291 61.177 17.5028 61.4561 18.3907H53.1681C53.4497 17.4993 54.0045 16.7232 54.7511 16.1764C55.4977 15.6296 56.3967 15.3407 57.3164 15.3523H57.3334Z" fill="#00202E"/>
</g>
<defs>
<clipPath id="clip0_37_2934">
<rect width="104" height="36" fill="white"/>
</clipPath>
</defs>
</svg>
