<svg width="122" height="24" viewBox="0 0 122 24" fill="none" xmlns="http://www.w3.org/2000/svg">
<g clipPath="url(#clip0_37_2967)">
<path d="M12.408 23.3063C10.0998 23.3132 7.84155 22.6571 5.91942 21.4212C3.9973 20.1853 2.4979 18.4252 1.61132 16.3642C0.724749 14.3032 0.490931 12.0339 0.939494 9.84422C1.38806 7.6545 2.49881 5.64291 4.13094 4.06445C5.76306 2.486 7.84306 1.41177 10.1072 0.977953C12.3714 0.544139 14.7178 0.770269 16.8489 1.62769C18.98 2.48511 20.7999 3.93521 22.0778 5.79413C23.3557 7.65306 24.0342 9.83709 24.0271 12.0694C24.012 15.0451 22.783 17.8948 20.6072 19.999C18.4315 22.1032 15.4849 23.2918 12.408 23.3063ZM12.408 0C9.95393 0 7.55498 0.703775 5.5145 2.02235C3.47401 3.34093 1.88364 5.21508 0.944506 7.40779C0.00537469 9.6005 -0.240343 12.0133 0.238422 14.3411C0.717187 16.6688 1.89894 18.807 3.63423 20.4853C5.36952 22.1635 7.58041 23.3064 9.98733 23.7694C12.3942 24.2324 14.8891 23.9948 17.1563 23.0866C19.4236 22.1783 21.3615 20.6402 22.7249 18.6668C24.0883 16.6934 24.816 14.3734 24.816 12C24.8028 8.82133 23.4913 5.7765 21.1672 3.52883C18.8431 1.28116 15.6947 0.0127842 12.408 0Z" fill="#00202E"/>
<path d="M1.72135 11.9306C5.95298 13.2485 9.96943 17.2023 11.1887 22.3352C8.56463 22.0285 6.14913 20.7984 4.40298 18.8793C2.65683 16.9603 1.70226 14.4868 1.72135 11.9306Z" fill="#00202E"/>
<path d="M23.0947 11.9306C20.7349 12.7479 18.6283 14.1313 16.9724 15.9511C15.3165 17.7709 14.1655 19.9676 13.6273 22.3352C16.2514 22.0285 18.6669 20.7984 20.4131 18.8793C22.1592 16.9603 23.1138 14.4868 23.0947 11.9306Z" fill="#00202E"/>
<path d="M12.4081 22.3352C7.88954 15.6069 8.89365 6.31212 12.4081 1.38727C15.8149 6.31212 16.8549 15.6069 12.4081 22.3352Z" fill="#00202E"/>
<path d="M28.187 1.38727H30.8766V4.99419H35.8971V1.38727H38.6226V10.8208H35.8971V6.7283H30.8766V10.8208H28.1511L28.187 1.38727Z" fill="#00202E"/>
<path d="M40.8818 1.38727H50.2058V3.12137H43.679V5.13293H49.7037V6.7283H43.679V9.01733H50.3492V10.7514H40.9177V1.38727H40.8818Z" fill="#00202E"/>
<path d="M51.9271 1.38727H58.5973C60.8207 1.38727 62.2552 2.56645 62.2552 3.95373C62.273 4.50485 62.0882 5.04425 61.7337 5.47605C61.3791 5.90784 60.8777 6.20407 60.3186 6.31211C60.845 6.40886 61.3171 6.68735 61.647 7.09569C61.9768 7.50404 62.142 8.01441 62.1117 8.53177C62.1834 9.15605 62.1117 10.2659 62.6138 10.7514H59.8883C59.6694 10.0271 59.5253 9.28358 59.458 8.53177C59.2428 7.56067 58.7408 7.07512 57.378 7.07512H54.6526V10.7514H51.9271V1.38727ZM54.6526 5.68783H57.6649C58.8842 5.68783 59.5297 5.27165 59.5297 4.36992C59.5297 3.46818 58.8842 3.052 57.6649 3.052H54.6526V5.68783Z" fill="#00202E"/>
<path d="M64.3351 1.38727H70.2163C72.5832 1.38727 74.1611 1.94218 74.1611 3.74565C74.1611 4.64738 73.5873 5.27165 72.4397 5.68783C73.9459 6.03465 74.7348 6.86702 74.7348 8.04621C74.7348 9.98841 72.5832 10.7514 70.3598 10.7514H64.3351V1.38727ZM69.786 5.2023C70.7901 5.2023 71.4356 4.85547 71.4356 4.09247C71.4356 3.19073 70.5032 2.98264 69.5708 2.98264H66.9888V5.2023H69.786ZM69.9295 9.22541C71.0053 9.22541 71.9377 8.94796 71.9377 7.97686C71.9377 7.00577 71.1487 6.65893 70.0012 6.65893H67.0606V9.22541H69.9295Z" fill="#00202E"/>
<path d="M79.3968 1.38727H82.194L86.856 10.8208H83.9871L83.0547 8.73985H78.3927L77.3886 10.8208H74.5914L79.3968 1.38727ZM82.3375 7.14449L80.7595 3.67628L79.1099 7.14449H82.3375Z" fill="#00202E"/>
<path d="M87.7166 1.38727H90.4421V9.08667H96.4668V10.8208H87.6449V1.38727H87.7166Z" fill="#00202E"/>
<path d="M97.4709 1.38727H100.196V10.8208H97.4709V1.38727Z" fill="#00202E"/>
<path d="M102.42 1.38727H111.206V3.12137H105.181V5.27164H110.417V6.9364H105.181V10.8208H102.456L102.42 1.38727Z" fill="#00202E"/>
<path d="M112.533 1.38727H121.857V3.12137H115.33V5.13293H121.354V6.7283H115.33V9.01733H121.964V10.7514H112.568V1.38727H112.533Z" fill="#00202E"/>
<path d="M28.187 12.9711H30.8766L36.0406 19.2832V12.9711H38.6226V22.4046H35.8971L30.7331 16.0925V22.4046H28.1511L28.187 12.9711Z" fill="#00202E"/>
<path d="M51.4968 18.8671C51.4968 21.4335 49.4885 22.6821 46.1893 22.6821C42.8901 22.6821 40.8818 21.5029 40.8818 18.8671V13.0405H43.6073V18.8671C43.6073 19.9075 43.9659 20.8786 46.1893 20.8786C48.1258 20.8786 48.7713 20.2543 48.7713 18.8671V13.0405H51.4968V18.8671Z" fill="#00202E"/>
<path d="M56.5173 14.7052H52.7877V12.9711H62.9723V14.7052H59.2427V22.4046H56.5173V14.7052Z" fill="#00202E"/>
<path d="M64.3351 12.9711H71.0053C73.2287 12.9711 74.6631 14.1503 74.6631 15.5376C74.681 16.0887 74.4962 16.628 74.1416 17.0598C73.7871 17.4916 73.2857 17.7879 72.7266 17.8959C73.253 17.9927 73.7251 18.2711 74.055 18.6795C74.3848 19.0878 74.55 19.5982 74.5197 20.1156C74.5914 20.7399 74.5197 21.8497 75.0217 22.3352H72.2963C72.0774 21.6109 71.9332 20.8674 71.8659 20.1156C71.6508 19.1445 71.1487 18.6589 69.786 18.6589H67.0606V22.3352H64.3351V12.9711ZM67.0606 17.2717H70.0729C71.2922 17.2717 71.9377 16.8555 71.9377 15.9537C71.9377 15.052 71.2922 14.6358 70.0729 14.6358H67.0606V17.2717Z" fill="#00202E"/>
<path d="M77.2451 12.9711H79.9706V22.4046H77.2451V12.9711Z" fill="#00202E"/>
<path d="M85.3857 14.7052H81.6561V12.9711H91.8407V14.7052H88.1112V22.4046H85.3857V14.7052Z" fill="#00202E"/>
<path d="M93.3827 12.9711H96.144V22.4046H93.4186L93.3827 12.9711Z" fill="#00202E"/>
<path d="M103.711 12.763C107.512 12.763 109.807 14.9133 109.807 17.7572C109.807 20.4624 107.512 22.6127 103.711 22.6127C99.9095 22.6127 97.6144 20.4624 97.6144 17.7572C97.6144 14.9133 99.9095 12.763 103.711 12.763ZM103.711 20.8786C106.149 20.8786 107.082 19.2832 107.082 17.7572C107.082 16.0925 106.149 14.4971 103.711 14.4971C101.272 14.4971 100.34 16.0925 100.34 17.7572C100.34 19.2832 101.272 20.8786 103.711 20.8786Z" fill="#00202E"/>
<path d="M111.457 12.9711H114.182L119.346 19.2832V12.9711H121.964V22.4046H119.239L114.075 16.0925V22.4046H111.493L111.457 12.9711Z" fill="#00202E"/>
</g>
<defs>
<clipPath id="clip0_37_2967">
<rect width="122" height="24" fill="white"/>
</clipPath>
</defs>
</svg>
