<svg width="154" height="22" viewBox="0 0 154 22" fill="none" xmlns="http://www.w3.org/2000/svg">
<g clip-path="url(#clip0_37_2920)">
<path d="M86.4836 17.0167C86.9084 17.0601 87.3414 17.0263 87.7436 16.9184C88.1458 16.8104 88.5044 16.6318 88.787 16.3985L94.7684 11.6086C95.2832 11.1775 95.5664 10.627 95.5664 10.0575C95.5664 9.48807 95.2832 8.93756 94.7684 8.50644L88.787 3.71657C88.5047 3.48304 88.1461 3.30417 87.7439 3.19622C87.3416 3.08827 86.9084 3.05464 86.4836 3.0984L90.8018 7.96791C91.3033 8.60332 91.567 9.32222 91.567 10.0538C91.567 10.7853 91.3033 11.5042 90.8018 12.1396L86.4836 17.0167Z" fill="#00202E"/>
<path d="M3.47341 17.3011C2.12497 17.3011 1.81541 17.3011 0.377773 17.3466L0.188895 17.2101C0.220376 16.0345 0.251854 14.8816 0.251854 12.6895C0.251854 9.1398 0.251848 4.97948 0 1.47525L0.188895 1.33872C1.62653 1.33872 2.0043 1.31597 3.28978 1.29321L3.47866 1.40699C3.44718 3.17048 3.44718 3.75831 3.4157 8.50646L6.98354 4.79744C7.45576 4.27788 7.95422 3.75831 8.45267 3.2615C9.0508 2.67306 9.60429 2.06158 10.1107 1.42975L10.3625 1.33872H11.648C12.2724 1.33872 12.8705 1.33872 13.5578 1.31597L13.6523 1.4525C12.965 2.08584 12.7131 2.31338 9.61747 5.32079L6.46936 8.41923L8.28476 10.5013C10.352 12.7388 12.414 14.9802 14.6702 17.1267L14.5757 17.2632C14.0143 17.2632 13.4476 17.286 12.8862 17.286L10.8505 17.3542L10.5986 17.2632C9.73273 16.1491 8.77976 15.0716 7.74434 14.0358L6.17029 12.2723L3.44718 9.33321C3.51014 12.4772 3.57311 14.7829 3.69903 17.1798L3.51014 17.3163" fill="#00202E"/>
<path d="M18.8729 3.11361C17.9169 3.16601 16.9658 3.25717 16.0239 3.38666L15.8035 3.25013C15.835 2.90881 15.835 2.59404 15.835 2.25651C15.835 1.91898 15.835 1.62317 15.8035 1.3084L16.0239 1.17186C17.3356 1.08084 17.6819 1.0581 18.9044 0.92157L19.1248 1.05809C19.0686 1.6982 19.0581 2.33998 19.0933 2.98087L18.8729 3.11361ZM19.0618 17.3011C18.0296 17.2715 16.9959 17.2867 15.9662 17.3467L15.7773 17.2101C15.8717 15.8524 15.9032 14.4303 15.9032 12.2117C15.9032 7.75556 15.7773 6.64816 15.6829 5.87829L15.8717 5.74177C16.9131 5.65955 17.9467 5.53292 18.9674 5.36252L19.1248 5.49905C19.0618 6.8795 19.0303 8.15377 19.0303 9.77315C19.0303 13.7969 19.1248 15.5377 19.2192 17.1457L19.0618 17.2822V17.3011Z" fill="#00202E"/>
<path d="M30.2638 11.4874C30.2638 10.854 30.2323 10.2207 30.2008 9.59114C30.1379 8.83265 30.0434 7.21706 28.0077 7.21706C27.1944 7.21706 26.2867 7.49012 25.1272 8.39272C25.1272 11.1043 25.1271 14.5213 25.316 17.1647L25.1272 17.3012C23.7787 17.3012 23.5531 17.3012 22.1837 17.3467L21.9948 17.2102C22.0263 16.171 22.0577 15.1736 22.0577 13.888C22.0577 13.3229 22.0578 10.9033 21.9948 8.88953C21.9318 7.50908 21.9003 6.83023 21.7744 5.90488L21.9633 5.76835C22.9866 5.69128 24.0015 5.56457 25.0012 5.38911L25.1901 5.52563C25.1271 6.11346 25.0957 6.31826 25.0957 6.9516C25.9719 6.34101 27.378 5.37014 29.4138 5.37014C30.1291 5.3567 30.8314 5.5098 31.4171 5.80684C32.0028 6.10387 32.441 6.52913 32.6669 7.01986C33.8264 6.15897 35.2903 5.37014 37.4257 5.37014C37.9345 5.36444 38.4413 5.41824 38.9263 5.52943C39.4022 5.65741 39.8352 5.85671 40.1969 6.11423C40.5586 6.37176 40.8408 6.68169 41.0251 7.02365C41.4973 7.83903 41.4973 8.54063 41.5498 10.2359V11.2978C41.5498 13.4026 41.5498 14.3962 41.7072 17.176L41.5183 17.3126C40.1121 17.3126 39.8603 17.3126 38.5433 17.3581L38.3544 17.2216C38.4174 15.9094 38.4803 13.8766 38.4803 11.1536V9.77318C38.4489 8.82507 38.3859 7.19431 36.2295 7.19431C35.2588 7.19431 34.2566 7.57355 33.223 8.36997C33.2545 8.91229 33.3489 10.4748 33.3489 10.9261V11.8325C33.3804 14.8399 33.4119 15.496 33.5378 17.1685L33.286 17.305C31.969 17.305 31.7119 17.305 30.4055 17.3505L30.2166 17.214C30.2795 15.587 30.2796 14.2293 30.2796 13.5732V11.4911" fill="#00202E"/>
<path d="M47.6203 17.3011C46.6073 17.2718 45.5928 17.287 44.5823 17.3466L44.4249 17.2101C44.4564 15.7197 44.4879 14.0662 44.4879 11.7831C44.4879 9.09049 44.4879 6.40164 44.3935 3.709C44.3305 1.96827 44.2675 1.38044 44.1731 0.519552L44.3305 0.383029C45.7367 0.246501 46.1459 0.178237 47.3999 0.00378418L47.5888 0.140307C47.5573 1.33872 47.5258 2.46888 47.5258 4.6192C47.5258 5.93139 47.5573 13.7211 47.8092 17.1684L47.6203 17.3049" fill="#00202E"/>
<path d="M58.7436 10.0879C58.7644 9.61738 58.7116 9.14667 58.5862 8.68471C58.1193 7.05775 56.5819 6.8757 56.052 6.8757C55.6384 6.87875 55.233 6.95977 54.876 7.11075C54.5189 7.26174 54.2226 7.47746 54.0162 7.7366C53.4072 8.44341 53.072 9.25545 53.0456 10.0879H58.7436ZM52.9721 11.6049C52.9138 12.4409 53.1164 13.2756 53.565 14.0472C53.9208 14.6096 54.501 15.0824 55.2312 15.4047C55.9613 15.727 56.8081 15.8843 57.6628 15.8562C58.8885 15.8642 60.0811 15.5684 61.0417 15.0181L61.2621 15.0864C61.1677 15.8449 61.1677 16.0117 61.1047 16.7361L60.9473 16.9181C60.5454 17.0873 60.1127 17.2149 59.6618 17.2973C58.7738 17.4686 57.8579 17.5528 56.9387 17.5477C55.5641 17.5477 53.3394 17.4111 51.6499 15.8979C50.2752 14.654 49.8975 13.027 49.8975 11.4191C49.8975 7.21322 52.7465 6.01482 53.7172 5.67729C54.4835 5.42619 55.3155 5.29686 56.1569 5.29804C56.9785 5.29453 57.7906 5.42412 58.5338 5.67729C61.6294 6.73917 61.8183 9.3863 61.7553 11.4646L61.5349 11.6011L52.9721 11.6049Z" fill="#00202E"/>
<path d="M67.4797 17.3428C67.3538 17.0736 67.2278 16.7778 67.1019 16.482C66.3201 14.673 63.1878 7.75934 62.0964 5.74176L62.2539 5.58247C63.6915 5.58247 64.0692 5.55972 65.4439 5.49146L65.6958 5.62798C65.9791 6.53058 66.0735 6.76572 66.6664 8.2296C66.9812 8.93121 67.2593 9.63281 67.5427 10.3344L69.1167 14.2444L70.8377 9.94758C71.4306 8.45336 71.8083 7.45974 72.4117 5.69625L72.6321 5.55972C73.7916 5.55972 73.9805 5.55972 75.2555 5.53696L75.4129 5.6735C74.7885 6.96293 74.6311 7.27769 73.1883 10.5354L71.3414 14.7071C69.463 19.1405 68.9016 20.5626 68.4609 21.8748L68.2405 22.0114C66.9865 21.9886 66.6664 21.9886 65.3915 22.0114L65.2341 21.8748C65.8584 20.7902 66.2362 20.0658 67.1754 18.0521L67.4902 17.3504" fill="#00202E"/>
<path d="M110.95 17.2101C110.981 15.989 111.013 14.7451 111.013 13.5239C111.013 12.9588 110.981 10.2206 110.981 9.58731H110.32C109.538 9.56456 108.746 9.56456 107.943 9.56456C106.033 9.56456 105.32 9.58732 103.247 9.63283V10.3344C103.247 12.1889 103.405 16.2355 103.436 17.1608L103.247 17.2974C101.873 17.2974 101.558 17.2974 100.099 17.3429L99.9103 17.2063C99.9418 15.7576 99.9733 14.3127 99.9733 12.864C99.9733 9.07153 99.9733 5.27909 99.7529 1.44492L99.9418 1.33115C101.379 1.33115 101.726 1.33115 103.09 1.26289L103.279 1.39941C103.279 2.30202 103.247 6.75814 103.247 7.75177C104.821 7.77452 108.945 7.77452 110.976 7.70626C110.913 4.6723 110.881 4.13378 110.756 1.44114L110.944 1.32736C112.23 1.32736 112.634 1.32736 114.135 1.25909L114.323 1.39563C114.292 2.15412 114.292 3.58766 114.292 5.35115C114.292 9.28392 114.323 13.2205 114.512 17.1532L114.323 17.2898C112.917 17.2898 112.602 17.267 111.128 17.3353L110.939 17.1988" fill="#00202E"/>
<path d="M125.594 7.80107C125.371 7.52 125.047 7.28774 124.656 7.12886C124.265 6.96997 123.822 6.89037 123.374 6.89846C120.525 6.89846 120.121 9.55318 120.121 11.3091C120.107 11.9914 120.181 12.6732 120.342 13.3456C120.809 15.2912 121.916 15.9472 123.411 15.9472C123.897 15.9631 124.378 15.8724 124.791 15.6869C125.204 15.5014 125.529 15.2299 125.725 14.9081C126.444 13.9828 126.601 12.6933 126.601 11.6049C126.596 10.4482 126.438 8.84399 125.594 7.80107ZM127.724 6.51164C129.76 8.02862 129.854 10.5354 129.854 11.6011C129.854 12.5037 129.76 14.4948 128.196 15.9435C127.607 16.4355 126.882 16.8326 126.067 17.1089C125.252 17.3853 124.366 17.5347 123.466 17.5476C122.566 17.5605 121.673 17.4365 120.843 17.1836C120.014 16.9308 119.267 16.5548 118.652 16.08C116.931 14.6123 116.868 12.371 116.868 11.4456C116.868 10.6302 116.9 8.16514 118.904 6.6292C119.506 6.18866 120.23 5.84428 121.028 5.61827C121.826 5.39226 122.681 5.28964 123.537 5.31702C124.313 5.29715 125.086 5.39333 125.809 5.59955C126.531 5.80577 127.187 6.11757 127.734 6.51543L127.724 6.51164Z" fill="#00202E"/>
<path d="M135.243 17.3012C134.261 17.2727 133.278 17.2879 132.299 17.3467L132.11 17.2101C132.173 15.989 132.205 14.9347 132.205 13.0385C132.205 8.80987 132.142 7.5887 131.921 5.87072L132.079 5.73419C133.106 5.67788 134.123 5.55089 135.117 5.35494L135.337 5.49148C135.306 6.19308 135.306 6.87193 135.274 7.55078C135.652 6.87193 136.465 5.31323 138.779 5.31323C139.163 5.31588 139.543 5.36194 139.907 5.44976L140.033 5.60904C139.878 6.335 139.784 7.06698 139.75 7.80108L139.529 7.89209C139.115 7.64657 138.596 7.51253 138.06 7.51285C137.431 7.52079 136.829 7.69792 136.371 8.00966C135.321 8.76815 135.274 9.86418 135.274 11.7642C135.274 13.2584 135.337 15.6552 135.432 17.1457L135.243 17.2822" fill="#00202E"/>
<path d="M150.716 17.2101C150.778 15.4466 150.81 13.2091 150.81 12.4847C150.81 11.4911 150.778 10.0424 150.747 9.20427C150.716 8.70746 150.621 7.19048 148.522 7.19048C147.179 7.19048 145.957 7.91483 145.332 8.38889C145.332 10.1524 145.332 15.1053 145.521 17.1608L145.332 17.2973C143.895 17.2746 143.611 17.2973 142.357 17.3429L142.168 17.2063C142.231 16.1672 142.294 14.7868 142.294 12.6175C142.294 10.3799 142.263 8.11583 142.074 5.87829L142.231 5.74177C143.252 5.65366 144.266 5.52708 145.269 5.36252L145.458 5.49904C145.377 5.93404 145.335 6.37234 145.332 6.81124C146.707 5.95035 148.118 5.33977 149.902 5.33977C150.675 5.31217 151.437 5.47339 152.068 5.79745C152.698 6.1215 153.159 6.58951 153.376 7.12601C153.848 8.00965 153.848 8.55197 153.848 10.471L153.879 12.4165C153.911 15.6742 153.911 16.0345 154.005 17.1646L153.816 17.3011C152.41 17.3011 152.158 17.3011 150.873 17.3467L150.716 17.2101Z" fill="#00202E"/>
<path d="M82.3965 15.6249C82.7368 15.6606 83.084 15.6341 83.4066 15.548C83.7292 15.4619 84.0168 15.3189 84.2434 15.1319L89.0285 11.2977C89.4419 10.953 89.6696 10.512 89.6696 10.0557C89.6696 9.59942 89.4419 9.15844 89.0285 8.81367L84.2434 4.9795C84.0173 4.79311 83.7305 4.65042 83.409 4.56434C83.0874 4.47825 82.7412 4.45149 82.4017 4.48648L85.8541 8.38512C86.2553 8.89345 86.4663 9.46857 86.4663 10.0538C86.4663 10.639 86.2553 11.2142 85.8541 11.7225L82.4017 15.6211" fill="#00202E"/>
<path d="M78.3772 14.5099C78.6472 14.5396 78.9231 14.5206 79.1804 14.4544C79.4377 14.3882 79.6683 14.277 79.8516 14.1306L83.6817 11.0663C84.0125 10.7905 84.1946 10.4377 84.1946 10.0727C84.1946 9.70769 84.0125 9.35491 83.6817 9.07909L79.8516 6.0148C79.6686 5.86819 79.438 5.75677 79.1807 5.69056C78.9233 5.62436 78.6472 5.60546 78.3772 5.63556L81.1423 8.75673C81.4596 9.16153 81.6264 9.61884 81.6264 10.0841C81.6264 10.5493 81.4596 11.0067 81.1423 11.4115L78.3772 14.5326" fill="#00202E"/>
</g>
<defs>
<clipPath id="clip0_37_2920">
<rect width="154" height="22" fill="white"/>
</clipPath>
</defs>
</svg>
