<svg width="17" height="16" viewBox="0 0 17 16" fill="none" xmlns="http://www.w3.org/2000/svg">
<g clip-path="url(#clip0_37_2840)">
<path d="M8.49999 0C13.1944 0 17 3.58173 17 7.99999C17 12.0902 13.7385 15.463 9.52979 15.9414V10.4447L11.8292 10.4447L12.3062 8H9.52979V7.13539C9.52979 6.48945 9.6644 6.04226 9.97324 5.75656C10.2821 5.47084 10.7652 5.34662 11.462 5.34662C11.6384 5.34662 11.8008 5.34827 11.9448 5.35157C12.1543 5.35638 12.3251 5.36467 12.444 5.37644V3.16032C12.3965 3.14789 12.3404 3.13547 12.2776 3.12324C12.1352 3.09554 11.9582 3.06883 11.768 3.04537C11.3704 2.99635 10.9149 2.96153 10.5962 2.96153C9.3092 2.96153 8.33652 3.22068 7.65758 3.75746C6.83817 4.40527 6.4466 5.45748 6.4466 6.94659V7.99999H4.69383V10.4447H6.4466V15.7644C2.74431 14.8999 0 11.7518 0 7.99999C0 3.58173 3.80558 0 8.49999 0Z" fill="white"/>
</g>
<defs>
<clipPath id="clip0_37_2840">
<rect width="17" height="16" fill="white"/>
</clipPath>
</defs>
</svg>
