<svg width="17" height="16" viewBox="0 0 17 16" fill="none" xmlns="http://www.w3.org/2000/svg">
<g clipPath="url(#clip0_37_2843)">
<path fillRule="evenodd" clipRule="evenodd" d="M16.1121 3.22263C16.3759 3.47247 16.5653 3.78313 16.6614 4.12353C17.0168 5.37989 17.0168 7.99989 17.0168 7.99989C17.0168 7.99989 17.0168 10.6199 16.6614 11.8763C16.5653 12.2166 16.3759 12.5273 16.1121 12.7771C15.8483 13.027 15.5195 13.2073 15.1584 13.2999C13.8293 13.6363 8.51685 13.6363 8.51685 13.6363C8.51685 13.6363 3.20435 13.6363 1.87525 13.2999C1.51421 13.2073 1.18535 13.027 0.921591 12.7771C0.657828 12.5273 0.468412 12.2166 0.3723 11.8763C0.0168457 10.6199 0.0168457 7.99989 0.0168457 7.99989C0.0168457 7.99989 0.0168457 5.37989 0.3723 4.12353C0.468412 3.78313 0.657828 3.47247 0.921591 3.22263C1.18535 2.97279 1.51421 2.79253 1.87525 2.69989C3.20435 2.36353 8.51685 2.36353 8.51685 2.36353C8.51685 2.36353 13.8293 2.36353 15.1584 2.69989C15.5195 2.79253 15.8483 2.97279 16.1121 3.22263ZM11.2214 7.99991L6.77822 5.62082V10.379L11.2214 7.99991Z" fill="white"/>
</g>
<defs>
<clipPath id="clip0_37_2843">
<rect width="17" height="16" fill="white"/>
</clipPath>
</defs>
</svg>
