<svg width="104" height="100" viewBox="0 0 104 100" fill="none" xmlns="http://www.w3.org/2000/svg">
<path d="M92.8571 23.6743V18.211C92.8571 17.728 92.6615 17.2648 92.3132 16.9233C91.9649 16.5818 91.4925 16.3899 91 16.3899H83.5714C83.0789 16.3899 82.6065 16.5818 82.2582 16.9233C81.9099 17.2648 81.7143 17.728 81.7143 18.211V27.3165H85.6737L69.5779 50.9908H64.7734L59.4119 10.6917C59.3537 10.2533 59.1349 9.85059 58.7963 9.55874C58.4576 9.26688 58.0223 9.10579 57.5714 9.1055H53.8571V3.6422H59.4286V0H44.5714V3.6422H50.1429V9.1055H46.4286C45.9777 9.10579 45.5424 9.26688 45.2037 9.55874C44.8651 9.85059 44.6463 10.2533 44.5881 10.6917L40.196 43.7064H34.4221L18.3263 20.0321H22.2857C22.7783 20.0321 23.2506 19.8402 23.5989 19.4987C23.9472 19.1572 24.1429 18.694 24.1429 18.211V10.9266C24.1429 10.4436 23.9472 9.98041 23.5989 9.63889C23.2506 9.29737 22.7783 9.1055 22.2857 9.1055H14.8571C14.3646 9.1055 13.8922 9.29737 13.5439 9.63889C13.1957 9.98041 13 10.4436 13 10.9266V16.3899H0V20.0321H5.57143V47.6837C4.48649 48.0549 3.54619 48.7479 2.88084 49.6666C2.21549 50.5853 1.85805 51.6842 1.85805 52.811C1.85805 53.9378 2.21549 55.0367 2.88084 55.9554C3.54619 56.8741 4.48649 57.5671 5.57143 57.9383V61.9174H9.28571V57.9401C10.3707 57.5689 11.311 56.8759 11.9763 55.9572C12.6416 55.0385 12.9991 53.9396 12.9991 52.8128C12.9991 51.686 12.6416 50.5871 11.9763 49.6684C11.311 48.7498 10.3707 48.0568 9.28571 47.6855V29.6839L18.8166 43.7064H14.8571V47.3486H24.1429V72.844H18.5714C18.0789 72.844 17.6065 73.0359 17.2582 73.3774C16.9099 73.7189 16.7143 74.1821 16.7143 74.6651V81.9495C16.7143 82.4325 16.9099 82.8957 17.2582 83.2372C17.6065 83.5788 18.0789 83.7706 18.5714 83.7706H24.1429V94.4332C23.7956 94.6153 23.4446 94.7864 23.1121 95.0032C21.768 95.8844 20.1874 96.3548 18.5705 96.3548C16.9536 96.3548 15.373 95.8844 14.0289 95.0032L10.9887 93.0145C9.03426 91.735 6.73655 91.0531 4.38657 91.055H0V94.6972H4.38657C6.00274 94.6962 7.58292 95.1652 8.92729 96.0448L11.9693 98.0335C13.9227 99.3151 16.2202 99.9993 18.5705 99.9993C20.9208 99.9993 23.2183 99.3151 25.1717 98.0335C26.5159 97.1522 28.0964 96.6819 29.7134 96.6819C31.3303 96.6819 32.9108 97.1522 34.255 98.0335C36.2084 99.3151 38.5059 99.9993 40.8562 99.9993C43.2066 99.9993 45.504 99.3151 47.4574 98.0335C48.8016 97.1522 50.3822 96.6819 51.9991 96.6819C53.616 96.6819 55.1965 97.1522 56.5407 98.0335C58.4941 99.3151 60.7916 99.9993 63.1419 99.9993C65.4923 99.9993 67.7897 99.3151 69.7431 98.0335C71.0873 97.1522 72.6679 96.6819 74.2848 96.6819C75.9017 96.6819 77.4823 97.1522 78.8264 98.0335C80.7797 99.3156 83.0772 100 85.4276 100C87.7781 100 90.0756 99.3156 92.0289 98.0335L95.0709 96.0448C96.4157 95.1648 97.9966 94.6958 99.6134 94.6972H104V91.055H99.6134C97.2635 91.0531 94.9657 91.735 93.0113 93.0145L89.9693 95.0032C88.6251 95.8844 87.0445 96.3548 85.4276 96.3548C83.8107 96.3548 82.2302 95.8844 80.886 95.0032C80.5536 94.7864 80.2026 94.6134 79.8553 94.4332V83.7706H85.4267C85.9193 83.7706 86.3916 83.5788 86.7399 83.2372C87.0882 82.8957 87.2839 82.4325 87.2839 81.9495V74.6651C87.2839 74.1821 87.0882 73.7189 86.7399 73.3774C86.3916 73.0359 85.9193 72.844 85.4267 72.844H79.8571V54.633H89.1429V50.9908H85.1834L94.7143 36.9683V54.9644C93.6293 55.3357 92.689 56.0287 92.0237 56.9474C91.3584 57.8661 91.0009 58.965 91.0009 60.0918C91.0009 61.2186 91.3584 62.3174 92.0237 63.2361C92.689 64.1548 93.6293 64.8478 94.7143 65.2191V69.2018H98.4286V65.2245C99.5135 64.8533 100.454 64.1603 101.119 63.2416C101.785 62.3229 102.142 61.224 102.142 60.0972C102.142 58.9704 101.785 57.8715 101.119 56.9528C100.454 56.0342 99.5135 55.3412 98.4286 54.9699V27.3165H104V23.6743H92.8571ZM85.4286 20.0321H89.1429V23.6743H85.4286V20.0321ZM43.4571 47.3486H50.1429V50.9908H42.9724L43.4571 47.3486ZM53.8571 38.2431H59.332L60.0581 43.7064H53.8571V38.2431ZM53.8571 34.6009V29.1376H58.1286L58.8547 34.6009H53.8571ZM57.6364 25.4954H53.8571V20.0321H56.9103L57.6364 25.4954ZM50.1429 25.4954H46.3636L47.0897 20.0321H50.1429V25.4954ZM50.1429 29.1376V34.6009H45.1527L45.8789 29.1376H50.1429ZM50.1429 38.2431V43.7064H43.94L44.6661 38.2431H50.1429ZM53.8571 47.3486H60.5429L61.0276 50.9908H53.8571V47.3486ZM55.9409 12.7477L56.4256 16.3899H53.8571V12.7477H55.9409ZM50.1429 12.7477V16.3899H47.5744L48.0591 12.7477H50.1429ZM39.2266 50.9908H27.8571V47.3486H39.7113L39.2266 50.9908ZM27.8571 61.9174H31.5714V65.5596H27.8571V61.9174ZM16.7143 12.7477H20.4286V16.3899H16.7143V12.7477ZM7.42857 54.633C7.06126 54.633 6.7022 54.5262 6.3968 54.3261C6.09139 54.126 5.85336 53.8416 5.71279 53.5088C5.57223 53.176 5.53545 52.8099 5.60711 52.4566C5.67877 52.1034 5.85565 51.7789 6.11537 51.5242C6.3751 51.2695 6.70601 51.0961 7.06626 51.0258C7.42651 50.9555 7.79992 50.9916 8.13927 51.1294C8.47862 51.2673 8.76866 51.5007 8.97273 51.8002C9.17679 52.0996 9.28571 52.4517 9.28571 52.8119C9.28571 53.2949 9.09005 53.7581 8.74177 54.0996C8.39349 54.4411 7.92112 54.633 7.42857 54.633ZM9.28571 20.0321H13.8636L24.5551 35.7573L19.2809 37.8261L9.28571 23.128V20.0321ZM23.2793 43.7064L21.3869 40.9219L26.6611 38.8532L29.9594 43.7064H23.2737H23.2793ZM27.8571 93.1893V83.7706H31.5714V93.1893C30.341 92.9977 29.0875 92.9977 27.8571 93.1893ZM36.3164 95.0104C35.984 94.7937 35.633 94.6207 35.2857 94.4404V83.7706H46.4286V94.4332C46.0813 94.6153 45.7303 94.7864 45.3979 95.0032C44.0539 95.884 42.4737 96.3542 40.8571 96.3542C39.2406 96.3542 37.6604 95.884 36.3164 95.0032V95.0104ZM50.1429 93.1893V83.7706H53.8571V93.1893C52.6268 92.9977 51.3732 92.9977 50.1429 93.1893ZM58.6021 95.0104C58.2697 94.7937 57.9187 94.6207 57.5714 94.4404V83.7706H68.7143V94.4332C68.367 94.6153 68.016 94.7864 67.6836 95.0032C66.3396 95.884 64.7594 96.3542 63.1429 96.3542C61.5263 96.3542 59.9461 95.884 58.6021 95.0032V95.0104ZM76.1429 93.1893C74.9125 92.9977 73.659 92.9977 72.4286 93.1893V83.7706H76.1429V93.1893ZM83.5714 76.4862V80.1284H20.4286V76.4862H83.5714ZM27.8571 72.844V69.2018H33.4286C33.9211 69.2018 34.3935 69.0099 34.7418 68.6684C35.0901 68.3269 35.2857 67.8637 35.2857 67.3807V60.0963C35.2857 59.6133 35.0901 59.1501 34.7418 58.8086C34.3935 58.4671 33.9211 58.2752 33.4286 58.2752H27.8571V54.633H76.1429V58.2752H55.7143C55.2217 58.2752 54.7494 58.4671 54.4011 58.8086C54.0528 59.1501 53.8571 59.6133 53.8571 60.0963V67.3807C53.8571 67.8637 54.0528 68.3269 54.4011 68.6684C54.7494 69.0099 55.2217 69.2018 55.7143 69.2018H76.1429V72.844H27.8571ZM76.1429 65.5596H57.5714V61.9174H76.1429V65.5596ZM79.8571 50.9908H74.0406L77.1476 46.4217L81.9186 49.2298L80.7207 50.9908H79.8571ZM96.5714 61.9174C96.2041 61.9174 95.8451 61.8106 95.5397 61.6105C95.2343 61.4104 94.9962 61.126 94.8557 60.7932C94.7151 60.4604 94.6783 60.0943 94.75 59.741C94.8216 59.3878 94.9985 59.0633 95.2582 58.8086C95.518 58.5539 95.8489 58.3805 96.2091 58.3102C96.5694 58.2399 96.9428 58.276 97.2821 58.4138C97.6215 58.5517 97.9115 58.7851 98.1156 59.0846C98.3196 59.384 98.4286 59.7361 98.4286 60.0963C98.4286 60.5793 98.2329 61.0425 97.8846 61.384C97.5363 61.7255 97.064 61.9174 96.5714 61.9174ZM94.7143 30.4124L83.9819 46.1995L79.2109 43.3932L90.1364 27.3165H94.7143V30.4124Z" fill="#0184C1"/>
<path d="M48.2857 58.2751H40.8571C40.3646 58.2751 39.8922 58.467 39.5439 58.8085C39.1957 59.1501 39 59.6133 39 60.0962V67.3806C39 67.8636 39.1957 68.3268 39.5439 68.6684C39.8922 69.0099 40.3646 69.2017 40.8571 69.2017H48.2857C48.7783 69.2017 49.2506 69.0099 49.5989 68.6684C49.9472 68.3268 50.1429 67.8636 50.1429 67.3806V60.0962C50.1429 59.6133 49.9472 59.1501 49.5989 58.8085C49.2506 58.467 48.7783 58.2751 48.2857 58.2751ZM46.4286 65.5595H42.7143V61.9173H46.4286V65.5595Z" fill="#0184C1"/>
</svg>
